<svg width="45" height="45" viewBox="0 0 45 45" fill="none" xmlns="http://www.w3.org/2000/svg">
<circle cx="22.8817" cy="22.1181" r="21.8681" stroke="white" stroke-opacity="0.5" stroke-width="0.5"/>
<circle cx="22.8826" cy="22.1182" r="15.7986" fill="white"/>
<path d="M28.0248 26.2106C26.9497 27.0706 25.4447 27.7156 23.9396 27.7156C20.4995 27.7156 18.1345 25.1355 18.1345 21.6954C18.1345 18.2553 20.4995 15.8902 23.9396 15.8902C25.4447 15.8902 26.9497 16.3202 28.0248 17.3953L28.6698 18.0403L32.1099 14.8152L31.2499 14.1702C29.3148 12.4501 26.7347 11.3751 23.9396 11.3751C17.9194 11.3751 13.4043 15.8902 13.4043 21.9104C13.4043 27.9306 17.9194 32.4458 23.9396 32.4458C26.7347 32.4458 29.3148 31.3707 31.2499 29.6507L32.1099 29.0057L28.6698 25.5655L28.0248 26.2106Z" fill="#17313B"/>
<path d="M23.7253 25.3506C25.6252 25.3506 27.1654 23.8104 27.1654 21.9105C27.1654 20.0106 25.6252 18.4704 23.7253 18.4704C21.8253 18.4704 20.2852 20.0106 20.2852 21.9105C20.2852 23.8104 21.8253 25.3506 23.7253 25.3506Z" fill="#EF4335"/>
</svg>
