<svg width="46" height="46" viewBox="0 0 46 46" fill="none" xmlns="http://www.w3.org/2000/svg">
<circle cx="23" cy="23" r="23" fill="#F0EDE7"/>
<g clip-path="url(#clip0_938_450)">
<path d="M28.9637 16H17.0336C16.4621 16 16 16.4512 16 17.009V28.9883C16 29.5461 16.4621 30 17.0336 30H28.9637C29.5352 30 30 29.5461 30 28.991V17.009C30 16.4512 29.5352 16 28.9637 16ZM20.1535 27.9301H18.0754V21.2473H20.1535V27.9301ZM19.1145 20.3367C18.4473 20.3367 17.9086 19.798 17.9086 19.1336C17.9086 18.4691 18.4473 17.9305 19.1145 17.9305C19.7789 17.9305 20.3176 18.4691 20.3176 19.1336C20.3176 19.7953 19.7789 20.3367 19.1145 20.3367ZM27.9301 27.9301H25.8547V24.6816C25.8547 23.9078 25.841 22.9098 24.7746 22.9098C23.6945 22.9098 23.5305 23.7547 23.5305 24.627V27.9301H21.4578V21.2473H23.4484V22.1605H23.4758C23.752 21.6355 24.4301 21.0805 25.4391 21.0805C27.5418 21.0805 27.9301 22.4641 27.9301 24.2633V27.9301V27.9301Z" fill="black"/>
</g>
<defs>
<clipPath id="clip0_938_450">
<rect width="14" height="14" fill="white" transform="translate(16 16)"/>
</clipPath>
</defs>
</svg>
