<svg width="16" height="16" viewBox="0 0 16 16" fill="none" xmlns="http://www.w3.org/2000/svg">
<path fill-rule="evenodd" clip-rule="evenodd" d="M15.9933 7.99998C15.9933 12.4124 12.414 15.9893 7.99858 15.9893C3.58324 15.9893 0.00390625 12.4124 0.00390625 7.99998C0.00390625 3.58758 3.58324 0.0106201 7.99858 0.0106201C12.414 0.0106201 15.9933 3.58758 15.9933 7.99998ZM5.73312 11.1793H4.18158C3.85555 11.1793 3.69451 11.1793 3.59632 11.1166C3.49026 11.0479 3.42545 10.934 3.41759 10.8084C3.41169 10.6926 3.49223 10.5513 3.65327 10.2687L7.48422 3.52057C7.64723 3.23401 7.72971 3.09074 7.8338 3.03775C7.94575 2.98083 8.07931 2.98083 8.19125 3.03775C8.29535 3.09074 8.37784 3.23401 8.54084 3.52057L9.3284 4.89444L9.33242 4.90145C9.50848 5.20886 9.59776 5.36476 9.63675 5.52838C9.67995 5.70698 9.67995 5.8954 9.63675 6.074C9.59747 6.23886 9.50909 6.39589 9.33036 6.70795L7.31806 10.2628L7.31285 10.2719C7.13563 10.5818 7.04581 10.7389 6.92134 10.8574C6.78582 10.987 6.62281 11.0812 6.44408 11.1342C6.28107 11.1793 6.09843 11.1793 5.73312 11.1793ZM9.65128 11.1793H11.8745C12.2024 11.1793 12.3674 11.1793 12.4657 11.1147C12.5717 11.0459 12.6385 10.9301 12.6444 10.8046C12.6501 10.6925 12.5713 10.5567 12.4169 10.2905C12.4116 10.2814 12.4063 10.2722 12.4009 10.2628L11.2873 8.35902L11.2746 8.33759C11.1181 8.07314 11.0391 7.9396 10.9377 7.88798C10.8258 7.83106 10.6941 7.83106 10.5822 7.88798C10.4801 7.94097 10.3976 8.08032 10.2346 8.36098L9.12493 10.2648L9.12113 10.2713C8.95869 10.5515 8.87751 10.6916 8.88336 10.8065C8.89122 10.9321 8.95603 11.0479 9.06208 11.1166C9.15832 11.1793 9.32329 11.1793 9.65128 11.1793Z" fill="white"/>
</svg>
