<svg width="16" height="10" viewBox="0 0 16 10" fill="none" xmlns="http://www.w3.org/2000/svg">
<path d="M4.54745 3.4947C4.54745 3.68944 4.5685 3.84734 4.60535 3.96312C4.64745 4.07891 4.70008 4.20523 4.77377 4.34207C4.80008 4.38418 4.81061 4.42628 4.81061 4.46312C4.81061 4.51576 4.77903 4.56839 4.71061 4.62102L4.37903 4.84207C4.33166 4.87365 4.28429 4.88944 4.24219 4.88944C4.18956 4.88944 4.13692 4.86312 4.08429 4.81576C4.01061 4.73681 3.94745 4.6526 3.89482 4.56839C3.84219 4.47891 3.78956 4.37891 3.73166 4.25786C3.32114 4.74207 2.80535 4.98418 2.18429 4.98418C1.74219 4.98418 1.38956 4.85786 1.13166 4.60523C0.873766 4.3526 0.742188 4.01576 0.742188 3.5947C0.742188 3.14734 0.900082 2.78418 1.22113 2.51049C1.54219 2.23681 1.9685 2.09997 2.51061 2.09997C2.68956 2.09997 2.87377 2.11576 3.0685 2.14207C3.26324 2.16839 3.46324 2.21049 3.67377 2.25786V1.87365C3.67377 1.47365 3.58956 1.1947 3.4264 1.03155C3.25798 0.868388 2.97377 0.78944 2.5685 0.78944C2.38429 0.78944 2.19482 0.810493 2.00008 0.857861C1.80535 0.90523 1.61587 0.963124 1.43166 1.03681C1.34745 1.07365 1.28429 1.0947 1.24745 1.10523C1.21061 1.11576 1.18429 1.12102 1.16324 1.12102C1.08956 1.12102 1.05271 1.06839 1.05271 0.957861V0.699967C1.05271 0.615756 1.06324 0.552598 1.08956 0.515756C1.11587 0.478914 1.16324 0.442072 1.23692 0.40523C1.42113 0.310493 1.64219 0.231546 1.90008 0.168388C2.15798 0.0999666 2.43166 0.0683876 2.72113 0.0683876C3.34745 0.0683876 3.80535 0.210493 4.10008 0.494703C4.38956 0.778914 4.53692 1.21049 4.53692 1.78944V3.4947H4.54745ZM2.41061 4.2947C2.58429 4.2947 2.76324 4.26312 2.95271 4.19997C3.14219 4.13681 3.31061 4.02102 3.45271 3.86312C3.53692 3.76312 3.60008 3.6526 3.63166 3.52628C3.66324 3.39997 3.68429 3.24733 3.68429 3.06839V2.84733C3.53166 2.81049 3.3685 2.77891 3.20008 2.75786C3.03166 2.73681 2.8685 2.72628 2.70535 2.72628C2.35271 2.72628 2.09482 2.7947 1.92113 2.93681C1.74745 3.07891 1.66324 3.27891 1.66324 3.54207C1.66324 3.78944 1.7264 3.97365 1.85798 4.09997C1.98429 4.23155 2.1685 4.2947 2.41061 4.2947ZM6.63692 4.86312C6.54219 4.86312 6.47903 4.84733 6.43692 4.81049C6.39482 4.77891 6.35798 4.70523 6.3264 4.60523L5.08956 0.536809C5.05798 0.431545 5.04219 0.363124 5.04219 0.326282C5.04219 0.242072 5.08429 0.194703 5.1685 0.194703H5.68429C5.78429 0.194703 5.85271 0.210493 5.88956 0.247335C5.93166 0.278914 5.96324 0.352598 5.99482 0.452598L6.87903 3.93681L7.70008 0.452598C7.7264 0.347335 7.75798 0.278914 7.80008 0.247335C7.84219 0.215756 7.91587 0.194703 8.01061 0.194703H8.43166C8.53166 0.194703 8.60008 0.210493 8.64219 0.247335C8.68429 0.278914 8.72113 0.352598 8.74219 0.452598L9.57377 3.97891L10.4843 0.452598C10.5159 0.347335 10.5527 0.278914 10.5896 0.247335C10.6317 0.215756 10.7001 0.194703 10.7948 0.194703H11.2843C11.3685 0.194703 11.4159 0.236809 11.4159 0.326282C11.4159 0.352598 11.4106 0.378914 11.4053 0.410493C11.4001 0.442072 11.3896 0.484177 11.3685 0.542072L10.1001 4.61049C10.0685 4.71576 10.0317 4.78418 9.98956 4.81576C9.94745 4.84733 9.87903 4.86839 9.78956 4.86839H9.33692C9.23692 4.86839 9.1685 4.8526 9.1264 4.81576C9.08429 4.77891 9.04745 4.71049 9.0264 4.60523L8.21061 1.21049L7.40008 4.59997C7.37377 4.70523 7.34219 4.77365 7.30008 4.81049C7.25798 4.84733 7.18429 4.86312 7.08956 4.86312H6.63692ZM13.4001 5.00523C13.1264 5.00523 12.8527 4.97365 12.5896 4.91049C12.3264 4.84733 12.1211 4.77891 11.9843 4.69997C11.9001 4.6526 11.8422 4.59997 11.8211 4.5526C11.8001 4.50523 11.7896 4.4526 11.7896 4.40523V4.13681C11.7896 4.02628 11.8317 3.97365 11.9106 3.97365C11.9422 3.97365 11.9738 3.97891 12.0053 3.98944C12.0369 3.99997 12.0843 4.02102 12.1369 4.04207C12.3159 4.12102 12.5106 4.18418 12.7159 4.22628C12.9264 4.26839 13.1317 4.28944 13.3422 4.28944C13.6738 4.28944 13.9317 4.23155 14.1106 4.11576C14.2896 3.99997 14.3843 3.83155 14.3843 3.61576C14.3843 3.46839 14.3369 3.34733 14.2422 3.24733C14.1475 3.14733 13.9685 3.05786 13.7106 2.97365L12.9475 2.73681C12.5632 2.61576 12.279 2.43681 12.1053 2.19997C11.9317 1.96839 11.8422 1.71049 11.8422 1.43681C11.8422 1.21576 11.8896 1.02102 11.9843 0.852598C12.079 0.684177 12.2053 0.536809 12.3632 0.421019C12.5211 0.299967 12.7001 0.210493 12.9106 0.147335C13.1211 0.0841771 13.3422 0.0578613 13.5738 0.0578613C13.6896 0.0578613 13.8106 0.0631245 13.9264 0.078914C14.0475 0.0947034 14.158 0.115756 14.2685 0.136809C14.3738 0.163124 14.4738 0.18944 14.5685 0.221019C14.6632 0.252598 14.7369 0.284177 14.7896 0.315756C14.8632 0.357861 14.9159 0.399967 14.9475 0.447335C14.979 0.48944 14.9948 0.547335 14.9948 0.621019V0.868388C14.9948 0.978914 14.9527 1.03681 14.8738 1.03681C14.8317 1.03681 14.7632 1.01576 14.6738 0.973651C14.3738 0.836809 14.0369 0.768388 13.6632 0.768388C13.3632 0.768388 13.1264 0.815756 12.9632 0.915756C12.8001 1.01576 12.7159 1.16839 12.7159 1.38418C12.7159 1.53155 12.7685 1.65786 12.8738 1.75786C12.979 1.85786 13.1738 1.95786 13.4527 2.04734L14.2001 2.28418C14.579 2.40523 14.8527 2.57365 15.0159 2.78944C15.179 3.00523 15.258 3.2526 15.258 3.52628C15.258 3.7526 15.2106 3.95786 15.1211 4.13681C15.0264 4.31576 14.9001 4.47365 14.7369 4.59997C14.5738 4.73155 14.379 4.82628 14.1527 4.8947C13.9159 4.96839 13.6685 5.00523 13.4001 5.00523Z" fill="white"/>
<path fill-rule="evenodd" clip-rule="evenodd" d="M14.3948 7.56323C12.6633 8.84218 10.1475 9.52112 7.98431 9.52112C4.95273 9.52112 2.22115 8.40007 0.157997 6.53691C-0.00516111 6.38954 0.142207 6.18954 0.336944 6.30533C2.56852 7.60007 5.32115 8.38428 8.16852 8.38428C10.0896 8.38428 12.2001 7.98428 14.1422 7.16323C14.4317 7.03165 14.6791 7.3527 14.3948 7.56323Z" fill="white"/>
<path fill-rule="evenodd" clip-rule="evenodd" d="M15.1164 6.74214C14.8953 6.45793 13.6532 6.6053 13.0901 6.67372C12.9217 6.69477 12.8953 6.5474 13.048 6.43687C14.0374 5.74214 15.6638 5.94214 15.8532 6.17372C16.0427 6.41056 15.8006 8.03687 14.8743 8.81582C14.7322 8.93687 14.5953 8.87372 14.6585 8.71582C14.869 8.19477 15.3374 7.02109 15.1164 6.74214Z" fill="white"/>
</svg>
