<svg width="16" height="13" viewBox="0 0 16 13" fill="none" xmlns="http://www.w3.org/2000/svg">
<path d="M7.402 11.7311C9.45763 11.368 11.1555 11.0675 11.175 11.0633L11.2104 11.0558L9.2697 8.74739C8.2023 7.47776 7.32898 6.43405 7.32898 6.42803C7.32898 6.41664 9.33293 0.898186 9.3442 0.878553C9.34797 0.871989 10.7117 3.22647 12.65 6.58596C14.4647 9.73119 15.9608 12.3244 15.9747 12.3487L16 12.3929L9.83225 12.3921L3.66449 12.3913L7.402 11.7311ZM0 11.0271C0 11.0239 0.914457 9.43646 2.03212 7.49952L4.06425 3.97782L6.43245 1.99042C7.73497 0.897346 8.80417 0.00167838 8.80845 4.48996e-05C8.81274 -0.00158826 8.79561 0.0415366 8.77038 0.0958784C8.74515 0.15022 7.58796 2.63228 6.19884 5.61156L3.67317 11.0284L1.83659 11.0307C0.826464 11.032 0 11.0304 0 11.0271Z" fill="white"/>
</svg>
