<svg width="16" height="16" viewBox="0 0 16 16" fill="none" xmlns="http://www.w3.org/2000/svg">
<g clip-path="url(#clip0_925_374)">
<path d="M4.82362 6.72333L7.93084 3.61624L11.0397 6.72498L12.8477 4.91698L7.93084 0L3.01562 4.91534L4.82362 6.72333Z" fill="white"/>
<path d="M3.54624 7.99974L1.73828 6.19177L-0.0697713 7.99983L1.73819 9.80779L3.54624 7.99974Z" fill="white"/>
<path d="M4.82237 9.27666L7.92959 12.3838L11.0383 9.27515L12.8473 11.0821L12.8464 11.0831L7.92959 16L3.01425 11.0848L3.01172 11.0823L4.82237 9.27666Z" fill="white"/>
<path d="M14.1216 9.80854L15.9297 8.00049L14.1217 6.19252L12.3137 8.00058L14.1216 9.80854Z" fill="white"/>
<path d="M9.76515 7.99897H9.76591L7.93125 6.16431L6.57541 7.52014H6.57528L6.41959 7.67596L6.09823 7.99732L6.0957 7.99985L6.09823 8.0025L7.93125 9.83552L9.76591 8.00086L9.76679 7.99985L9.76515 7.99897Z" fill="white"/>
</g>
<defs>
<clipPath id="clip0_925_374">
<rect width="16" height="16" fill="white"/>
</clipPath>
</defs>
</svg>
