<svg width="16" height="13" viewBox="0 0 16 13" fill="none" xmlns="http://www.w3.org/2000/svg">
<path d="M10.1525 3.54577H10.6405L12.0313 2.15497L12.0996 1.56449C11.3029 0.861262 10.34 0.372752 9.30199 0.14511C8.26396 -0.0825326 7.18503 -0.0417924 6.16712 0.263482C5.14921 0.568757 4.22593 1.12849 3.48449 1.8898C2.74306 2.65111 2.20794 3.58887 1.92969 4.6145C2.08463 4.55099 2.25626 4.54069 2.41769 4.58522L5.19929 4.1265C5.19929 4.1265 5.34081 3.89225 5.41401 3.90689C6.01002 3.25232 6.83369 2.85032 7.7164 2.78319C8.59912 2.71606 9.47411 2.98887 10.1623 3.54577H10.1525Z" fill="white"/>
<path d="M14.0129 4.61446C13.6932 3.43722 13.0369 2.3789 12.1244 1.56934L10.1724 3.52134C10.5792 3.85375 10.9052 4.2742 11.1258 4.75097C11.3465 5.22775 11.456 5.7484 11.446 6.27366V6.62014C11.6742 6.62014 11.9001 6.66508 12.1109 6.75238C12.3216 6.83969 12.5132 6.96766 12.6745 7.12898C12.8358 7.2903 12.9638 7.48182 13.0511 7.69259C13.1384 7.90337 13.1833 8.12928 13.1833 8.35742C13.1833 8.58557 13.1384 8.81148 13.0511 9.02225C12.9638 9.23303 12.8358 9.42454 12.6745 9.58587C12.5132 9.74719 12.3216 9.87516 12.1109 9.96246C11.9001 10.0498 11.6742 10.0947 11.446 10.0947H7.97148L7.625 10.4461V12.5298L7.97148 12.8763H11.446C12.4163 12.8839 13.3632 12.5789 14.1467 12.0066C14.9303 11.4342 15.5087 10.6249 15.7966 9.69832C16.0845 8.77172 16.0665 7.77707 15.7453 6.8615C15.424 5.94592 14.8166 5.15806 14.0129 4.61446Z" fill="white"/>
<path d="M4.49159 12.8567H7.96616V10.0751H4.49159C4.24405 10.0751 3.9994 10.0218 3.77423 9.91895L3.28623 10.0702L1.88567 11.461L1.76367 11.949C2.54908 12.5421 3.50743 12.861 4.49159 12.8567Z" fill="white"/>
<path d="M4.49189 3.83377C3.55045 3.83939 2.63428 4.13892 1.87133 4.6905C1.10838 5.24209 0.536755 6.0182 0.2363 6.91043C-0.0641543 7.80265 -0.0784376 8.76644 0.195445 9.66718C0.469328 10.5679 1.0177 11.3606 1.76397 11.9346L3.77941 9.91914C3.52329 9.80342 3.29907 9.6273 3.12598 9.40587C2.95289 9.18445 2.83611 8.92434 2.78564 8.64786C2.73518 8.37138 2.75255 8.08678 2.83626 7.81849C2.91997 7.5502 3.06752 7.30622 3.26625 7.10749C3.46498 6.90876 3.70896 6.76121 3.97725 6.6775C4.24554 6.59379 4.53014 6.57643 4.80662 6.62689C5.0831 6.67735 5.34321 6.79413 5.56463 6.96722C5.78605 7.14031 5.96218 7.36453 6.07789 7.62065L8.09333 5.60521C7.67031 5.05219 7.1251 4.60452 6.50032 4.29721C5.87555 3.9899 5.18815 3.83129 4.49189 3.83377Z" fill="white"/>
</svg>
