<svg width="16" height="16" viewBox="0 0 16 16" fill="none" xmlns="http://www.w3.org/2000/svg">
<g clip-path="url(#clip0_925_383)">
<path d="M8 16C12.4183 16 16 12.4183 16 8C16 3.58172 12.4183 0 8 0C3.58172 0 0 3.58172 0 8C0 12.4183 3.58172 16 8 16Z" fill="white"/>
<path d="M10.1387 7.0225C9.63338 4.79234 8.43916 4.05906 8.31056 3.77891C8.16994 3.58125 8.02744 3.22969 8.02744 3.22969C8.02509 3.22375 8.02134 3.21328 8.01697 3.20312C8.00244 3.40078 7.99494 3.47703 7.80806 3.67641C7.51869 3.90266 6.034 5.14844 5.91322 7.68219C5.80056 10.0453 7.62025 11.4534 7.86634 11.633L7.89431 11.6528V11.6511C7.89588 11.663 7.97244 12.2136 8.02619 12.797H8.219C8.26424 12.3846 8.33205 11.975 8.42213 11.57L8.43775 11.5598C8.54783 11.4809 8.65278 11.3951 8.75197 11.3028L8.76322 11.2927C9.28634 10.8094 10.2268 9.69156 10.2176 7.90938C10.2156 7.61209 10.1893 7.31546 10.1387 7.0225ZM8.00572 10.2987C8.00572 10.2987 8.00572 6.98438 8.11509 6.985C8.20041 6.985 8.31088 11.2602 8.31088 11.2602C8.159 11.2419 8.00572 10.5566 8.00572 10.2987Z" fill="black"/>
</g>
<defs>
<clipPath id="clip0_925_383">
<rect width="16" height="16" fill="white"/>
</clipPath>
</defs>
</svg>
