<svg width="16" height="18" viewBox="0 0 16 18" fill="none" xmlns="http://www.w3.org/2000/svg">
<path d="M10.1012 8.17554L6.59312 9.31955L3.54336 10.6666L2.68896 10.8924C2.47235 11.0983 2.24247 11.3074 1.99767 11.5205C1.72857 11.7546 1.47551 11.9668 1.28308 12.1202C1.06881 12.291 0.750207 12.6071 0.587359 12.8098C0.345082 13.1114 0.155623 13.433 0.0741637 13.6803C-0.07239 14.1253 -0.000986182 14.5759 0.281661 14.9919C0.642715 15.5232 1.36147 16.063 2.1974 16.4305C2.6238 16.6179 3.34335 16.8596 3.8829 16.9958C4.78206 17.2229 6.51986 17.4696 7.47692 17.5062C7.67103 17.5137 7.92942 17.513 7.9413 17.5051C7.9623 17.4913 8.11129 17.2091 8.28417 16.856C8.87237 15.6545 9.29792 14.5281 9.52693 13.566C9.66559 12.9835 9.77369 12.2068 9.84372 11.2858C9.86334 11.0278 9.87045 10.1674 9.85537 9.8749C9.83084 9.39901 9.78893 9.01113 9.72167 8.63048C9.7118 8.57469 9.70817 8.52562 9.71334 8.52118C9.7231 8.51281 9.75623 8.50218 10.1871 8.37693L10.1012 8.17554ZM9.29946 8.64601C9.33134 8.64601 9.41612 9.45899 9.43816 9.97477C9.44284 10.0844 9.4419 10.1545 9.43539 10.1545C9.41445 10.1545 8.98613 9.90301 8.68252 9.71235C8.41737 9.54584 7.91421 9.21148 7.83422 9.14867C7.80898 9.12885 7.81164 9.12788 8.0284 9.05324C8.3972 8.92624 9.27159 8.64601 9.29946 8.64601ZM7.51243 9.23244C7.5351 9.23239 7.59682 9.26645 7.74268 9.35783C8.28983 9.7006 9.03078 10.113 9.34828 10.2516C9.44673 10.2946 9.45797 10.2779 9.23122 10.4319C8.74788 10.7601 8.14699 11.0829 7.40924 11.4106C7.28066 11.4677 7.17173 11.5144 7.16734 11.5144C7.16295 11.5144 7.1773 11.4491 7.19897 11.369C7.37769 10.7079 7.47854 10.0406 7.48136 9.50541C7.48276 9.24073 7.48283 9.23933 7.50799 9.233C7.50917 9.2327 7.51092 9.23244 7.51243 9.23244ZM7.1446 9.37281C7.16043 9.38871 7.14897 9.98182 7.12962 10.1434C7.0832 10.5311 7.00734 10.8897 6.88606 11.2974C6.85708 11.3948 6.82991 11.4788 6.82558 11.4838C6.81505 11.4961 6.45237 11.1427 6.33181 11.0028C6.12581 10.7639 5.96285 10.5265 5.84413 10.2927C5.7838 10.1738 5.68758 9.93912 5.69656 9.93261C5.7373 9.90302 7.13464 9.36281 7.1446 9.37281ZM5.41194 10.0558C5.4152 10.0561 5.41774 10.057 5.41915 10.0585C5.42438 10.0643 5.44285 10.1074 5.46021 10.1545C5.54469 10.384 5.73465 10.7249 5.89961 10.9429C6.07972 11.181 6.31453 11.4346 6.51101 11.6031C6.5741 11.6572 6.63296 11.7077 6.64139 11.7152C6.65821 11.7301 6.66387 11.7276 6.23139 11.8916C5.73016 12.0817 5.18428 12.2721 4.55754 12.4747C4.3187 12.5519 4.11656 12.6172 4.1087 12.6201C4.08483 12.6289 4.09215 12.6142 4.16197 12.5052C4.47338 12.0191 4.94514 11.068 5.20888 10.3953C5.25463 10.2786 5.29816 10.1618 5.30597 10.1357C5.31744 10.0973 5.32875 10.0842 5.36478 10.068C5.38471 10.059 5.40215 10.0548 5.41194 10.0558ZM4.88099 10.2749C4.88805 10.2811 4.7536 10.5651 4.62134 10.8231C4.36481 11.3235 4.08198 11.816 3.70647 12.417C3.64168 12.5207 3.58197 12.6155 3.57387 12.6273C3.56054 12.6467 3.55507 12.6403 3.51395 12.5585C3.42406 12.3797 3.34874 12.1541 3.30979 11.9443C3.27123 11.7367 3.27779 11.3772 3.32421 11.1543C3.3587 10.9886 3.35718 10.9923 3.43517 10.9523C3.77238 10.7795 4.87001 10.2653 4.88099 10.2749ZM9.45425 10.4608V10.5734C9.45368 11.1649 9.39054 11.9748 9.2989 12.5657C9.28282 12.6694 9.2689 12.755 9.26783 12.756C9.26678 12.7571 9.19203 12.7351 9.10195 12.7072C8.70391 12.5836 8.27237 12.399 7.88304 12.1857C7.62522 12.0444 7.25232 11.8155 7.26277 11.8051C7.26561 11.8022 7.37544 11.744 7.50689 11.6758C8.02749 11.4056 8.5248 11.1142 8.95714 10.8253C9.11936 10.7169 9.36207 10.5414 9.41597 10.4941L9.45425 10.4608ZM2.8787 11.2447C2.88951 11.2442 2.88676 11.2647 2.86982 11.3623C2.85805 11.4302 2.84473 11.5585 2.83987 11.647C2.81854 12.0347 2.88142 12.3208 3.07399 12.7122C3.12753 12.821 3.16942 12.9117 3.1672 12.9136C3.14792 12.9297 1.39441 13.4428 0.843123 13.5938C0.679707 13.6385 0.53688 13.6779 0.525221 13.6814C0.506091 13.6872 0.504387 13.683 0.51135 13.6381C0.571732 13.2491 0.868477 12.7386 1.28308 12.3099C1.55873 12.025 1.77943 11.8562 2.15468 11.642C2.424 11.4882 2.84226 11.2575 2.87315 11.2458C2.87523 11.245 2.87716 11.2448 2.8787 11.2447ZM7.01477 11.9854C7.01644 11.9834 7.0814 12.0182 7.15902 12.0631C7.72541 12.3906 8.51576 12.6978 9.18961 12.852L9.25064 12.8659L9.16686 12.9125C8.81486 13.1078 7.65563 13.5901 6.47162 14.0343C6.29878 14.0991 6.13012 14.1627 6.09712 14.1758C6.06413 14.1888 6.03721 14.1978 6.03721 14.1952C6.03721 14.1926 6.08604 14.0986 6.14595 13.9866C6.47833 13.3651 6.81012 12.6098 6.98037 12.0858C6.99773 12.0324 7.0131 11.9874 7.01477 11.9854ZM6.59312 12.1235C6.59494 12.1253 6.57423 12.181 6.54707 12.2467C6.316 12.8055 6.01325 13.415 5.62721 14.0997C5.52896 14.274 5.44615 14.4163 5.44301 14.416C5.43987 14.4157 5.35996 14.3684 5.26547 14.3106C4.70318 13.9663 4.20567 13.5426 3.87901 13.1305L3.83241 13.0722L4.07486 13.0057C4.93966 12.7688 5.67305 12.5154 6.40227 12.2012C6.50552 12.1567 6.5913 12.1217 6.59312 12.1235ZM9.21235 13.0378C9.2136 13.0381 9.21402 13.039 9.21402 13.0401C9.21402 13.099 9.08025 13.6445 8.96879 14.0393C8.8753 14.3704 8.79682 14.6295 8.65145 15.0884C8.58724 15.2911 8.53212 15.4565 8.52883 15.4557C8.52555 15.4548 8.51015 15.4519 8.49444 15.449C7.70667 15.3065 7.00109 15.1077 6.34013 14.8421C6.15521 14.7678 5.88819 14.6495 5.87409 14.6357C5.86932 14.631 6.029 14.5558 6.22861 14.4687C7.43578 13.942 8.68653 13.3422 9.11415 13.085C9.16559 13.0541 9.20366 13.0361 9.21235 13.0378ZM3.16609 13.2448C3.17256 13.2509 2.83489 13.7343 2.36329 14.3943C2.19937 14.6238 2.00682 14.8942 1.93553 14.9952C1.86425 15.0962 1.75641 15.2562 1.6953 15.3508L1.58379 15.5228L1.46506 15.423C1.32575 15.306 1.0819 15.0576 0.971284 14.9197C0.743656 14.636 0.589417 14.3374 0.528548 14.0631C0.500447 13.9365 0.49962 13.872 0.526329 13.864C0.564931 13.8523 1.27308 13.6856 1.9372 13.5316C2.3061 13.4461 2.73258 13.346 2.88536 13.3091C3.03814 13.2723 3.1646 13.2434 3.16609 13.2448ZM3.50563 13.3746L3.59107 13.47C3.97305 13.8956 4.36153 14.2131 4.8355 14.487C4.91918 14.5354 4.98296 14.5774 4.97753 14.5808C4.9578 14.593 3.33852 15.1687 2.58965 15.4296C2.16731 15.5768 1.82039 15.6967 1.81847 15.6965C1.81655 15.6962 1.79263 15.6805 1.76576 15.6615L1.71694 15.6266L1.7935 15.5162C2.04197 15.1562 2.35416 14.7604 3.03738 13.9383L3.50563 13.3746ZM5.62166 14.887C5.62353 14.8847 5.74192 14.9266 5.88519 14.9802C6.23053 15.1093 6.50157 15.1936 6.8683 15.2854C7.31874 15.3981 7.96969 15.5108 8.35518 15.5433C8.41436 15.5483 8.44457 15.5551 8.43507 15.5611C8.41718 15.5724 8.02686 15.7028 7.7399 15.793C7.28439 15.9362 5.89232 16.3474 4.75727 16.674C4.54671 16.7346 4.36668 16.7858 4.35726 16.7878C4.33183 16.7931 4.24297 16.7697 4.24297 16.7578C4.24297 16.7521 4.30661 16.6716 4.38389 16.5792C4.7654 16.1228 5.14441 15.6131 5.46076 15.1311C5.54729 14.9993 5.61978 14.8893 5.62166 14.887ZM5.15285 14.9003C5.15626 14.9037 4.9682 15.2049 4.63743 15.7259C4.49777 15.9459 4.33941 16.1963 4.28513 16.2823C4.23086 16.3684 4.15133 16.4992 4.1087 16.5736L4.03103 16.709L3.99164 16.6985C3.89659 16.6727 3.22614 16.4359 3.04903 16.3656C2.82952 16.2784 2.60076 16.1732 2.43208 16.0821C2.2213 15.9681 1.95396 15.7991 1.97492 15.7925C1.98096 15.7905 2.34368 15.6913 2.7805 15.5722C3.94255 15.2554 4.58533 15.0735 5.00693 14.9419C5.08571 14.9174 5.15134 14.8988 5.15285 14.9003ZM8.45338 15.6743C8.45588 15.6737 8.45704 15.6737 8.45726 15.6743C8.46826 15.7018 8.03806 16.8933 7.88082 17.271C7.84561 17.3556 7.83257 17.3761 7.81425 17.3753C7.76974 17.3734 7.14596 17.2862 6.76844 17.2288C6.10755 17.1285 5.00055 16.9352 4.72121 16.8715L4.6563 16.8571L5.05243 16.7678C5.9015 16.5765 6.30927 16.4739 6.72294 16.3473C7.24466 16.1875 7.76127 15.9884 8.28306 15.7458C8.36555 15.7075 8.43586 15.6781 8.45338 15.6743Z" fill="white"/>
<path d="M6.48554 0.000102107C6.42687 -0.00674727 5.48538 0.332456 4.88048 0.578209C4.06086 0.911202 3.42447 1.23026 3.03188 1.50584C2.88575 1.60842 2.70199 1.7929 2.67514 1.86369C2.66509 1.89018 2.66037 1.92114 2.66016 1.95301L3.01634 2.28923L3.86131 2.55886L5.87414 2.91838L8.17492 3.31395L8.19822 3.11644C8.19126 3.11534 8.18467 3.11421 8.17769 3.11311L7.87477 3.0654L7.81318 2.95721C7.50048 2.40544 7.15492 1.72265 6.95435 1.26062C6.79901 0.902792 6.64984 0.490587 6.56709 0.192065C6.51795 0.0147686 6.51283 0.00328903 6.48554 0.000102107ZM6.44115 0.136584C6.44349 0.136163 6.44467 0.136147 6.44503 0.136584C6.44689 0.138808 6.45758 0.212813 6.46834 0.300806C6.51362 0.671388 6.59654 1.03079 6.72632 1.41763C6.82411 1.70913 6.82552 1.69201 6.70912 1.65952C6.43858 1.58402 5.22641 1.37594 4.34954 1.25452C4.20825 1.23495 4.09065 1.21755 4.08878 1.21568C4.07765 1.20455 4.72116 0.867389 5.00643 0.734664C5.3723 0.564435 6.36861 0.14963 6.44115 0.136584ZM3.88627 1.32331L3.98891 1.35826C4.55188 1.5499 5.96299 1.81945 6.74296 1.88422C6.83096 1.89153 6.90494 1.89937 6.90719 1.90142C6.90943 1.90347 6.83468 1.94341 6.7413 1.99019C6.36503 2.17867 5.9509 2.40841 5.66442 2.58771C5.58029 2.64037 5.50314 2.68284 5.49299 2.68203C5.48284 2.68122 5.42736 2.67231 5.36927 2.66261L5.2633 2.64541L4.99699 2.38687C4.52949 1.93439 4.16449 1.58434 4.02331 1.45203L3.88627 1.32331ZM3.78197 1.40653L4.1548 1.87201C4.36004 2.12804 4.56573 2.38213 4.6114 2.4368C4.65707 2.49148 4.69241 2.53782 4.69019 2.53944C4.67961 2.54718 4.14983 2.44404 3.86908 2.37966C3.58085 2.31357 3.46164 2.28193 3.2832 2.22487L3.13784 2.17827L3.1384 2.1422C3.14024 1.9634 3.36562 1.69966 3.74813 1.42983L3.78197 1.40653ZM6.95712 2.04067C6.9683 2.04154 6.98011 2.06427 7.01315 2.13666C7.10358 2.33476 7.38506 2.87166 7.45311 2.97552C7.47553 3.00972 7.51105 3.01201 7.13743 2.95166C6.23951 2.80663 5.94903 2.75808 5.94904 2.75249C5.94904 2.74908 5.97597 2.73144 6.00896 2.7131C6.28702 2.55846 6.56758 2.36383 6.81731 2.1533C6.87702 2.10296 6.93439 2.055 6.94491 2.04622C6.94924 2.04261 6.95339 2.04039 6.95712 2.04067Z" fill="white"/>
<path d="M2.69192 1.82788C2.69192 1.82788 2.63366 1.92025 2.68859 2.05757C2.72258 2.14254 2.82465 2.24461 2.93714 2.35273C2.93714 2.35273 4.11544 3.50211 4.2598 3.66872C4.91265 4.4222 5.1962 5.16399 5.22239 6.18809C5.23919 6.84527 5.11244 7.42298 4.80462 8.0944C4.25289 9.29782 3.09036 10.6249 1.29492 12.1006L1.55846 12.0135C1.72785 11.8866 1.95788 11.7511 2.50051 11.4543C3.75018 10.7708 5.15351 10.142 6.87737 9.49417C9.35756 8.56211 13.4373 7.46852 15.7587 7.11295L16.0006 7.07578L15.9634 7.01753C15.7511 6.6876 15.6063 6.48416 15.4319 6.26854C14.9227 5.63889 14.3063 5.12513 13.5511 4.70232C12.5133 4.12131 11.1672 3.66974 9.46553 3.3314C9.14383 3.26744 8.43932 3.14667 7.86603 3.05733C6.65164 2.86808 5.86839 2.74028 5.00324 2.58963C4.69305 2.53581 4.22992 2.45803 3.92248 2.39156C3.76228 2.35693 3.45783 2.28494 3.2212 2.20348C3.02585 2.12657 2.75077 2.05222 2.69192 1.82788ZM3.37489 2.49087C3.37654 2.48938 3.4208 2.50307 3.47475 2.52139C3.57419 2.55514 3.7054 2.59466 3.85812 2.63734C3.9651 2.66724 4.08274 2.69861 4.20765 2.73055C4.36707 2.77131 4.4989 2.80633 4.50058 2.80822C4.51823 2.82807 4.78599 3.68261 4.8773 4.01048C4.91215 4.13563 4.9386 4.23989 4.93611 4.24239C4.93361 4.24489 4.90391 4.19881 4.87064 4.14031C4.56088 3.59556 4.07032 3.04159 3.50305 2.59573C3.43234 2.54016 3.37489 2.49297 3.37489 2.49087ZM4.68034 2.8515C4.69399 2.85055 4.75281 2.8604 4.82293 2.87591C5.27465 2.9758 6.08125 3.13152 6.59997 3.21878C6.68639 3.23331 6.75753 3.24897 6.75753 3.25373C6.75753 3.25849 6.72524 3.27891 6.68596 3.29867C6.59893 3.34245 6.24677 3.55324 6.12894 3.63211C5.83479 3.82898 5.57033 4.0397 5.37773 4.2313C5.30033 4.30829 5.23556 4.37111 5.23348 4.37111C5.2314 4.37111 5.21787 4.32624 5.20352 4.27124C5.10723 3.90215 4.90815 3.35713 4.72972 2.97355C4.70101 2.91183 4.67757 2.85739 4.67757 2.8526C4.67757 2.852 4.67838 2.85162 4.68034 2.8515ZM6.97668 3.28813C6.9918 3.29317 7.02037 3.38233 7.071 3.58273C7.16794 3.96646 7.21308 4.3974 7.19804 4.79609C7.19386 4.90703 7.18685 5.01007 7.18251 5.02522L7.17419 5.05296L7.03715 5.00858C6.75466 4.91828 6.2931 4.78238 5.89758 4.67292C5.67289 4.61074 5.48869 4.55522 5.48869 4.54975C5.48869 4.53333 5.81656 4.20554 5.9575 4.08094C6.22672 3.84294 6.951 3.27957 6.97668 3.28813ZM7.15921 3.3142C7.16738 3.30659 8.25655 3.49519 8.7515 3.58994C9.12042 3.66056 9.65418 3.77235 9.68635 3.78579C9.70187 3.79228 9.64664 3.82238 9.46942 3.9023C8.76842 4.21841 8.24911 4.50055 7.73288 4.84602C7.5969 4.93702 7.4839 5.01135 7.48155 5.01135C7.4792 5.01135 7.47718 4.9354 7.47711 4.84269C7.47676 4.33927 7.37625 3.83115 7.19194 3.40186C7.17211 3.35566 7.15722 3.31605 7.15921 3.3142ZM9.9754 3.87123C9.98383 3.87966 9.94811 4.09444 9.91714 4.22131C9.82077 4.61618 9.5654 5.20225 9.25027 5.75312C9.19474 5.8502 9.14507 5.93113 9.13931 5.93288C9.13354 5.93464 9.06179 5.8969 8.98008 5.84911C8.67193 5.66887 8.32301 5.49836 7.93982 5.34035C7.83297 5.29629 7.74197 5.25706 7.73732 5.25269C7.71984 5.23629 8.57135 4.67253 9.0228 4.40162C9.38388 4.18493 9.96527 3.86109 9.9754 3.87123ZM10.1768 3.90285C10.2013 3.90285 10.6843 4.03454 10.9341 4.10924C11.5562 4.2953 12.2739 4.55747 12.7394 4.7689L12.9331 4.85656L12.7966 4.88818C11.6574 5.14988 10.6811 5.45186 9.74072 5.83357C9.66258 5.86529 9.59458 5.89127 9.58981 5.89127C9.58504 5.89127 9.60998 5.83086 9.64473 5.75701C9.92741 5.15641 10.11 4.52619 10.1574 3.99106C10.1617 3.94235 10.1705 3.90285 10.1768 3.90285ZM5.37551 5.00636C5.38323 4.99874 5.75087 5.08488 5.9514 5.14118C6.2528 5.2258 6.89417 5.44041 6.89457 5.45686C6.89457 5.46006 6.82389 5.52167 6.73756 5.5939C6.39081 5.88399 6.05634 6.18731 5.65569 6.57424C5.53691 6.68894 5.43598 6.78229 5.43099 6.78229C5.426 6.78229 5.42379 6.76554 5.42655 6.74512C5.48689 6.29971 5.47393 5.72779 5.38994 5.14561C5.37929 5.07182 5.37284 5.009 5.37551 5.00636ZM13.1173 5.01357C13.1228 5.01908 12.9467 5.2943 12.8371 5.45131C12.6772 5.6804 12.4453 5.98116 11.9172 6.64525C11.6398 6.99408 11.3269 7.38884 11.2215 7.5224C11.1161 7.65596 11.0276 7.7654 11.0251 7.7654C11.0225 7.7654 10.9886 7.71757 10.9496 7.65943C10.6519 7.21468 10.2986 6.82399 9.8772 6.47326C9.79855 6.40781 9.70982 6.33603 9.68024 6.31403C9.65067 6.29203 9.62655 6.27168 9.62643 6.26854C9.62614 6.26129 10.0762 6.06824 10.4198 5.92844C11.0179 5.68506 11.8353 5.39363 12.4471 5.20609C12.7696 5.10719 13.1124 5.00867 13.1173 5.01357ZM13.3203 5.06683C13.33 5.06486 13.3942 5.09593 13.4712 5.14007C14.1155 5.50912 14.7468 5.98306 15.2433 6.47049C15.3845 6.60914 15.73 6.96851 15.7248 6.97148C15.7235 6.97224 15.6042 6.98169 15.4596 6.99256C14.3432 7.07652 12.9158 7.31402 11.5416 7.64445C11.4483 7.6669 11.3676 7.68551 11.3624 7.68551C11.3572 7.68551 11.4594 7.58297 11.5893 7.45804C12.3964 6.68218 12.7645 6.19229 13.1977 5.31705C13.2622 5.18669 13.3169 5.07424 13.3192 5.06739C13.3193 5.06696 13.3197 5.06696 13.3203 5.06683ZM7.41941 5.67157C7.45628 5.67984 7.80045 5.83999 8.06021 5.97005C8.29776 6.08899 8.65754 6.28055 8.67549 6.29739C8.67774 6.2995 8.551 6.36569 8.39365 6.44441C7.89549 6.69364 7.46879 6.92901 7.02328 7.20117C6.89624 7.27877 6.78976 7.34264 6.78638 7.34264C6.77527 7.34264 6.77965 7.33303 6.85074 7.20283C7.08798 6.76832 7.27936 6.24953 7.38945 5.74258C7.39928 5.69733 7.4111 5.6697 7.41941 5.67157ZM7.07266 5.73371C7.07984 5.74089 6.99053 6.06894 6.93396 6.24413C6.82545 6.58014 6.64198 7.00252 6.4657 7.32045C6.4243 7.39511 6.36078 7.50441 6.32478 7.56345L6.25932 7.67053L6.11063 7.52684C5.93785 7.35934 5.79711 7.25532 5.61741 7.16288C5.54677 7.12655 5.48934 7.09293 5.48925 7.08799C5.48891 7.06613 5.94127 6.65476 6.29038 6.35953C6.54028 6.1482 7.06627 5.72732 7.07266 5.73371ZM9.17981 6.60031L9.30908 6.68409C9.60563 6.87663 9.95677 7.13564 10.2245 7.35873C10.3745 7.48375 10.6661 7.74485 10.726 7.80812L10.7582 7.84197L10.5435 7.90188C9.32915 8.23881 8.39094 8.53876 7.29625 8.94103C7.17476 8.98568 7.06986 9.02259 7.06267 9.02259C7.04757 9.02259 7.03256 9.03647 7.30568 8.78513C8.00587 8.14078 8.6244 7.43083 9.0866 6.74012L9.17981 6.60031ZM8.62611 6.73901C8.63246 6.74536 8.26725 7.25685 8.05023 7.5457C7.79058 7.89127 7.32814 8.46896 7.00997 8.84505C6.87703 9.00218 6.76314 9.13257 6.75698 9.13466C6.75021 9.13696 6.746 9.09847 6.74588 9.03757C6.74526 8.71667 6.66408 8.37371 6.52063 8.0833C6.46004 7.96065 6.44989 7.93096 6.46237 7.91964C6.5123 7.87438 7.28476 7.43393 7.77171 7.17287C8.1062 6.99355 8.61975 6.73265 8.62611 6.73901ZM5.27731 7.55957C5.28395 7.55957 5.34591 7.5907 5.4149 7.62892C5.58396 7.72257 5.73585 7.82562 5.86984 7.93739C5.87501 7.9417 5.80563 7.99838 5.71561 8.06333C5.46434 8.24462 5.08171 8.5334 4.8601 8.70968C4.62629 8.89567 4.61853 8.90137 4.64483 8.86114C4.81993 8.59335 4.90797 8.44173 4.99991 8.24808C5.08164 8.07594 5.16309 7.87159 5.22128 7.69383C5.24545 7.61998 5.27068 7.55957 5.27731 7.55957ZM6.16944 8.25973C6.18151 8.25824 6.19869 8.28072 6.27041 8.38789C6.42157 8.61376 6.53733 8.91498 6.56723 9.16018L6.57333 9.21289L6.21105 9.35325C5.56073 9.60562 4.96211 9.85438 4.55773 10.0395C4.4446 10.0914 4.24486 10.1868 4.11444 10.252C3.98402 10.3173 3.87754 10.3686 3.87754 10.3658C3.87754 10.363 3.95944 10.3014 4.05952 10.2287C4.85315 9.65258 5.53741 9.0218 6.05293 8.39122C6.10806 8.32378 6.15814 8.2653 6.16444 8.2614C6.16611 8.26037 6.16771 8.25995 6.16944 8.25973ZM5.75777 8.36182C5.76827 8.37231 5.46495 8.71534 5.26067 8.92383C4.74938 9.44567 4.2425 9.85479 3.61456 10.2531C3.536 10.303 3.46421 10.3481 3.45478 10.3536C3.43754 10.3636 3.46035 10.3377 3.73606 10.0373C3.90981 9.84803 4.04279 9.69088 4.19378 9.49473C4.29321 9.36555 4.3122 9.34743 4.45786 9.24229C4.85024 8.95908 5.74734 8.35138 5.75777 8.36182Z" fill="white"/>
</svg>
