<svg width="16" height="19" viewBox="0 0 16 19" fill="none" xmlns="http://www.w3.org/2000/svg">
<path d="M8.00314 18.0372C7.7616 18.0372 7.5217 17.9738 7.30994 17.8519L5.10342 16.5455C4.77386 16.3612 4.93467 16.2961 5.04337 16.2585C5.48278 16.1046 5.57196 16.0699 6.04099 15.8035C6.09029 15.7754 6.15481 15.7853 6.20527 15.8151L7.9004 16.821C7.96162 16.8541 8.04848 16.8541 8.10522 16.821L14.7147 13.0059C14.7759 12.9711 14.8156 12.9 14.8156 12.8272V5.20029C14.8156 5.12419 14.7759 5.05635 14.7133 5.0183L8.10655 1.20649C8.04533 1.1701 7.96427 1.1701 7.90305 1.20649L1.29757 5.0183C1.23354 5.0547 1.19285 5.12584 1.19285 5.19863V12.8256C1.19285 12.8984 1.23255 12.9678 1.29542 13.0026L3.10537 14.0482C4.0881 14.5395 4.68866 13.9605 4.68866 13.3781V5.85048C4.68866 5.74294 4.77303 5.66022 4.88057 5.66022H5.71771C5.82194 5.66022 5.90797 5.74294 5.90797 5.85048V13.3814C5.90797 14.6918 5.19326 15.4445 3.95078 15.4445C3.56861 15.4445 3.2675 15.4445 2.42705 15.0309L0.693207 14.0316C0.264709 13.7835 0 13.3202 0 12.8256V5.19863C0 4.7023 0.264709 4.23906 0.693207 3.99421L7.30928 0.177438C7.72785 -0.0591459 8.28373 -0.0591459 8.699 0.177438L15.3068 3.99586C15.7336 4.24237 16 4.70396 16 5.20029V12.8272C16 13.3219 15.7336 13.7835 15.3068 14.0316L8.699 17.8484C8.48723 17.9708 8.24734 18.0337 8.00248 18.0337" fill="white"/>
<path d="M10.0452 12.7816C7.15322 12.7816 6.54688 11.4541 6.54688 10.3407C6.54688 10.2348 6.63224 10.1504 6.73829 10.1504H7.59198C7.68628 10.1504 7.76569 10.2191 7.78058 10.3122C7.90963 11.1821 8.29346 11.6209 10.0422 11.6209C11.4352 11.6209 12.0275 11.3062 12.0275 10.5675C12.0275 10.1423 11.8588 9.8263 9.69476 9.61453C7.88481 9.43585 6.76642 9.03714 6.76642 7.58951C6.76642 6.25604 7.89143 5.46191 9.77583 5.46191C11.8918 5.46191 12.9408 6.19648 13.0731 7.77481C13.0781 7.8294 13.0582 7.88235 13.0218 7.92205C12.9854 7.9601 12.9341 7.98326 12.8812 7.98326H12.0225C11.9332 7.98326 11.8554 7.9204 11.8372 7.83437C11.6304 6.91947 11.1308 6.62663 9.77252 6.62663C8.2521 6.62663 8.07507 7.15605 8.07507 7.55311C8.07507 8.03455 8.28353 8.17518 10.335 8.44651C12.3667 8.71618 13.3312 9.0967 13.3312 10.5245C13.3312 11.9638 12.1301 12.7894 10.0356 12.7894" fill="white"/>
</svg>
