<svg width="16" height="13" viewBox="0 0 16 13" fill="none" xmlns="http://www.w3.org/2000/svg">
<path d="M12.0833 3.9582C11.7917 3.80297 11.4167 3.80297 11.0833 3.9582L8.75 5.23879L7.16667 6.05372L4.875 7.33432C4.58333 7.48954 4.20833 7.48954 3.875 7.33432L2.08333 6.32536C1.79167 6.17014 1.58333 5.85969 1.58333 5.51044V3.57014C1.58333 3.25969 1.75 2.94924 2.08333 2.75521L3.875 1.78506C4.16667 1.62984 4.54167 1.62984 4.875 1.78506L6.66667 2.79402C6.95833 2.94924 7.16667 3.25969 7.16667 3.60894V4.88954L8.75 4.03581V2.71641C8.75 2.40596 8.58333 2.09551 8.25 1.90148L4.91667 0.0775996C4.625 -0.0776243 4.25 -0.0776243 3.91667 0.0775996L0.5 1.94029C0.166667 2.09551 0 2.40596 0 2.71641V6.36417C0 6.67462 0.166667 6.98506 0.5 7.17909L3.875 9.00297C4.16667 9.1582 4.54167 9.1582 4.875 9.00297L7.16667 7.76118L8.75 6.90745L11.0417 5.66566C11.3333 5.51044 11.7083 5.51044 12.0417 5.66566L13.8333 6.63581C14.125 6.79103 14.3333 7.10148 14.3333 7.45073V9.39103C14.3333 9.70148 14.1667 10.0119 13.8333 10.206L12.0833 11.1761C11.7917 11.3313 11.4167 11.3313 11.0833 11.1761L9.29167 10.206C9 10.0507 8.79167 9.74029 8.79167 9.39103V8.14924L7.20833 9.00297V10.2836C7.20833 10.594 7.375 10.9045 7.70833 11.0985L11.0833 12.9224C11.375 13.0776 11.75 13.0776 12.0833 12.9224L15.4583 11.0985C15.75 10.9433 15.9583 10.6328 15.9583 10.2836V6.597C15.9583 6.28656 15.7917 5.97611 15.4583 5.78208L12.0833 3.9582Z" fill="white"/>
</svg>
