<svg width="16" height="16" viewBox="0 0 16 16" fill="none" xmlns="http://www.w3.org/2000/svg">
<path d="M11.8643 11.6474C11.9661 10.7993 11.9355 10.6755 12.5668 10.8124L12.7274 10.8268C13.213 10.8487 13.848 10.7487 14.2274 10.5755C15.0305 10.203 15.5068 9.58053 14.7149 9.74428C12.9086 10.1168 12.7774 9.5049 12.7774 9.5049C14.6855 6.67365 15.4836 3.0799 14.7943 2.20053C12.9168 -0.199472 9.66613 0.935528 9.61176 0.965528L9.59426 0.968653C9.23801 0.893653 8.84426 0.849903 8.38801 0.843653C7.57051 0.831153 6.95051 1.05803 6.47926 1.4149C6.47926 1.4149 0.681135 -0.973847 0.95051 4.41928C1.00801 5.56678 2.59426 13.1068 4.48801 10.8255C5.18114 9.99178 5.84988 9.2874 5.84988 9.2874C6.18113 9.50803 6.57926 9.62053 6.99613 9.5799L7.02863 9.5524C7.01902 9.66043 7.02343 9.76926 7.04176 9.87615C6.55426 10.4212 6.69801 10.5168 5.72301 10.7174C4.73676 10.9205 5.31676 11.2824 5.69426 11.3774C6.15301 11.4924 7.21426 11.6549 7.93176 10.6512L7.90301 10.7655C8.09426 10.9187 8.08113 11.8655 8.10926 12.5418C8.13738 13.218 8.18176 13.8499 8.31988 14.2218C8.45801 14.5937 8.61988 15.553 9.90113 15.2843C10.9718 15.0549 11.7905 14.7243 11.8655 11.653" fill="white"/>
<path d="M11.8643 11.6474C11.9661 10.7993 11.9355 10.6755 12.5668 10.8124L12.7274 10.8268C13.213 10.8487 13.848 10.7487 14.2274 10.5755C15.0305 10.203 15.5068 9.58053 14.7149 9.74428C12.9086 10.1168 12.7774 9.5049 12.7774 9.5049C14.6855 6.67365 15.4836 3.0799 14.7943 2.20053C12.9168 -0.199472 9.66613 0.935528 9.61176 0.965528L9.59426 0.968653C9.23801 0.893653 8.84426 0.849903 8.38801 0.843653C7.57051 0.831153 6.95051 1.05803 6.47926 1.4149C6.47926 1.4149 0.681135 -0.973847 0.95051 4.41928C1.00801 5.56678 2.59426 13.1068 4.48801 10.8255C5.18114 9.99178 5.84988 9.2874 5.84988 9.2874C6.18113 9.50803 6.57926 9.62053 6.99613 9.5799L7.02863 9.5524C7.01902 9.66043 7.02343 9.76926 7.04176 9.87615C6.55426 10.4212 6.69801 10.5168 5.72301 10.7174C4.73676 10.9205 5.31676 11.2824 5.69426 11.3774C6.15301 11.4924 7.21426 11.6549 7.93176 10.6512L7.90301 10.7655C8.09426 10.9187 8.08113 11.8655 8.10926 12.5418C8.13738 13.218 8.18176 13.8499 8.31988 14.2218C8.45801 14.5937 8.61988 15.553 9.90113 15.2843C10.9718 15.0549 11.7905 14.7243 11.8655 11.653" stroke="white" stroke-width="1.34312"/>
<path d="M14.7098 9.7499C12.9035 10.1224 12.7723 9.51052 12.7723 9.51052C14.6804 6.67927 15.4785 3.08552 14.7898 2.20615C12.9123 -0.193852 9.66164 0.941773 9.60727 0.971148L9.58977 0.974273C9.19273 0.894608 8.78907 0.852547 8.38414 0.848648C7.56664 0.836148 6.94664 1.06302 6.47539 1.4199C6.47539 1.4199 0.676644 -0.968852 0.946644 4.42427C1.00414 5.57177 2.59039 13.1118 4.48414 10.8305C5.18164 9.99177 5.85039 9.2874 5.85039 9.2874C6.18164 9.50802 6.57977 9.62052 6.99664 9.5799L7.02914 9.5524C7.0196 9.66043 7.02401 9.76924 7.04227 9.87615C6.55477 10.4211 6.69852 10.5168 5.72352 10.7174C4.73727 10.9205 5.31727 11.2824 5.69477 11.3774C6.15352 11.4924 7.21477 11.6549 7.93227 10.6511L7.90352 10.7655C8.09477 10.9186 8.22852 11.7611 8.20602 12.5249C8.18352 13.2886 8.16852 13.8124 8.31852 14.2224C8.46852 14.6324 8.61852 15.5536 9.89977 15.2849C10.9704 15.0555 11.5248 14.4599 11.6029 13.4686C11.6579 12.7636 11.7816 12.8674 11.7904 12.2374L11.8904 11.9386C12.0048 10.9824 11.9091 10.6743 12.5685 10.818L12.7291 10.8324C13.2148 10.8543 13.8504 10.7543 14.2229 10.5811C15.026 10.2086 15.5016 9.58615 14.7098 9.7499Z" fill="white"/>
<path d="M8.00953 10.2919C7.95953 12.0706 8.02203 13.8619 8.19578 14.2919C8.36953 14.7219 8.74265 15.5731 10.0245 15.2994C11.0952 15.07 11.4852 14.6256 11.6539 13.645L12.0495 10.5094M6.47328 1.37498C6.47328 1.37498 0.670779 -0.997523 0.940779 4.3956C0.998279 5.5431 2.58453 13.0831 4.47828 10.8019C5.16953 9.96873 5.79453 9.31685 5.79453 9.31685M9.60703 0.941852C9.40703 1.00435 12.8345 -0.311273 14.7833 2.1781C15.4708 3.05748 14.6739 6.65123 12.7658 9.48248" stroke="black" stroke-width="0.4475" stroke-linecap="round" stroke-linejoin="round"/>
<path d="M12.7664 9.48117C12.7664 9.48117 12.8914 10.0937 14.7039 9.71992C15.4958 9.55617 15.0189 10.1787 14.2164 10.5512C13.5577 10.8574 12.0802 10.9355 12.0558 10.5137C11.9933 9.42305 12.8333 9.7543 12.7727 9.48117C12.7177 9.23492 12.3414 8.99367 12.0939 8.39117C11.877 7.86617 9.11891 3.83492 12.8589 4.43305C12.9964 4.40492 11.8839 0.870547 8.38391 0.819297C4.88391 0.768047 4.99453 5.12242 4.99453 5.12242" stroke="black" stroke-width="0.4475" stroke-linecap="round" stroke-linejoin="bevel"/>
<path d="M7.0299 9.85492C6.5424 10.3999 6.68615 10.4955 5.71115 10.6962C4.7249 10.8993 5.3049 11.2612 5.6824 11.3562C6.14115 11.4712 7.2024 11.6337 7.9199 10.6293C8.13865 10.323 7.91865 9.83554 7.61865 9.71179C7.47365 9.65179 7.2799 9.57679 7.03115 9.85554L7.0299 9.85492Z" stroke="black" stroke-width="0.4475" stroke-linejoin="round"/>
<path d="M6.99794 9.84563C6.94794 9.525 7.10294 9.14438 7.26856 8.69813C7.51731 8.02938 8.09106 7.36063 7.63231 5.2375C7.29044 3.65625 4.99481 4.90813 4.99481 5.1225C4.99481 5.33688 5.09856 6.21 4.95731 7.22563C4.77169 8.55188 5.80106 9.67313 6.98606 9.55875" stroke="black" stroke-width="0.4475" stroke-linecap="round" stroke-linejoin="round"/>
<path d="M6.45172 5.09079C6.4411 5.16391 6.5861 5.35954 6.77422 5.38579C6.96235 5.41204 7.12297 5.25954 7.1336 5.18579C7.14422 5.11204 6.99922 5.03204 6.8111 5.00579C6.62297 4.97954 6.4611 5.01829 6.45172 5.09079Z" fill="black" stroke="black" stroke-width="0.149375"/>
<path d="M12.1784 4.94137C12.1884 5.0145 12.044 5.21012 11.8559 5.23637C11.6678 5.26262 11.5059 5.11012 11.4965 5.03637C11.4872 4.96262 11.6309 4.88262 11.819 4.85637C12.0072 4.83012 12.169 4.86887 12.1784 4.94137Z" fill="black" stroke="black" stroke-width="0.074375"/>
<path d="M12.8511 4.43433C12.8823 5.00933 12.7273 5.39995 12.7073 6.01183C12.6786 6.90058 13.1311 7.91808 12.4492 8.93683" stroke="black" stroke-width="0.4475" stroke-linecap="round" stroke-linejoin="round"/>
</svg>
