<svg width="16" height="15" viewBox="0 0 16 15" fill="none" xmlns="http://www.w3.org/2000/svg">
<path d="M7.99983 10.0393C12.226 10.0393 15.652 8.73117 15.652 7.11754C15.652 5.50391 12.226 4.1958 7.99983 4.1958C3.77365 4.1958 0.347656 5.50391 0.347656 7.11754C0.347656 8.73117 3.77365 10.0393 7.99983 10.0393Z" stroke="white" stroke-width="0.5"/>
<path d="M5.46861 8.5785C7.5817 12.2385 10.4276 14.5514 11.825 13.7446C13.2224 12.9378 12.6423 9.31674 10.5292 5.65676C8.41612 1.99678 5.57027 -0.316161 4.17282 0.490655C2.77538 1.29747 3.35552 4.91852 5.46861 8.5785Z" stroke="white" stroke-width="0.5"/>
<path d="M5.46878 5.65665C3.35569 9.31663 2.77555 12.9377 4.17299 13.7445C5.57044 14.5513 8.41629 12.2384 10.5294 8.57839C12.6425 4.91841 13.2226 1.29736 11.8252 0.490546C10.4277 -0.31627 7.58187 1.99668 5.46878 5.65665Z" stroke="white" stroke-width="0.5"/>
</svg>
