<svg width="14" height="13" viewBox="0 0 14 13" fill="none" xmlns="http://www.w3.org/2000/svg">
<path d="M6.07157 1.32016C6.4069 0.482177 7.5931 0.482177 7.92843 1.32016L8.83043 3.57428C8.97336 3.93147 9.30854 4.17499 9.69242 4.20055L12.115 4.36185C13.0155 4.42181 13.3821 5.54996 12.6888 6.12782L10.8237 7.68224C10.5281 7.92855 10.4001 8.32258 10.4944 8.69557L11.0896 11.0494C11.3109 11.9244 10.3512 12.6216 9.58742 12.1408L7.53274 10.8474C7.20715 10.6424 6.79285 10.6424 6.46726 10.8474L4.41258 12.1408C3.64875 12.6216 2.68909 11.9244 2.91036 11.0494L3.50556 8.69557C3.59988 8.32258 3.47185 7.92855 3.17631 7.68223L1.31125 6.12782C0.617903 5.54996 0.984462 4.42181 1.88505 4.36185L4.30758 4.20055C4.69146 4.17499 5.02664 3.93147 5.16957 3.57428L6.07157 1.32016Z" fill="white"/>
</svg>
