<svg width="30" height="30" viewBox="0 0 30 30" fill="none" xmlns="http://www.w3.org/2000/svg">
<path d="M12.5 1.44338C14.047 0.550212 15.953 0.550212 17.5 1.44338L25.4904 6.05662C27.0374 6.94979 27.9904 8.60042 27.9904 10.3868V19.6132C27.9904 21.3996 27.0374 23.0502 25.4904 23.9434L17.5 28.5566C15.953 29.4498 14.047 29.4498 12.5 28.5566L4.50962 23.9434C2.96261 23.0502 2.00962 21.3996 2.00962 19.6132V10.3868C2.00962 8.60042 2.96261 6.94979 4.50962 6.05662L12.5 1.44338Z" fill="#1F57C3"/>
<path d="M17.7281 18.1721L18.0116 19.7082L15.6804 18.3852C15.302 18.1704 14.8429 18.1704 14.4644 18.3852L12.1333 19.7082L12.6327 17.0022C12.7127 16.5689 12.5729 16.1223 12.2596 15.8184L10.3109 13.9279L12.9589 13.582C13.3883 13.5259 13.7575 13.2473 13.9399 12.8472L15.0724 10.3627L16.0884 12.5915C16.1503 12.7273 16.2858 12.8145 16.435 12.8145H16.7738C16.8694 12.8145 16.938 12.7559 16.9714 12.6938C17.0042 12.633 17.0131 12.5528 16.9795 12.4789L16.843 12.5412L16.9795 12.4789L15.7105 9.69504C15.4574 9.13977 14.6875 9.13977 14.4344 9.69503L13.1654 12.4789C13.1054 12.6106 12.9857 12.6989 12.8505 12.7166L9.8946 13.1027C9.29791 13.1806 9.07279 13.9303 9.49961 14.3443L11.6712 16.451C11.7728 16.5496 11.8197 16.6965 11.7931 16.8406L11.2353 19.8631C11.1265 20.4525 11.7362 20.9318 12.2684 20.6297L14.8795 19.1478C14.9998 19.0795 15.145 19.0795 15.2654 19.1478L17.8765 20.6297C18.4086 20.9318 19.0183 20.4525 18.9096 19.8631L18.5688 18.0169C18.5314 17.8142 18.3546 17.667 18.1485 17.667C17.8813 17.667 17.6796 17.9093 17.7281 18.1721ZM18.8034 12.9507C18.8034 12.7143 18.6167 12.5144 18.3763 12.5144C18.1358 12.5144 17.9491 12.7143 17.9491 12.9507V14.4952H16.4583C16.2179 14.4952 16.0311 14.6951 16.0311 14.9314C16.0311 15.1678 16.2179 15.3677 16.4583 15.3677H17.9491V16.9122C17.9491 17.1486 18.1358 17.3485 18.3763 17.3485C18.6167 17.3485 18.8034 17.1486 18.8034 16.9122V15.3677H20.2943C20.5347 15.3677 20.7214 15.1678 20.7214 14.9314C20.7214 14.6951 20.5347 14.4952 20.2943 14.4952H18.8034V12.9507Z" fill="white" stroke="white" stroke-width="0.3" stroke-linecap="round" stroke-linejoin="round"/>
</svg>
