<svg width="32" height="32" viewBox="0 0 32 32" fill="none" xmlns="http://www.w3.org/2000/svg">
<g clip-path="url(#clip0_1084_2326)">
<path fill-rule="evenodd" clip-rule="evenodd" d="M27.8121 16.3304C27.578 16.3304 27.3503 16.2852 27.1871 16.2093L24.1568 14.7626C23.8668 14.6251 23.622 14.2454 23.622 13.9376V12.573C23.622 12.2631 23.8668 11.8855 24.1568 11.748L27.1871 10.3013C27.3482 10.2233 27.5758 10.1802 27.8121 10.1802C28.0483 10.1802 28.2738 10.2253 28.437 10.3013L31.4674 11.748C31.7573 11.8855 32.0021 12.2651 32.0021 12.573V13.9376C32.0021 14.2475 31.7573 14.6251 31.4674 14.7626L28.437 16.2093C28.276 16.2873 28.0483 16.3304 27.8121 16.3304ZM27.8121 11.4422C27.7219 11.4422 27.6381 11.4586 27.5715 11.4915L24.4596 12.9793C24.2706 13.0696 24.2427 13.1906 24.2427 13.2543C24.2427 13.3179 24.2706 13.4389 24.4596 13.5292L27.5715 15.017C27.6381 15.0478 27.7219 15.0663 27.8121 15.0663C27.9023 15.0663 27.986 15.0499 28.0526 15.017L31.1646 13.5292C31.3536 13.4389 31.3815 13.3179 31.3815 13.2543C31.3815 13.1906 31.3536 13.0696 31.1646 12.9793L28.0526 11.4915C27.986 11.4607 27.9023 11.4422 27.8121 11.4422Z" fill="url(#paint0_linear_1084_2326)"/>
<path fill-rule="evenodd" clip-rule="evenodd" d="M4.18752 16.3304C3.95342 16.3304 3.72577 16.2853 3.56255 16.2093L0.532213 14.7626C0.24228 14.6251 -0.00255179 14.2454 -0.00255179 13.9376V12.573C-0.00255179 12.2631 0.24228 11.8855 0.532213 11.748L3.56255 10.3013C3.72362 10.2233 3.95127 10.1802 4.18752 10.1802C4.42376 10.1802 4.64926 10.2253 4.81248 10.3013L7.84282 11.748C8.13275 11.8855 8.37758 12.2651 8.37758 12.573V13.9376C8.37758 14.2475 8.13275 14.6251 7.84282 14.7626L4.81248 16.2093C4.65141 16.2873 4.42376 16.3304 4.18752 16.3304ZM4.18752 11.4422C4.09731 11.4422 4.01356 11.4587 3.94698 11.4915L0.835032 12.9793C0.646039 13.0696 0.618119 13.1907 0.618119 13.2543C0.618119 13.3179 0.646039 13.439 0.835032 13.5293L3.94698 15.017C4.01356 15.0478 4.09731 15.0663 4.18752 15.0663C4.27772 15.0663 4.36148 15.0499 4.42805 15.017L7.54 13.5293C7.72899 13.439 7.75691 13.3179 7.75691 13.2543C7.75691 13.1907 7.72899 13.0696 7.54 12.9793L4.42805 11.4915C4.36148 11.4607 4.27772 11.4422 4.18752 11.4422Z" fill="url(#paint1_linear_1084_2326)"/>
<path fill-rule="evenodd" clip-rule="evenodd" d="M16 26C15.695 26 15.4115 25.922 15.1989 25.7804L6.63839 20.055C6.41503 19.9052 6.22604 19.5584 6.22604 19.2978V17.8038C6.22604 17.4939 6.47087 17.1164 6.7608 16.9789L13.9834 13.5292C14.1723 13.4389 14.2003 13.3179 14.2003 13.2543C14.2003 13.1906 14.1723 13.0696 13.9834 12.9793L9.12537 10.6583C8.83544 10.5208 8.5906 10.1412 8.5906 9.83337V8.46871C8.5906 8.15883 8.83544 7.78124 9.12537 7.64375L12.5165 6.02052C12.5444 6.00616 12.5723 6 12.5938 6C12.6604 6 12.6711 6.06977 12.6711 6.11287V6.75313C12.6711 7.063 12.4263 7.44059 12.1364 7.57808L9.31007 8.92838C9.20268 8.97968 9.1404 9.05972 9.1404 9.14796C9.1404 9.2362 9.20268 9.31623 9.31007 9.36754L15.7595 12.4478C15.826 12.4786 15.9098 12.497 16 12.497C16.0902 12.497 16.174 12.4806 16.2405 12.4478L22.6899 9.36754C22.7973 9.31623 22.8596 9.2362 22.8596 9.14796C22.8596 9.05972 22.7973 8.97968 22.6899 8.92838L19.8636 7.57808C19.5737 7.44059 19.3289 7.06095 19.3289 6.75313V6.11287C19.3289 6.07182 19.3396 6 19.4062 6C19.4298 6 19.4556 6.00821 19.4835 6.02052L22.8746 7.63965C23.1646 7.77714 23.4094 8.15678 23.4094 8.4646V9.82926C23.4094 10.1391 23.1646 10.5167 22.8746 10.6542L18.0166 12.9752C17.8277 13.0655 17.7997 13.1865 17.7997 13.2502C17.7997 13.3138 17.8277 13.4348 18.0166 13.5251L25.2392 16.9748C25.5291 17.1123 25.774 17.4919 25.774 17.7997V19.2937C25.774 19.5543 25.585 19.9011 25.3616 20.0509L16.8011 25.7763C16.5906 25.9179 16.305 25.9959 16 25.9959V26ZM16 14.0074C15.9098 14.0074 15.826 14.0238 15.7595 14.0566L7.00134 18.2409C6.88107 18.2984 6.8102 18.3887 6.80161 18.4913C6.79302 18.5939 6.85101 18.6944 6.96054 18.7683L15.6929 24.6087C15.7766 24.6641 15.8862 24.6948 16 24.6948C16.1138 24.6948 16.2234 24.6641 16.3071 24.6087L25.0395 18.7683C25.149 18.6944 25.207 18.5939 25.1984 18.4913C25.1898 18.3887 25.1168 18.2963 24.9987 18.2409L16.2405 14.0566C16.174 14.0259 16.0902 14.0074 16 14.0074Z" fill="url(#paint2_linear_1084_2326)"/>
</g>
<defs>
<linearGradient id="paint0_linear_1084_2326" x1="27.8121" y1="10.1802" x2="27.8121" y2="16.3304" gradientUnits="userSpaceOnUse">
<stop stop-color="#A651FB"/>
<stop offset="1" stop-color="#170628"/>
</linearGradient>
<linearGradient id="paint1_linear_1084_2326" x1="4.18752" y1="10.1802" x2="4.18752" y2="16.3304" gradientUnits="userSpaceOnUse">
<stop stop-color="#A651FB"/>
<stop offset="1" stop-color="#170628"/>
</linearGradient>
<linearGradient id="paint2_linear_1084_2326" x1="16" y1="6" x2="16" y2="26" gradientUnits="userSpaceOnUse">
<stop stop-color="#A651FB"/>
<stop offset="1" stop-color="#170628"/>
</linearGradient>
<clipPath id="clip0_1084_2326">
<rect width="32" height="20" fill="white" transform="translate(0 6)"/>
</clipPath>
</defs>
</svg>
