<?xml version="1.0" standalone="no"?>
<!DOCTYPE svg PUBLIC "-//W3C//DTD SVG 20010904//EN"
 "http://www.w3.org/TR/2001/REC-SVG-20010904/DTD/svg10.dtd">
<svg version="1.0" xmlns="http://www.w3.org/2000/svg"
 width="700.000000pt" height="700.000000pt" viewBox="0 0 700.000000 700.000000"
 preserveAspectRatio="xMidYMid meet">
<metadata>
Created by potrace 1.14, written by Peter Selinger 2001-2017
</metadata>
<g transform="translate(0.000000,700.000000) scale(0.100000,-0.100000)"
fill="#000000" stroke="none">
<path d="M2740 5682 c-8 -3 -76 -34 -150 -70 -74 -35 -184 -88 -245 -117 -490
-233 -465 -206 -465 -495 0 -286 -10 -274 375 -455 50 -24 153 -73 230 -110
77 -37 181 -87 230 -110 334 -159 364 -174 380 -199 16 -24 16 -28 1 -51 -16
-24 -67 -51 -321 -170 -38 -18 -159 -76 -269 -129 -109 -53 -200 -96 -201 -96
-2 0 -101 -47 -220 -105 -120 -58 -219 -105 -220 -105 -1 0 -95 -44 -207 -99
-297 -143 -292 -136 -295 -411 -1 -121 2 -208 9 -230 23 -73 56 -102 332 -285
149 -99 273 -182 276 -185 3 -3 313 -211 691 -463 512 -342 698 -461 735 -471
60 -16 154 -12 211 8 35 12 150 85 288 181 21 14 142 95 1070 716 319 213 590
398 602 411 12 13 31 44 42 68 18 41 20 65 18 245 -2 197 -2 201 -29 246 -22
38 -90 99 -110 99 -3 0 -84 38 -179 84 -96 46 -219 105 -274 131 -55 26 -152
72 -215 102 -107 52 -165 79 -410 196 -52 25 -175 84 -273 131 -99 47 -183 86
-187 86 -19 0 -68 58 -65 76 2 10 4 22 4 26 1 4 65 39 144 77 215 104 412 199
507 243 47 22 146 70 220 105 74 36 162 78 195 93 33 15 74 43 92 62 57 59 64
89 64 288 -1 196 -7 229 -59 284 -24 25 -189 111 -447 231 -38 18 -137 65
-218 104 -82 39 -152 69 -158 66 -14 -9 -11 -191 4 -228 36 -84 50 -93 472
-292 239 -112 267 -127 277 -151 16 -36 -1 -50 -152 -122 -74 -35 -187 -89
-250 -119 -63 -31 -155 -75 -205 -98 -49 -23 -157 -75 -240 -115 -82 -40 -193
-92 -245 -117 -52 -25 -155 -74 -229 -110 -86 -41 -147 -64 -170 -65 -25 0
-82 22 -181 70 -155 75 -324 156 -485 232 -55 26 -165 79 -245 117 -80 38
-197 94 -260 124 -220 104 -314 154 -325 172 -21 36 -4 48 230 159 66 31 181
86 256 122 75 36 141 66 146 66 21 0 92 73 112 113 17 35 21 62 21 140 0 97
-3 108 -30 99z m880 -1790 c84 -39 228 -108 435 -207 77 -37 181 -86 230 -110
50 -23 146 -70 215 -103 69 -33 170 -81 225 -107 55 -26 154 -74 220 -105 289
-139 385 -184 455 -217 92 -43 110 -58 110 -93 0 -28 -28 -58 -89 -93 -20 -12
-38 -24 -41 -27 -11 -12 -162 -110 -170 -110 -5 0 -10 -3 -12 -7 -4 -11 -216
-153 -227 -153 -5 0 -11 -3 -13 -8 -3 -8 -74 -55 -873 -589 -280 -187 -520
-345 -532 -352 -55 -29 -83 -17 -290 120 -109 73 -229 152 -268 178 -38 25
-72 48 -75 51 -3 3 -318 214 -700 469 -382 255 -703 471 -712 479 -23 19 -23
65 0 84 9 8 37 24 62 35 25 12 122 58 215 103 160 77 264 127 465 222 47 23
168 81 269 129 101 49 185 89 186 89 1 0 105 50 230 110 124 61 228 110 230
110 2 0 68 31 147 69 79 38 152 71 163 74 30 6 63 -3 145 -41z"/>
<path d="M838 4764 c-29 -7 -103 -37 -163 -67 -61 -30 -133 -65 -160 -77 -253
-115 -433 -210 -462 -243 -49 -56 -55 -90 -51 -297 4 -200 8 -218 65 -272 25
-24 88 -56 423 -216 52 -24 147 -69 210 -100 109 -52 120 -55 203 -58 102 -4
104 -3 342 111 88 43 207 100 265 127 252 119 268 130 302 205 16 37 19 69 20
226 0 170 -1 186 -22 226 -29 58 -61 85 -145 125 -38 19 -133 64 -210 101
-159 77 -329 157 -395 187 -60 28 -155 37 -222 22z m207 -314 c44 -21 143 -68
220 -105 77 -37 196 -94 265 -127 137 -65 171 -89 165 -120 -7 -35 -27 -50
-140 -103 -199 -95 -304 -145 -453 -216 -157 -76 -195 -84 -254 -56 -356 169
-658 315 -682 330 -58 38 -34 84 68 132 39 18 143 68 231 110 386 187 427 205
464 199 20 -3 72 -23 116 -44z"/>
<path d="M5950 4747 c-63 -29 -291 -138 -440 -209 -69 -33 -152 -73 -185 -88
-68 -31 -108 -67 -137 -124 -17 -34 -20 -60 -21 -205 0 -91 3 -184 7 -206 13
-67 60 -118 156 -166 47 -23 87 -43 90 -44 8 -2 284 -133 485 -231 77 -37 84
-39 180 -39 98 0 102 1 195 46 52 26 138 67 190 92 564 267 530 234 530 531
-1 267 -3 271 -270 399 -442 214 -497 240 -531 252 -59 21 -196 17 -249 -8z
m355 -342 c99 -47 220 -105 269 -128 276 -129 306 -150 283 -196 -14 -27 -37
-40 -262 -147 -88 -42 -230 -110 -315 -151 -111 -54 -166 -75 -195 -75 -30 0
-81 19 -200 77 -160 77 -245 118 -447 213 -176 83 -179 119 -15 197 56 27 180
86 275 132 96 46 193 92 215 102 23 11 66 30 94 44 30 14 67 23 85 22 18 -2
114 -42 213 -90z"/>
</g>
</svg>
