<svg width="130" height="13" viewBox="0 0 130 13" fill="none" xmlns="http://www.w3.org/2000/svg">
<g clip-path="url(#clip0_903_843)">
<path fill-rule="evenodd" clip-rule="evenodd" d="M16.6511 6.50275C16.511 6.50275 16.3747 6.47433 16.2769 6.42653L14.4627 5.51584C14.2892 5.4293 14.1426 5.19032 14.1426 4.99656V4.13754C14.1426 3.94248 14.2892 3.7048 14.4627 3.61825L16.2769 2.70756C16.3734 2.65847 16.5097 2.63135 16.6511 2.63135C16.7925 2.63135 16.9275 2.65977 17.0253 2.70756L18.8395 3.61825C19.0131 3.7048 19.1596 3.94377 19.1596 4.13754V4.99656C19.1596 5.19161 19.0131 5.4293 18.8395 5.51584L17.0253 6.42653C16.9288 6.47562 16.7925 6.50275 16.6511 6.50275ZM16.6511 3.42578C16.5971 3.42578 16.547 3.43611 16.5071 3.45678L14.644 4.39331C14.5309 4.45014 14.5142 4.52636 14.5142 4.5664C14.5142 4.60645 14.5309 4.68266 14.644 4.7395L16.5071 5.67602C16.547 5.6954 16.5971 5.70702 16.6511 5.70702C16.7051 5.70702 16.7553 5.69669 16.7951 5.67602L18.6582 4.7395C18.7713 4.68266 18.788 4.60645 18.788 4.5664C18.788 4.52636 18.7713 4.45014 18.6582 4.39331L16.7951 3.45678C16.7553 3.4374 16.7051 3.42578 16.6511 3.42578Z" fill="white"/>
<path fill-rule="evenodd" clip-rule="evenodd" d="M2.50657 6.50275C2.36643 6.50275 2.23013 6.47433 2.13242 6.42653L0.318202 5.51584C0.144624 5.4293 -0.00195312 5.19032 -0.00195312 4.99656V4.13754C-0.00195312 3.94248 0.144624 3.7048 0.318202 3.61825L2.13242 2.70756C2.22885 2.65847 2.36514 2.63135 2.50657 2.63135C2.64801 2.63135 2.78301 2.65977 2.88073 2.70756L4.69495 3.61825C4.86852 3.7048 5.0151 3.94377 5.0151 4.13754V4.99656C5.0151 5.19161 4.86852 5.4293 4.69495 5.51584L2.88073 6.42653C2.7843 6.47562 2.64801 6.50275 2.50657 6.50275ZM2.50657 3.42578C2.45257 3.42578 2.40243 3.43611 2.36257 3.45678L0.499495 4.39331C0.386348 4.45014 0.369633 4.52636 0.369633 4.5664C0.369633 4.60645 0.386348 4.68266 0.499495 4.7395L2.36257 5.67602C2.40243 5.6954 2.45257 5.70702 2.50657 5.70702C2.56058 5.70702 2.61072 5.69669 2.65058 5.67602L4.51365 4.7395C4.6268 4.68266 4.64352 4.60645 4.64352 4.5664C4.64352 4.52636 4.6268 4.45014 4.51365 4.39331L2.65058 3.45678C2.61072 3.4374 2.56058 3.42578 2.50657 3.42578Z" fill="white"/>
<path fill-rule="evenodd" clip-rule="evenodd" d="M9.57808 12.5895C9.3955 12.5895 9.22578 12.5404 9.09849 12.4513L3.97343 8.84725C3.83971 8.75295 3.72656 8.53465 3.72656 8.37059V7.43019C3.72656 7.23514 3.87314 6.99745 4.04672 6.91091L8.37075 4.73946C8.48389 4.68262 8.50061 4.60641 8.50061 4.56636C8.50061 4.52632 8.48389 4.45011 8.37075 4.39327L5.46235 2.93229C5.28877 2.84574 5.14219 2.60677 5.14219 2.413V1.55398C5.14219 1.35893 5.28877 1.12125 5.46235 1.0347L7.49257 0.0129176C7.50928 0.00387527 7.526 0 7.53885 0C7.57871 0 7.58514 0.0439198 7.58514 0.0710467V0.474075C7.58514 0.669131 7.43857 0.906814 7.26499 0.993362L5.57292 1.84334C5.50863 1.87563 5.47135 1.92601 5.47135 1.98156C5.47135 2.0371 5.50863 2.08748 5.57292 2.11977L9.43407 4.0587C9.47393 4.07808 9.52408 4.08971 9.57808 4.08971C9.63208 4.08971 9.68223 4.07937 9.72208 4.0587L13.5832 2.11977C13.6475 2.08748 13.6848 2.0371 13.6848 1.98156C13.6848 1.92601 13.6475 1.87563 13.5832 1.84334L11.8912 0.993362C11.7176 0.906814 11.571 0.667839 11.571 0.474075V0.0710467C11.571 0.0452115 11.5774 0 11.6173 0C11.6314 0 11.6469 0.00516703 11.6636 0.0129176L13.6938 1.03211C13.8674 1.11866 14.014 1.35764 14.014 1.5514V2.41042C14.014 2.60548 13.8674 2.84316 13.6938 2.92971L10.7854 4.39069C10.6723 4.44752 10.6555 4.52374 10.6555 4.56378C10.6555 4.60383 10.6723 4.68004 10.7854 4.73688L15.1094 6.90832C15.283 6.99487 15.4296 7.23384 15.4296 7.42761V8.36801C15.4296 8.53206 15.3164 8.75037 15.1827 8.84467L10.0577 12.4487C9.93166 12.5378 9.76066 12.5869 9.57808 12.5869V12.5895ZM9.57808 5.04044C9.52408 5.04044 9.47393 5.05077 9.43407 5.07144L4.19072 7.70534C4.11872 7.74151 4.07629 7.79834 4.07115 7.86293C4.066 7.92752 4.10072 7.99081 4.16629 8.03732L9.39421 11.7137C9.44436 11.7485 9.50993 11.7679 9.57808 11.7679C9.64622 11.7679 9.7118 11.7485 9.76194 11.7137L14.9899 8.03732C15.0554 7.99081 15.0902 7.92752 15.085 7.86293C15.0799 7.79834 15.0361 7.74021 14.9654 7.70534L9.72208 5.07144C9.68223 5.05207 9.63208 5.04044 9.57808 5.04044Z" fill="white"/>
</g>
<g clip-path="url(#clip1_903_843)">
<path fill-rule="evenodd" clip-rule="evenodd" d="M29.6671 11.7683C29.2675 11.7683 28.6928 11.5302 28.4082 11.2483L26.7934 9.63361C26.5115 9.35172 26.2734 8.77424 26.2734 8.37467V4.48835C26.2734 4.08877 26.5115 3.51403 26.7934 3.2294L28.4082 1.61467C28.6901 1.33277 29.2675 1.09467 29.6671 1.09467H36.5366C36.7638 1.09467 36.9471 1.27803 36.9471 1.50519V2.32624C36.9471 2.5534 36.7638 2.73677 36.5366 2.73677H28.5998C28.2221 2.73677 27.9155 3.0433 27.9155 3.42098V9.44203C27.9155 9.81972 28.2221 10.1262 28.5998 10.1262H36.5366C36.7638 10.1262 36.9471 10.3096 36.9471 10.5368V11.3578C36.9471 11.585 36.7638 11.7683 36.5366 11.7683H29.6671Z" fill="white"/>
<path fill-rule="evenodd" clip-rule="evenodd" d="M76.4679 11.7683C76.0683 11.7683 75.4936 11.5302 75.209 11.2483L73.5942 9.63361C73.3123 9.35172 73.0742 8.77424 73.0742 8.37467V4.48835C73.0742 4.08877 73.3123 3.51403 73.5942 3.2294L75.209 1.61467C75.4909 1.33277 76.0683 1.09467 76.4679 1.09467H83.3374C83.5645 1.09467 83.7479 1.27803 83.7479 1.50519V2.32624C83.7479 2.5534 83.5645 2.73677 83.3374 2.73677H75.4005C75.0229 2.73677 74.7163 3.0433 74.7163 3.42098V9.44203C74.7163 9.81972 75.0229 10.1262 75.4005 10.1262H83.3374C83.5645 10.1262 83.7479 10.3096 83.7479 10.5368V11.3578C83.7479 11.585 83.5645 11.7683 83.3374 11.7683H76.4679Z" fill="white"/>
<path fill-rule="evenodd" clip-rule="evenodd" d="M129.086 11.7684C128.574 11.7684 128.09 11.5494 127.75 11.1662L121.447 4.0094C121.368 3.91909 121.286 3.87256 121.201 3.87256C121.094 3.87256 120.968 3.95467 120.968 4.19003V11.3606C120.968 11.5877 120.785 11.7711 120.558 11.7711H119.737C119.51 11.7711 119.326 11.5877 119.326 11.3606V1.50519C119.326 1.27803 119.51 1.09467 119.737 1.09467H120.24C120.752 1.09467 121.236 1.31361 121.576 1.69677L127.879 8.85361C127.958 8.94393 128.04 8.99046 128.125 8.99046C128.232 8.99046 128.358 8.90835 128.358 8.67298V1.50519C128.358 1.27803 128.541 1.09467 128.768 1.09467H129.589C129.816 1.09467 130 1.27803 130 1.50519V11.3578C130 11.585 129.816 11.7684 129.589 11.7684H129.086Z" fill="white"/>
<path fill-rule="evenodd" clip-rule="evenodd" d="M42.8038 11.7683C42.4043 11.7683 41.8295 11.5302 41.5449 11.2483L39.9302 9.63361C39.6483 9.35172 39.4102 8.77424 39.4102 8.37467V4.48835C39.4102 4.08877 39.6483 3.51403 39.9302 3.2294L41.5449 1.61467C41.8268 1.33277 42.4043 1.09467 42.8038 1.09467H47.5112C47.9108 1.09467 48.4855 1.33277 48.7702 1.61467L50.3849 3.2294C50.6668 3.5113 50.9049 4.08877 50.9049 4.48835V8.37467C50.9049 8.77424 50.6668 9.34898 50.3849 9.63361L48.7702 11.2483C48.4883 11.5302 47.9108 11.7683 47.5112 11.7683H42.8038ZM41.7365 2.73677C41.3588 2.73677 41.0523 3.0433 41.0523 3.42098V9.44203C41.0523 9.81972 41.3588 10.1262 41.7365 10.1262H48.5786C48.9563 10.1262 49.2628 9.81972 49.2628 9.44203V3.42098C49.2628 3.0433 48.9563 2.73677 48.5786 2.73677H41.7365Z" fill="white"/>
<path fill-rule="evenodd" clip-rule="evenodd" d="M109.885 11.7683C109.658 11.7683 109.475 11.585 109.475 11.3578V8.89467C109.475 8.51698 109.168 8.21045 108.791 8.21045H102.77C102.392 8.21045 102.085 8.51698 102.085 8.89467V11.3578C102.085 11.585 101.902 11.7683 101.675 11.7683H100.854C100.627 11.7683 100.443 11.585 100.443 11.3578V4.48835C100.443 4.08877 100.681 3.51403 100.963 3.2294L102.578 1.61467C102.86 1.33277 103.437 1.09467 103.837 1.09467H107.723C108.123 1.09467 108.698 1.33277 108.982 1.61467L110.597 3.2294C110.879 3.5113 111.117 4.08877 111.117 4.48835V11.3578C111.117 11.585 110.934 11.7683 110.707 11.7683H109.885ZM102.77 2.73677C102.392 2.73677 102.085 3.0433 102.085 3.42098V5.88414C102.085 6.26182 102.392 6.56835 102.77 6.56835H108.791C109.168 6.56835 109.475 6.26182 109.475 5.88414V3.42098C109.475 3.0433 109.168 2.73677 108.791 2.73677H102.77Z" fill="white"/>
<path fill-rule="evenodd" clip-rule="evenodd" d="M95.9265 11.7683C95.6993 11.7683 95.516 11.585 95.516 11.3578V8.89467C95.516 8.51698 95.2094 8.21045 94.8317 8.21045H88.8107C88.433 8.21045 88.1265 8.51698 88.1265 8.89467V11.3578C88.1265 11.585 87.9431 11.7683 87.716 11.7683H86.8949C86.6677 11.7683 86.4844 11.585 86.4844 11.3578V1.50519C86.4844 1.27803 86.6677 1.09467 86.8949 1.09467H87.716C87.9431 1.09467 88.1265 1.27803 88.1265 1.50519V5.88414C88.1265 6.26182 88.433 6.56835 88.8107 6.56835H94.8317C95.2094 6.56835 95.516 6.26182 95.516 5.88414V1.50519C95.516 1.27803 95.6993 1.09467 95.9265 1.09467H96.7475C96.9747 1.09467 97.1581 1.27803 97.1581 1.50519V11.3578C97.1581 11.585 96.9747 11.7683 96.7475 11.7683H95.9265Z" fill="white"/>
<path d="M115.63 1.09467H114.809C114.582 1.09467 114.398 1.27846 114.398 1.50519V11.3578C114.398 11.5846 114.582 11.7683 114.809 11.7683H115.63C115.857 11.7683 116.041 11.5846 116.041 11.3578V1.50519C116.041 1.27846 115.857 1.09467 115.63 1.09467Z" fill="white"/>
<path fill-rule="evenodd" clip-rule="evenodd" d="M64.5619 11.7683C64.1624 11.7683 63.5876 11.5302 63.303 11.2483L62.471 10.4163C62.3424 10.2877 62.1699 10.2166 61.9866 10.2166C61.8032 10.2166 61.6308 10.2877 61.5022 10.4163L60.6702 11.2483C60.3883 11.5302 59.8108 11.7683 59.4112 11.7683H57.3038C56.9043 11.7683 56.3295 11.5302 56.0449 11.2483L54.4302 9.63361C54.1483 9.35172 53.9102 8.77424 53.9102 8.37467V1.50519C53.9102 1.27803 54.0935 1.09467 54.3207 1.09467H55.1417C55.3689 1.09467 55.5523 1.27803 55.5523 1.50519V9.44203C55.5523 9.81972 55.8588 10.1262 56.2365 10.1262H60.4786C60.8563 10.1262 61.1628 9.81972 61.1628 9.44203V1.50519C61.1628 1.27803 61.3462 1.09467 61.5733 1.09467H62.3944C62.6215 1.09467 62.8049 1.27803 62.8049 1.50519V9.44203C62.8049 9.81972 63.1114 10.1262 63.4891 10.1262H67.7312C68.1089 10.1262 68.4154 9.81972 68.4154 9.44203V1.50519C68.4154 1.27803 68.5988 1.09467 68.8259 1.09467H69.647C69.8742 1.09467 70.0575 1.27803 70.0575 1.50519V8.37467C70.0575 8.77424 69.8194 9.34898 69.5375 9.63361L67.9228 11.2483C67.6409 11.5302 67.0634 11.7683 66.6638 11.7683H64.5565H64.5619Z" fill="white"/>
</g>
<defs>
<clipPath id="clip0_903_843">
<rect width="19.1579" height="12.5895" fill="white"/>
</clipPath>
<clipPath id="clip1_903_843">
<rect width="103.726" height="10.6737" fill="white" transform="translate(26.2734 1.09467)"/>
</clipPath>
</defs>
</svg>
