<svg width="383" height="307" viewBox="0 0 383 307" fill="none" xmlns="http://www.w3.org/2000/svg">
<rect x="267.271" y="168" width="154" height="40" rx="20" transform="rotate(45 267.271 168)" fill="#E5D6FF"/>
<path d="M273.108 210.606L280.456 203.258L277.611 200.412L278.408 199.615L284.931 206.137L284.133 206.935L281.288 204.089L273.939 211.438L273.108 210.606ZM279.168 217.005C278.56 216.398 278.179 215.742 278.025 215.037C277.87 214.331 277.921 213.62 278.178 212.904C278.434 212.187 278.877 211.514 279.507 210.884C280.148 210.243 280.827 209.798 281.543 209.549C282.26 209.301 282.967 209.257 283.665 209.419C284.37 209.581 285.021 209.96 285.616 210.556C286.227 211.167 286.61 211.825 286.765 212.531C286.927 213.236 286.878 213.945 286.618 214.658C286.365 215.37 285.924 216.042 285.294 216.671C284.653 217.313 283.974 217.761 283.257 218.018C282.545 218.27 281.836 218.316 281.13 218.153C280.425 217.991 279.771 217.609 279.168 217.005ZM279.965 216.208C280.644 216.886 281.374 217.167 282.154 217.05C282.939 216.93 283.691 216.509 284.411 215.789C285.151 215.05 285.571 214.294 285.673 213.521C285.779 212.751 285.494 212.029 284.819 211.354C284.362 210.898 283.882 210.624 283.376 210.534C282.878 210.443 282.373 210.507 281.86 210.726C281.355 210.945 280.865 211.292 280.389 211.767C279.654 212.502 279.234 213.262 279.128 214.047C279.026 214.827 279.305 215.548 279.965 216.208ZM283.476 220.974L291.627 212.834L292.465 213.671L287.486 218.649L293.155 218.434L294.263 219.543L288.346 219.735L288.527 226.026L287.317 224.815L287.26 218.875L284.319 221.817L283.476 220.974ZM291.399 229.237C290.803 228.641 290.419 227.992 290.245 227.291C290.075 226.593 290.109 225.884 290.347 225.164C290.585 224.443 291.026 223.761 291.671 223.116C292.338 222.448 293.034 221.99 293.758 221.741C294.482 221.492 295.191 221.451 295.885 221.617C296.583 221.787 297.226 222.166 297.814 222.754C298.417 223.357 298.793 224.012 298.94 224.717C299.091 225.418 299.017 226.137 298.719 226.872C298.421 227.608 297.904 228.324 297.169 229.022L296.321 228.173L296.615 227.879C297.392 227.072 297.818 226.303 297.893 225.571C297.972 224.843 297.699 224.166 297.073 223.54C296.417 222.884 295.7 222.594 294.923 222.669C294.15 222.748 293.37 223.182 292.581 223.97C291.812 224.739 291.388 225.511 291.309 226.284C291.237 227.057 291.522 227.764 292.163 228.405C292.6 228.843 293.081 229.124 293.605 229.248C294.137 229.372 294.688 229.339 295.257 229.146L295.732 230.221C294.959 230.511 294.19 230.568 293.424 230.391C292.666 230.213 291.991 229.829 291.399 229.237ZM292.055 223.908L292.751 223.212L297.418 227.879L296.722 228.575L292.055 223.908ZM299.848 237.346L302.965 234.23C303.305 233.89 303.584 233.547 303.802 233.2C304.025 232.849 304.17 232.497 304.238 232.142C304.313 231.788 304.296 231.439 304.187 231.096C304.082 230.756 303.868 230.426 303.548 230.106C303.254 229.812 302.943 229.602 302.615 229.478C302.29 229.357 301.955 229.316 301.608 229.353C301.268 229.391 300.923 229.506 300.572 229.698C300.222 229.891 299.873 230.16 299.526 230.507L299.068 229.789C299.694 229.163 300.329 228.746 300.974 228.539C301.619 228.331 302.243 228.311 302.846 228.477C303.45 228.642 304 228.974 304.498 229.472C304.864 229.838 305.126 230.213 305.285 230.598C305.447 230.986 305.526 231.371 305.522 231.752C305.522 232.137 305.456 232.512 305.324 232.878C305.196 233.24 305.019 233.587 304.792 233.918C304.57 234.247 304.321 234.548 304.046 234.824L300.686 238.184L299.848 237.346ZM295.43 232.928L301.54 226.819L302.292 227.571L300.787 229.076L300.872 229.161L296.268 233.766L295.43 232.928ZM309.536 232.496L310.469 231.562L311.301 232.394L310.367 233.327L309.536 232.496ZM302.267 239.765L308.376 233.655L309.208 234.487L303.098 240.596L302.267 239.765ZM304.228 241.727L304.404 241.551L313.506 240.335L309.857 236.686L310.632 235.911L315.65 240.929L315.457 241.121L306.378 242.326L310.1 246.048L309.325 246.823L304.228 241.727ZM312.018 249.856C311.558 249.396 311.254 248.926 311.107 248.447C310.964 247.972 310.953 247.519 311.073 247.09C311.194 246.66 311.417 246.282 311.741 245.958C312.073 245.626 312.422 245.409 312.787 245.308C313.161 245.206 313.538 245.194 313.919 245.274C314.304 245.357 314.688 245.511 315.073 245.738C315.458 245.971 315.865 246.247 316.295 246.563C316.732 246.88 317.151 247.197 317.551 247.514C317.958 247.831 318.318 248.104 318.631 248.334L318.156 248.221C318.771 247.629 319.101 247.065 319.146 246.53C319.191 245.994 318.91 245.423 318.303 244.815C317.884 244.397 317.436 244.137 316.957 244.035C316.481 243.937 315.982 244.033 315.458 244.323L314.886 243.277C315.573 242.87 316.278 242.726 317.002 242.847C317.726 242.968 318.425 243.365 319.101 244.04C319.659 244.599 320.026 245.178 320.204 245.777C320.388 246.377 320.364 246.956 320.13 247.514C320.028 247.766 319.879 248.013 319.683 248.255C319.487 248.496 319.276 248.73 319.05 248.956L315.254 252.752L314.513 252.011L316.046 250.478L316.17 250.783C315.439 251.1 314.716 251.178 314.004 251.015C313.291 250.853 312.629 250.467 312.018 249.856ZM312.833 249.233C313.221 249.622 313.63 249.892 314.06 250.042C314.49 250.193 314.914 250.237 315.333 250.173C315.755 250.105 316.146 249.944 316.504 249.692C316.745 249.541 316.985 249.35 317.222 249.12C317.464 248.887 317.643 248.711 317.76 248.594L317.913 249.075C317.592 248.83 317.247 248.56 316.877 248.266C316.512 247.976 316.144 247.695 315.774 247.423C315.408 247.156 315.063 246.927 314.739 246.739C314.517 246.614 314.279 246.516 314.026 246.445C313.777 246.369 313.527 246.352 313.274 246.394C313.025 246.439 312.791 246.571 312.573 246.79C312.395 246.967 312.267 247.182 312.188 247.435C312.112 247.691 312.118 247.972 312.205 248.277C312.295 248.587 312.505 248.905 312.833 249.233ZM320.053 257.551C319.638 257.279 319.27 256.968 318.95 256.618C318.633 256.271 318.407 255.901 318.271 255.509C318.139 255.12 318.141 254.722 318.276 254.315C318.393 253.98 318.561 253.691 318.78 253.45C319.006 253.208 319.268 252.939 319.566 252.641L325.161 247.046L325.987 247.872L320.426 253.433C320.17 253.689 319.957 253.906 319.787 254.083C319.625 254.261 319.513 254.451 319.453 254.655C319.336 255.043 319.4 255.409 319.645 255.752C319.894 256.099 320.273 256.455 320.782 256.821L320.053 257.551ZM321.444 248.149L322.157 247.436L326.162 251.442L325.449 252.154L321.444 248.149ZM328.639 251.599L329.572 250.665L330.404 251.497L329.47 252.43L328.639 251.599ZM321.37 258.868L327.479 252.758L328.311 253.59L322.201 259.699L321.37 258.868ZM326.279 264.116C325.671 263.509 325.29 262.853 325.136 262.148C324.981 261.442 325.032 260.731 325.289 260.015C325.545 259.298 325.988 258.625 326.618 257.995C327.259 257.354 327.938 256.909 328.654 256.66C329.371 256.411 330.078 256.368 330.776 256.53C331.481 256.692 332.132 257.071 332.727 257.667C333.338 258.278 333.721 258.936 333.876 259.642C334.038 260.347 333.989 261.056 333.729 261.769C333.476 262.481 333.035 263.153 332.405 263.782C331.764 264.423 331.085 264.872 330.368 265.129C329.656 265.381 328.947 265.427 328.241 265.264C327.536 265.102 326.882 264.72 326.279 264.116ZM327.076 263.319C327.755 263.997 328.485 264.278 329.265 264.161C330.05 264.041 330.802 263.62 331.522 262.9C332.262 262.161 332.682 261.405 332.784 260.632C332.89 259.862 332.605 259.14 331.93 258.465C331.473 258.009 330.993 257.735 330.487 257.645C329.989 257.554 329.484 257.618 328.971 257.837C328.466 258.056 327.976 258.403 327.5 258.878C326.765 259.613 326.345 260.373 326.239 261.158C326.137 261.938 326.416 262.659 327.076 263.319ZM335.005 272.503L338.122 269.386C338.461 269.047 338.74 268.703 338.959 268.356C339.181 268.006 339.327 267.653 339.394 267.299C339.47 266.944 339.453 266.595 339.344 266.252C339.238 265.913 339.025 265.583 338.704 265.262C338.41 264.968 338.099 264.759 337.771 264.634C337.447 264.514 337.111 264.472 336.764 264.51C336.425 264.548 336.08 264.663 335.729 264.855C335.378 265.047 335.029 265.317 334.682 265.664L334.224 264.945C334.85 264.319 335.486 263.903 336.13 263.695C336.775 263.488 337.4 263.467 338.003 263.633C338.606 263.799 339.157 264.131 339.655 264.629C340.021 264.994 340.283 265.37 340.441 265.754C340.603 266.143 340.682 266.527 340.679 266.908C340.679 267.293 340.613 267.668 340.481 268.034C340.352 268.396 340.175 268.743 339.949 269.075C339.726 269.403 339.477 269.705 339.202 269.98L335.842 273.34L335.005 272.503ZM330.587 268.085L336.696 261.976L337.449 262.728L335.944 264.233L336.029 264.317L331.424 268.922L330.587 268.085Z" fill="black"/>
<rect x="70.9871" y="257" width="182" height="40" rx="20" fill="#DCE4FF"/>
<path d="M106.203 283.24C105.387 283.24 104.651 283.102 103.995 282.824C103.344 282.547 102.806 282.152 102.379 281.64C101.958 281.123 101.683 280.512 101.555 279.808L103.027 279.576C103.214 280.302 103.6 280.87 104.187 281.28C104.779 281.686 105.475 281.888 106.275 281.888C106.792 281.888 107.259 281.808 107.675 281.648C108.096 281.483 108.43 281.248 108.675 280.944C108.92 280.64 109.043 280.28 109.043 279.864C109.043 279.608 108.998 279.39 108.907 279.208C108.822 279.022 108.702 278.864 108.547 278.736C108.398 278.603 108.227 278.491 108.035 278.4C107.843 278.31 107.643 278.235 107.435 278.176L104.499 277.304C104.179 277.208 103.87 277.088 103.571 276.944C103.272 276.795 103.006 276.611 102.771 276.392C102.536 276.168 102.35 275.902 102.211 275.592C102.072 275.278 102.003 274.907 102.003 274.48C102.003 273.798 102.179 273.216 102.531 272.736C102.888 272.251 103.371 271.88 103.979 271.624C104.587 271.368 105.272 271.243 106.035 271.248C106.808 271.254 107.499 271.392 108.107 271.664C108.72 271.931 109.227 272.315 109.627 272.816C110.032 273.318 110.304 273.918 110.443 274.616L108.931 274.88C108.851 274.411 108.672 274.008 108.395 273.672C108.123 273.331 107.782 273.07 107.371 272.888C106.96 272.702 106.51 272.606 106.019 272.6C105.55 272.595 105.126 272.67 104.747 272.824C104.368 272.979 104.067 273.195 103.843 273.472C103.619 273.744 103.507 274.059 103.507 274.416C103.507 274.768 103.608 275.054 103.811 275.272C104.014 275.486 104.262 275.656 104.555 275.784C104.854 275.907 105.144 276.008 105.427 276.088L107.619 276.72C107.87 276.79 108.158 276.886 108.483 277.008C108.814 277.131 109.134 277.304 109.443 277.528C109.752 277.747 110.008 278.04 110.211 278.408C110.414 278.771 110.515 279.23 110.515 279.784C110.515 280.339 110.403 280.832 110.179 281.264C109.96 281.696 109.654 282.059 109.259 282.352C108.864 282.64 108.406 282.859 107.883 283.008C107.36 283.163 106.8 283.24 106.203 283.24ZM122.521 283L122.529 277.472C122.529 276.827 122.356 276.323 122.009 275.96C121.668 275.592 121.222 275.408 120.673 275.408C120.353 275.408 120.049 275.483 119.761 275.632C119.473 275.776 119.238 276.006 119.057 276.32C118.876 276.63 118.785 277.027 118.785 277.512L118.033 277.208C118.022 276.595 118.148 276.059 118.409 275.6C118.676 275.136 119.038 274.776 119.497 274.52C119.956 274.264 120.473 274.136 121.049 274.136C121.95 274.136 122.66 274.411 123.177 274.96C123.694 275.504 123.953 276.238 123.953 277.16L123.945 283H122.521ZM112.185 283V274.36H113.457V276.672H113.617V283H112.185ZM117.361 283L117.369 277.528C117.369 276.867 117.198 276.35 116.857 275.976C116.516 275.598 116.062 275.408 115.497 275.408C114.937 275.408 114.484 275.6 114.137 275.984C113.79 276.368 113.617 276.878 113.617 277.512L112.865 277.064C112.865 276.504 112.998 276.003 113.265 275.56C113.532 275.118 113.894 274.771 114.353 274.52C114.812 274.264 115.332 274.136 115.913 274.136C116.494 274.136 117.001 274.259 117.433 274.504C117.865 274.75 118.198 275.102 118.433 275.56C118.668 276.014 118.785 276.555 118.785 277.184L118.777 283H117.361ZM128.493 283.24C127.847 283.24 127.306 283.123 126.869 282.888C126.437 282.648 126.109 282.334 125.885 281.944C125.666 281.555 125.557 281.128 125.557 280.664C125.557 280.211 125.642 279.819 125.813 279.488C125.989 279.152 126.234 278.875 126.549 278.656C126.863 278.432 127.239 278.256 127.677 278.128C128.087 278.016 128.546 277.92 129.053 277.84C129.565 277.755 130.082 277.678 130.605 277.608C131.127 277.539 131.615 277.472 132.069 277.408L131.557 277.704C131.573 276.936 131.418 276.368 131.093 276C130.773 275.632 130.218 275.448 129.429 275.448C128.906 275.448 128.447 275.568 128.053 275.808C127.663 276.043 127.389 276.427 127.229 276.96L125.877 276.552C126.085 275.795 126.487 275.2 127.085 274.768C127.682 274.336 128.469 274.12 129.445 274.12C130.229 274.12 130.901 274.262 131.461 274.544C132.026 274.822 132.431 275.243 132.677 275.808C132.799 276.075 132.877 276.366 132.909 276.68C132.941 276.99 132.957 277.315 132.957 277.656V283H131.693V280.928L131.989 281.12C131.663 281.819 131.207 282.347 130.621 282.704C130.039 283.062 129.33 283.24 128.493 283.24ZM128.709 282.048C129.221 282.048 129.663 281.958 130.037 281.776C130.415 281.59 130.719 281.347 130.949 281.048C131.178 280.744 131.327 280.414 131.397 280.056C131.477 279.79 131.519 279.494 131.525 279.168C131.535 278.838 131.541 278.584 131.541 278.408L132.037 278.624C131.573 278.688 131.117 278.75 130.669 278.808C130.221 278.867 129.797 278.931 129.397 279C128.997 279.064 128.637 279.142 128.317 279.232C128.082 279.307 127.861 279.403 127.653 279.52C127.45 279.638 127.285 279.79 127.157 279.976C127.034 280.158 126.973 280.384 126.973 280.656C126.973 280.891 127.031 281.115 127.149 281.328C127.271 281.542 127.458 281.715 127.709 281.848C127.965 281.982 128.298 282.048 128.709 282.048ZM135.037 283V274.36H136.309V276.448L136.101 276.176C136.202 275.91 136.333 275.664 136.493 275.44C136.658 275.216 136.842 275.032 137.045 274.888C137.269 274.707 137.522 274.568 137.805 274.472C138.087 274.376 138.375 274.32 138.669 274.304C138.962 274.283 139.237 274.302 139.493 274.36V275.696C139.194 275.616 138.866 275.595 138.509 275.632C138.151 275.67 137.821 275.8 137.517 276.024C137.239 276.222 137.023 276.462 136.869 276.744C136.719 277.027 136.615 277.334 136.557 277.664C136.498 277.99 136.469 278.323 136.469 278.664V283H135.037ZM145.829 283C145.317 283.102 144.811 283.142 144.309 283.12C143.813 283.104 143.371 283.006 142.981 282.824C142.592 282.638 142.296 282.35 142.093 281.96C141.923 281.619 141.829 281.275 141.813 280.928C141.803 280.576 141.797 280.179 141.797 279.736V271.96H143.221V279.672C143.221 280.024 143.224 280.326 143.229 280.576C143.24 280.827 143.296 281.043 143.397 281.224C143.589 281.566 143.893 281.766 144.309 281.824C144.731 281.883 145.237 281.867 145.829 281.776V283ZM140.045 275.536V274.36H145.829V275.536H140.045ZM154.427 283.24C153.552 283.24 152.808 283.046 152.195 282.656C151.587 282.262 151.123 281.72 150.803 281.032C150.483 280.344 150.317 279.56 150.307 278.68C150.317 277.779 150.485 276.987 150.811 276.304C151.141 275.616 151.613 275.08 152.227 274.696C152.84 274.312 153.579 274.12 154.443 274.12C155.355 274.12 156.139 274.344 156.795 274.792C157.456 275.24 157.899 275.854 158.123 276.632L156.715 277.056C156.533 276.555 156.237 276.166 155.827 275.888C155.421 275.611 154.955 275.472 154.427 275.472C153.835 275.472 153.347 275.611 152.963 275.888C152.579 276.16 152.293 276.539 152.107 277.024C151.92 277.504 151.824 278.056 151.819 278.68C151.829 279.64 152.051 280.416 152.483 281.008C152.92 281.595 153.568 281.888 154.427 281.888C154.992 281.888 155.461 281.76 155.835 281.504C156.208 281.243 156.491 280.867 156.683 280.376L158.123 280.752C157.824 281.558 157.357 282.174 156.723 282.6C156.088 283.027 155.323 283.24 154.427 283.24ZM163.201 283.24C162.342 283.24 161.601 283.046 160.977 282.656C160.358 282.267 159.881 281.728 159.545 281.04C159.209 280.352 159.041 279.563 159.041 278.672C159.041 277.766 159.212 276.971 159.553 276.288C159.894 275.606 160.377 275.075 161.001 274.696C161.625 274.312 162.358 274.12 163.201 274.12C164.065 274.12 164.809 274.315 165.433 274.704C166.057 275.088 166.534 275.624 166.865 276.312C167.201 276.995 167.369 277.782 167.369 278.672C167.369 279.574 167.201 280.368 166.865 281.056C166.529 281.739 166.049 282.275 165.425 282.664C164.801 283.048 164.06 283.24 163.201 283.24ZM163.201 281.888C164.097 281.888 164.764 281.59 165.201 280.992C165.638 280.395 165.857 279.622 165.857 278.672C165.857 277.696 165.636 276.92 165.193 276.344C164.75 275.763 164.086 275.472 163.201 275.472C162.598 275.472 162.102 275.608 161.713 275.88C161.324 276.152 161.033 276.528 160.841 277.008C160.649 277.488 160.553 278.043 160.553 278.672C160.553 279.643 160.777 280.422 161.225 281.008C161.673 281.595 162.332 281.888 163.201 281.888ZM175.282 283V278.672C175.282 278.262 175.245 277.867 175.17 277.488C175.101 277.11 174.976 276.771 174.794 276.472C174.618 276.168 174.378 275.928 174.074 275.752C173.776 275.576 173.397 275.488 172.938 275.488C172.581 275.488 172.256 275.55 171.962 275.672C171.674 275.79 171.426 275.971 171.218 276.216C171.01 276.462 170.848 276.771 170.73 277.144C170.618 277.512 170.562 277.947 170.562 278.448L169.626 278.16C169.626 277.323 169.776 276.606 170.074 276.008C170.378 275.406 170.802 274.944 171.346 274.624C171.896 274.299 172.541 274.136 173.282 274.136C173.842 274.136 174.32 274.224 174.714 274.4C175.109 274.576 175.437 274.811 175.698 275.104C175.96 275.392 176.165 275.718 176.314 276.08C176.464 276.438 176.568 276.803 176.626 277.176C176.69 277.544 176.722 277.894 176.722 278.224V283H175.282ZM169.122 283V274.36H170.402V276.672H170.562V283H169.122ZM183.626 283C183.114 283.102 182.608 283.142 182.106 283.12C181.61 283.104 181.168 283.006 180.778 282.824C180.389 282.638 180.093 282.35 179.89 281.96C179.72 281.619 179.626 281.275 179.61 280.928C179.6 280.576 179.594 280.179 179.594 279.736V271.96H181.018V279.672C181.018 280.024 181.021 280.326 181.026 280.576C181.037 280.827 181.093 281.043 181.194 281.224C181.386 281.566 181.69 281.766 182.106 281.824C182.528 281.883 183.034 281.867 183.626 281.776V283ZM177.842 275.536V274.36H183.626V275.536H177.842ZM185.38 283V274.36H186.652V276.448L186.444 276.176C186.546 275.91 186.676 275.664 186.836 275.44C187.002 275.216 187.186 275.032 187.388 274.888C187.612 274.707 187.866 274.568 188.148 274.472C188.431 274.376 188.719 274.32 189.012 274.304C189.306 274.283 189.58 274.302 189.836 274.36V275.696C189.538 275.616 189.21 275.595 188.852 275.632C188.495 275.67 188.164 275.8 187.86 276.024C187.583 276.222 187.367 276.462 187.212 276.744C187.063 277.027 186.959 277.334 186.9 277.664C186.842 277.99 186.812 278.323 186.812 278.664V283H185.38ZM193.524 283.24C192.879 283.24 192.337 283.123 191.9 282.888C191.468 282.648 191.14 282.334 190.916 281.944C190.697 281.555 190.588 281.128 190.588 280.664C190.588 280.211 190.673 279.819 190.844 279.488C191.02 279.152 191.265 278.875 191.58 278.656C191.895 278.432 192.271 278.256 192.708 278.128C193.119 278.016 193.577 277.92 194.084 277.84C194.596 277.755 195.113 277.678 195.636 277.608C196.159 277.539 196.647 277.472 197.1 277.408L196.588 277.704C196.604 276.936 196.449 276.368 196.124 276C195.804 275.632 195.249 275.448 194.46 275.448C193.937 275.448 193.479 275.568 193.084 275.808C192.695 276.043 192.42 276.427 192.26 276.96L190.908 276.552C191.116 275.795 191.519 275.2 192.116 274.768C192.713 274.336 193.5 274.12 194.476 274.12C195.26 274.12 195.932 274.262 196.492 274.544C197.057 274.822 197.463 275.243 197.708 275.808C197.831 276.075 197.908 276.366 197.94 276.68C197.972 276.99 197.988 277.315 197.988 277.656V283H196.724V280.928L197.02 281.12C196.695 281.819 196.239 282.347 195.652 282.704C195.071 283.062 194.361 283.24 193.524 283.24ZM193.74 282.048C194.252 282.048 194.695 281.958 195.068 281.776C195.447 281.59 195.751 281.347 195.98 281.048C196.209 280.744 196.359 280.414 196.428 280.056C196.508 279.79 196.551 279.494 196.556 279.168C196.567 278.838 196.572 278.584 196.572 278.408L197.068 278.624C196.604 278.688 196.148 278.75 195.7 278.808C195.252 278.867 194.828 278.931 194.428 279C194.028 279.064 193.668 279.142 193.348 279.232C193.113 279.307 192.892 279.403 192.684 279.52C192.481 279.638 192.316 279.79 192.188 279.976C192.065 280.158 192.004 280.384 192.004 280.656C192.004 280.891 192.063 281.115 192.18 281.328C192.303 281.542 192.489 281.715 192.74 281.848C192.996 281.982 193.329 282.048 193.74 282.048ZM203.708 283.24C202.833 283.24 202.089 283.046 201.476 282.656C200.868 282.262 200.404 281.72 200.084 281.032C199.764 280.344 199.599 279.56 199.588 278.68C199.599 277.779 199.767 276.987 200.092 276.304C200.423 275.616 200.895 275.08 201.508 274.696C202.121 274.312 202.86 274.12 203.724 274.12C204.636 274.12 205.42 274.344 206.076 274.792C206.737 275.24 207.18 275.854 207.404 276.632L205.996 277.056C205.815 276.555 205.519 276.166 205.108 275.888C204.703 275.611 204.236 275.472 203.708 275.472C203.116 275.472 202.628 275.611 202.244 275.888C201.86 276.16 201.575 276.539 201.388 277.024C201.201 277.504 201.105 278.056 201.1 278.68C201.111 279.64 201.332 280.416 201.764 281.008C202.201 281.595 202.849 281.888 203.708 281.888C204.273 281.888 204.743 281.76 205.116 281.504C205.489 281.243 205.772 280.867 205.964 280.376L207.404 280.752C207.105 281.558 206.639 282.174 206.004 282.6C205.369 283.027 204.604 283.24 203.708 283.24ZM213.861 283C213.349 283.102 212.842 283.142 212.341 283.12C211.845 283.104 211.402 283.006 211.013 282.824C210.623 282.638 210.327 282.35 210.125 281.96C209.954 281.619 209.861 281.275 209.845 280.928C209.834 280.576 209.829 280.179 209.829 279.736V271.96H211.253V279.672C211.253 280.024 211.255 280.326 211.261 280.576C211.271 280.827 211.327 281.043 211.429 281.224C211.621 281.566 211.925 281.766 212.341 281.824C212.762 281.883 213.269 281.867 213.861 281.776V283ZM208.077 275.536V274.36H213.861V275.536H208.077ZM218.879 283.232C217.85 283.232 217.004 283.008 216.343 282.56C215.687 282.107 215.284 281.475 215.135 280.664L216.591 280.432C216.708 280.902 216.978 281.275 217.399 281.552C217.82 281.824 218.343 281.96 218.967 281.96C219.559 281.96 220.023 281.838 220.359 281.592C220.695 281.347 220.863 281.014 220.863 280.592C220.863 280.347 220.807 280.15 220.695 280C220.583 279.846 220.351 279.702 219.999 279.568C219.652 279.435 219.127 279.275 218.423 279.088C217.66 278.886 217.06 278.675 216.623 278.456C216.186 278.238 215.874 277.984 215.687 277.696C215.5 277.408 215.407 277.059 215.407 276.648C215.407 276.142 215.546 275.699 215.823 275.32C216.1 274.936 216.487 274.64 216.983 274.432C217.484 274.224 218.066 274.12 218.727 274.12C219.383 274.12 219.97 274.224 220.487 274.432C221.004 274.64 221.42 274.936 221.735 275.32C222.055 275.699 222.244 276.142 222.303 276.648L220.847 276.912C220.778 276.448 220.554 276.083 220.175 275.816C219.802 275.55 219.319 275.408 218.727 275.392C218.167 275.371 217.711 275.47 217.359 275.688C217.012 275.907 216.839 276.203 216.839 276.576C216.839 276.784 216.903 276.963 217.031 277.112C217.164 277.262 217.407 277.403 217.759 277.536C218.116 277.67 218.634 277.822 219.311 277.992C220.074 278.184 220.674 278.395 221.111 278.624C221.554 278.848 221.868 279.115 222.055 279.424C222.242 279.728 222.335 280.104 222.335 280.552C222.335 281.384 222.028 282.04 221.415 282.52C220.802 282.995 219.956 283.232 218.879 283.232Z" fill="black"/>
<rect x="101" y="202" width="144" height="40" rx="20" fill="#CCADFF"/>
<path d="M112.558 228V216.48H113.742L120.086 225.92V216.48H121.27V228H120.086L113.742 218.552V228H112.558ZM123.511 228V216.48H130.127V217.656H124.687V221.656H129.167V222.824H124.687V228H123.511ZM134.637 228V217.608H130.613V216.48H139.837V217.608H135.813V228H134.637ZM154.143 228L154.151 222.328C154.151 221.661 153.964 221.139 153.591 220.76C153.223 220.376 152.753 220.184 152.183 220.184C151.857 220.184 151.54 220.259 151.231 220.408C150.921 220.557 150.665 220.797 150.463 221.128C150.265 221.459 150.167 221.891 150.167 222.424L149.471 222.224C149.455 221.605 149.575 221.064 149.831 220.6C150.092 220.136 150.449 219.776 150.903 219.52C151.361 219.259 151.879 219.128 152.455 219.128C153.324 219.128 154.02 219.397 154.543 219.936C155.065 220.469 155.327 221.192 155.327 222.104L155.319 228H154.143ZM143.831 228V219.36H144.887V221.488H145.015V228H143.831ZM148.999 228L149.007 222.408C149.007 221.72 148.823 221.179 148.455 220.784C148.092 220.384 147.612 220.184 147.015 220.184C146.417 220.184 145.935 220.389 145.567 220.8C145.199 221.205 145.015 221.747 145.015 222.424L144.311 222.04C144.311 221.485 144.441 220.989 144.703 220.552C144.964 220.109 145.321 219.763 145.775 219.512C146.228 219.256 146.743 219.128 147.319 219.128C147.868 219.128 148.356 219.245 148.783 219.48C149.215 219.715 149.553 220.056 149.799 220.504C150.044 220.952 150.167 221.496 150.167 222.136L150.159 228H148.999ZM159.873 228.24C159.223 228.24 158.676 228.123 158.233 227.888C157.796 227.653 157.468 227.341 157.249 226.952C157.031 226.563 156.921 226.139 156.921 225.68C156.921 225.211 157.015 224.811 157.201 224.48C157.393 224.144 157.652 223.869 157.977 223.656C158.308 223.443 158.689 223.28 159.121 223.168C159.559 223.061 160.041 222.968 160.569 222.888C161.103 222.803 161.623 222.731 162.129 222.672C162.641 222.608 163.089 222.547 163.473 222.488L163.057 222.744C163.073 221.891 162.908 221.259 162.561 220.848C162.215 220.437 161.612 220.232 160.753 220.232C160.161 220.232 159.66 220.365 159.249 220.632C158.844 220.899 158.559 221.32 158.393 221.896L157.249 221.56C157.447 220.787 157.844 220.187 158.441 219.76C159.039 219.333 159.815 219.12 160.769 219.12C161.559 219.12 162.228 219.269 162.777 219.568C163.332 219.861 163.724 220.288 163.953 220.848C164.06 221.099 164.129 221.379 164.161 221.688C164.193 221.997 164.209 222.312 164.209 222.632V228H163.161V225.832L163.465 225.96C163.172 226.701 162.716 227.267 162.097 227.656C161.479 228.045 160.737 228.24 159.873 228.24ZM160.009 227.224C160.559 227.224 161.039 227.125 161.449 226.928C161.86 226.731 162.191 226.461 162.441 226.12C162.692 225.773 162.855 225.384 162.929 224.952C162.993 224.675 163.028 224.371 163.033 224.04C163.039 223.704 163.041 223.453 163.041 223.288L163.489 223.52C163.089 223.573 162.655 223.627 162.185 223.68C161.721 223.733 161.263 223.795 160.809 223.864C160.361 223.933 159.956 224.016 159.593 224.112C159.348 224.181 159.111 224.28 158.881 224.408C158.652 224.531 158.463 224.696 158.313 224.904C158.169 225.112 158.097 225.371 158.097 225.68C158.097 225.931 158.159 226.173 158.281 226.408C158.409 226.643 158.612 226.837 158.889 226.992C159.172 227.147 159.545 227.224 160.009 227.224ZM166.292 228V219.36H167.348V221.44L167.14 221.168C167.236 220.912 167.361 220.677 167.516 220.464C167.671 220.245 167.839 220.067 168.02 219.928C168.244 219.731 168.505 219.581 168.804 219.48C169.103 219.373 169.404 219.312 169.708 219.296C170.012 219.275 170.289 219.296 170.54 219.36V220.464C170.225 220.384 169.881 220.365 169.508 220.408C169.135 220.451 168.791 220.6 168.476 220.856C168.188 221.08 167.972 221.349 167.828 221.664C167.684 221.973 167.588 222.304 167.54 222.656C167.492 223.003 167.468 223.347 167.468 223.688V228H166.292ZM172.05 228L172.058 216.48H173.242V223.52L177.098 219.36H178.666L174.618 223.68L179.194 228H177.482L173.242 223.84V228H172.05ZM183.495 228.24C182.652 228.24 181.921 228.053 181.303 227.68C180.689 227.307 180.212 226.781 179.871 226.104C179.529 225.427 179.359 224.632 179.359 223.72C179.359 222.776 179.527 221.96 179.863 221.272C180.199 220.584 180.671 220.053 181.279 219.68C181.892 219.307 182.615 219.12 183.447 219.12C184.3 219.12 185.028 219.317 185.631 219.712C186.233 220.101 186.689 220.661 186.999 221.392C187.308 222.123 187.449 222.995 187.423 224.008H186.223V223.592C186.201 222.472 185.959 221.627 185.495 221.056C185.036 220.485 184.364 220.2 183.479 220.2C182.551 220.2 181.839 220.501 181.343 221.104C180.852 221.707 180.607 222.565 180.607 223.68C180.607 224.768 180.852 225.613 181.343 226.216C181.839 226.813 182.54 227.112 183.447 227.112C184.065 227.112 184.604 226.971 185.063 226.688C185.527 226.4 185.892 225.987 186.159 225.448L187.255 225.872C186.913 226.624 186.409 227.208 185.743 227.624C185.081 228.035 184.332 228.24 183.495 228.24ZM180.191 224.008V223.024H186.791V224.008H180.191ZM193.902 228C193.417 228.101 192.937 228.141 192.462 228.12C191.993 228.099 191.571 227.997 191.198 227.816C190.83 227.635 190.55 227.352 190.358 226.968C190.203 226.648 190.118 226.325 190.102 226C190.091 225.669 190.086 225.293 190.086 224.872V216.96H191.254V224.824C191.254 225.187 191.257 225.491 191.262 225.736C191.273 225.976 191.329 226.189 191.43 226.376C191.622 226.733 191.926 226.947 192.342 227.016C192.763 227.085 193.283 227.069 193.902 226.968V228ZM188.238 220.368V219.36H193.902V220.368H188.238ZM199.484 228.24C198.69 228.24 198.018 228.04 197.468 227.64C196.919 227.235 196.503 226.688 196.22 226C195.938 225.307 195.796 224.531 195.796 223.672C195.796 222.797 195.938 222.019 196.22 221.336C196.508 220.648 196.93 220.107 197.484 219.712C198.039 219.317 198.722 219.12 199.532 219.12C200.322 219.12 200.999 219.32 201.564 219.72C202.13 220.12 202.562 220.664 202.86 221.352C203.164 222.04 203.316 222.813 203.316 223.672C203.316 224.536 203.164 225.312 202.86 226C202.556 226.688 202.119 227.235 201.548 227.64C200.978 228.04 200.29 228.24 199.484 228.24ZM195.596 231.84V219.36H196.652V225.864H196.78V231.84H195.596ZM199.364 227.144C199.967 227.144 200.468 226.992 200.868 226.688C201.268 226.384 201.567 225.971 201.764 225.448C201.967 224.92 202.068 224.328 202.068 223.672C202.068 223.021 201.97 222.435 201.772 221.912C201.575 221.389 201.274 220.976 200.868 220.672C200.468 220.368 199.959 220.216 199.34 220.216C198.738 220.216 198.236 220.363 197.836 220.656C197.442 220.949 197.146 221.357 196.948 221.88C196.751 222.397 196.652 222.995 196.652 223.672C196.652 224.339 196.751 224.936 196.948 225.464C197.146 225.987 197.444 226.397 197.844 226.696C198.244 226.995 198.751 227.144 199.364 227.144ZM205.233 228V216.24H206.409V228H205.233ZM211.28 228.24C210.629 228.24 210.082 228.123 209.64 227.888C209.202 227.653 208.874 227.341 208.656 226.952C208.437 226.563 208.328 226.139 208.328 225.68C208.328 225.211 208.421 224.811 208.608 224.48C208.8 224.144 209.058 223.869 209.384 223.656C209.714 223.443 210.096 223.28 210.528 223.168C210.965 223.061 211.448 222.968 211.976 222.888C212.509 222.803 213.029 222.731 213.536 222.672C214.048 222.608 214.496 222.547 214.88 222.488L214.464 222.744C214.48 221.891 214.314 221.259 213.968 220.848C213.621 220.437 213.018 220.232 212.16 220.232C211.568 220.232 211.066 220.365 210.656 220.632C210.25 220.899 209.965 221.32 209.799 221.896L208.656 221.56C208.853 220.787 209.25 220.187 209.848 219.76C210.445 219.333 211.221 219.12 212.176 219.12C212.965 219.12 213.634 219.269 214.184 219.568C214.738 219.861 215.13 220.288 215.36 220.848C215.466 221.099 215.536 221.379 215.568 221.688C215.6 221.997 215.616 222.312 215.616 222.632V228H214.568V225.832L214.872 225.96C214.578 226.701 214.122 227.267 213.504 227.656C212.885 228.045 212.144 228.24 211.28 228.24ZM211.416 227.224C211.965 227.224 212.445 227.125 212.856 226.928C213.266 226.731 213.597 226.461 213.848 226.12C214.098 225.773 214.261 225.384 214.336 224.952C214.4 224.675 214.434 224.371 214.44 224.04C214.445 223.704 214.448 223.453 214.448 223.288L214.896 223.52C214.496 223.573 214.061 223.627 213.592 223.68C213.128 223.733 212.669 223.795 212.216 223.864C211.768 223.933 211.362 224.016 211 224.112C210.754 224.181 210.517 224.28 210.288 224.408C210.058 224.531 209.869 224.696 209.72 224.904C209.576 225.112 209.504 225.371 209.504 225.68C209.504 225.931 209.565 226.173 209.688 226.408C209.816 226.643 210.018 226.837 210.296 226.992C210.578 227.147 210.952 227.224 211.416 227.224ZM221.282 228.24C220.413 228.24 219.677 228.045 219.074 227.656C218.471 227.267 218.013 226.731 217.698 226.048C217.389 225.36 217.229 224.571 217.218 223.68C217.229 222.773 217.394 221.979 217.714 221.296C218.034 220.608 218.495 220.075 219.098 219.696C219.701 219.312 220.431 219.12 221.29 219.12C222.165 219.12 222.925 219.333 223.57 219.76C224.221 220.187 224.666 220.771 224.906 221.512L223.754 221.88C223.551 221.363 223.229 220.963 222.786 220.68C222.349 220.392 221.847 220.248 221.282 220.248C220.647 220.248 220.122 220.395 219.706 220.688C219.29 220.976 218.981 221.379 218.778 221.896C218.575 222.413 218.471 223.008 218.466 223.68C218.477 224.715 218.717 225.547 219.186 226.176C219.655 226.8 220.354 227.112 221.282 227.112C221.869 227.112 222.367 226.979 222.778 226.712C223.194 226.44 223.509 226.045 223.722 225.528L224.906 225.88C224.586 226.648 224.117 227.235 223.498 227.64C222.879 228.04 222.141 228.24 221.282 228.24ZM229.979 228.24C229.136 228.24 228.406 228.053 227.787 227.68C227.174 227.307 226.696 226.781 226.355 226.104C226.014 225.427 225.843 224.632 225.843 223.72C225.843 222.776 226.011 221.96 226.347 221.272C226.683 220.584 227.155 220.053 227.763 219.68C228.376 219.307 229.099 219.12 229.931 219.12C230.784 219.12 231.512 219.317 232.115 219.712C232.718 220.101 233.174 220.661 233.483 221.392C233.792 222.123 233.934 222.995 233.907 224.008H232.707V223.592C232.686 222.472 232.443 221.627 231.979 221.056C231.52 220.485 230.848 220.2 229.963 220.2C229.035 220.2 228.323 220.501 227.827 221.104C227.336 221.707 227.091 222.565 227.091 223.68C227.091 224.768 227.336 225.613 227.827 226.216C228.323 226.813 229.024 227.112 229.931 227.112C230.55 227.112 231.088 226.971 231.547 226.688C232.011 226.4 232.376 225.987 232.643 225.448L233.739 225.872C233.398 226.624 232.894 227.208 232.227 227.624C231.566 228.035 230.816 228.24 229.979 228.24ZM226.675 224.008V223.024H233.275V224.008H226.675Z" fill="white"/>
<rect x="5" y="149" width="144" height="40" rx="20" fill="white"/>
<path d="M36.5847 175V163.48H38.0087V173.648H43.3527V175H36.5847ZM47.1619 175.24C46.5166 175.24 45.9753 175.123 45.5379 174.888C45.1059 174.648 44.7779 174.333 44.5539 173.944C44.3353 173.555 44.2259 173.128 44.2259 172.664C44.2259 172.211 44.3113 171.819 44.4819 171.488C44.6579 171.152 44.9033 170.875 45.2179 170.656C45.5326 170.432 45.9086 170.256 46.3459 170.128C46.7566 170.016 47.2153 169.92 47.7219 169.84C48.2339 169.755 48.7513 169.677 49.2739 169.608C49.7966 169.539 50.2846 169.472 50.7379 169.408L50.2259 169.704C50.2419 168.936 50.0873 168.368 49.7619 168C49.4419 167.632 48.8873 167.448 48.0979 167.448C47.5753 167.448 47.1166 167.568 46.7219 167.808C46.3326 168.043 46.0579 168.427 45.8979 168.96L44.5459 168.552C44.7539 167.795 45.1566 167.2 45.7539 166.768C46.3513 166.336 47.1379 166.12 48.1139 166.12C48.8979 166.12 49.5699 166.261 50.1299 166.544C50.6953 166.821 51.1006 167.243 51.3459 167.808C51.4686 168.075 51.5459 168.365 51.5779 168.68C51.6099 168.989 51.6259 169.315 51.6259 169.656V175H50.3619V172.928L50.6579 173.12C50.3326 173.819 49.8766 174.347 49.2899 174.704C48.7086 175.061 47.9993 175.24 47.1619 175.24ZM47.3779 174.048C47.8899 174.048 48.3326 173.957 48.7059 173.776C49.0846 173.589 49.3886 173.347 49.6179 173.048C49.8473 172.744 49.9966 172.413 50.0659 172.056C50.1459 171.789 50.1886 171.493 50.1939 171.168C50.2046 170.837 50.2099 170.584 50.2099 170.408L50.7059 170.624C50.2419 170.688 49.7859 170.749 49.3379 170.808C48.8899 170.867 48.4659 170.931 48.0659 171C47.6659 171.064 47.3059 171.141 46.9859 171.232C46.7513 171.307 46.5299 171.403 46.3219 171.52C46.1193 171.637 45.9539 171.789 45.8259 171.976C45.7033 172.157 45.6419 172.384 45.6419 172.656C45.6419 172.891 45.7006 173.115 45.8179 173.328C45.9406 173.541 46.1273 173.715 46.3779 173.848C46.6339 173.981 46.9673 174.048 47.3779 174.048ZM56.9859 175.224C56.4313 175.224 55.9539 175.136 55.5539 174.96C55.1593 174.784 54.8313 174.549 54.5699 174.256C54.3086 173.963 54.1033 173.637 53.9539 173.28C53.8046 172.923 53.6979 172.557 53.6339 172.184C53.5753 171.811 53.5459 171.461 53.5459 171.136V166.36H54.9859V170.688C54.9859 171.093 55.0233 171.485 55.0979 171.864C55.1726 172.243 55.2979 172.584 55.4739 172.888C55.6553 173.192 55.8953 173.432 56.1939 173.608C56.4979 173.784 56.8766 173.872 57.3299 173.872C57.6873 173.872 58.0126 173.811 58.3059 173.688C58.5993 173.565 58.8499 173.384 59.0579 173.144C59.2659 172.899 59.4259 172.589 59.5379 172.216C59.6499 171.843 59.7059 171.408 59.7059 170.912L60.6419 171.2C60.6419 172.032 60.4899 172.749 60.1859 173.352C59.8873 173.955 59.4633 174.419 58.9139 174.744C58.3699 175.064 57.7273 175.224 56.9859 175.224ZM59.8659 175V172.688H59.7059V166.36H61.1379V175H59.8659ZM69.5298 175V170.672C69.5298 170.261 69.4925 169.867 69.4178 169.488C69.3485 169.109 69.2231 168.771 69.0418 168.472C68.8658 168.168 68.6258 167.928 68.3218 167.752C68.0231 167.576 67.6445 167.488 67.1858 167.488C66.8285 167.488 66.5031 167.549 66.2098 167.672C65.9218 167.789 65.6738 167.971 65.4658 168.216C65.2578 168.461 65.0951 168.771 64.9778 169.144C64.8658 169.512 64.8098 169.947 64.8098 170.448L63.8738 170.16C63.8738 169.323 64.0231 168.605 64.3218 168.008C64.6258 167.405 65.0498 166.944 65.5938 166.624C66.1431 166.299 66.7885 166.136 67.5298 166.136C68.0898 166.136 68.5671 166.224 68.9618 166.4C69.3565 166.576 69.6845 166.811 69.9458 167.104C70.2071 167.392 70.4125 167.717 70.5618 168.08C70.7111 168.437 70.8151 168.803 70.8738 169.176C70.9378 169.544 70.9698 169.893 70.9698 170.224V175H69.5298ZM63.3698 175V166.36H64.6498V168.672H64.8098V175H63.3698ZM76.6116 175.24C75.7369 175.24 74.9929 175.045 74.3796 174.656C73.7716 174.261 73.3076 173.72 72.9876 173.032C72.6676 172.344 72.5022 171.56 72.4916 170.68C72.5022 169.779 72.6702 168.987 72.9956 168.304C73.3262 167.616 73.7982 167.08 74.4116 166.696C75.0249 166.312 75.7636 166.12 76.6276 166.12C77.5396 166.12 78.3236 166.344 78.9796 166.792C79.6409 167.24 80.0836 167.853 80.3076 168.632L78.8996 169.056C78.7182 168.555 78.4222 168.165 78.0116 167.888C77.6062 167.611 77.1396 167.472 76.6116 167.472C76.0196 167.472 75.5316 167.611 75.1476 167.888C74.7636 168.16 74.4782 168.539 74.2916 169.024C74.1049 169.504 74.0089 170.056 74.0036 170.68C74.0142 171.64 74.2356 172.416 74.6676 173.008C75.1049 173.595 75.7529 173.888 76.6116 173.888C77.1769 173.888 77.6462 173.76 78.0196 173.504C78.3929 173.243 78.6756 172.867 78.8676 172.376L80.3076 172.752C80.0089 173.557 79.5422 174.173 78.9076 174.6C78.2729 175.027 77.5076 175.24 76.6116 175.24ZM88.0923 175V170.672C88.0923 170.261 88.055 169.867 87.9803 169.488C87.911 169.109 87.7856 168.771 87.6043 168.472C87.4283 168.168 87.1883 167.928 86.8843 167.752C86.5856 167.576 86.207 167.488 85.7483 167.488C85.391 167.488 85.0656 167.549 84.7723 167.672C84.4843 167.789 84.2363 167.971 84.0283 168.216C83.8203 168.461 83.6576 168.771 83.5403 169.144C83.4283 169.512 83.3723 169.947 83.3723 170.448L82.4363 170.16C82.4363 169.323 82.5856 168.605 82.8843 168.008C83.1883 167.405 83.6123 166.944 84.1563 166.624C84.7056 166.299 85.351 166.136 86.0923 166.136C86.6523 166.136 87.1296 166.224 87.5243 166.4C87.919 166.576 88.247 166.811 88.5083 167.104C88.7696 167.392 88.975 167.717 89.1243 168.08C89.2736 168.437 89.3776 168.803 89.4363 169.176C89.5003 169.544 89.5323 169.893 89.5323 170.224V175H88.0923ZM81.9323 175V163.48H83.2123V169.84H83.3723V175H81.9323ZM95.5802 175.24C94.7695 175.24 94.0869 175.04 93.5322 174.64C92.9775 174.235 92.5562 173.688 92.2682 173C91.9855 172.307 91.8442 171.531 91.8442 170.672C91.8442 169.803 91.9855 169.024 92.2682 168.336C92.5562 167.648 92.9775 167.107 93.5322 166.712C94.0922 166.317 94.7775 166.12 95.5882 166.12C96.3882 166.12 97.0762 166.32 97.6522 166.72C98.2335 167.115 98.6789 167.656 98.9882 168.344C99.2975 169.032 99.4522 169.808 99.4522 170.672C99.4522 171.536 99.2975 172.312 98.9882 173C98.6789 173.688 98.2335 174.235 97.6522 174.64C97.0762 175.04 96.3855 175.24 95.5802 175.24ZM91.6042 178.84V166.36H92.8762V172.72H93.0362V178.84H91.6042ZM95.4042 173.936C95.9749 173.936 96.4469 173.792 96.8202 173.504C97.1935 173.216 97.4735 172.827 97.6602 172.336C97.8469 171.84 97.9402 171.285 97.9402 170.672C97.9402 170.064 97.8469 169.515 97.6602 169.024C97.4789 168.533 97.1962 168.144 96.8122 167.856C96.4335 167.568 95.9509 167.424 95.3642 167.424C94.8042 167.424 94.3402 167.563 93.9722 167.84C93.6042 168.112 93.3295 168.493 93.1482 168.984C92.9669 169.469 92.8762 170.032 92.8762 170.672C92.8762 171.301 92.9642 171.864 93.1402 172.36C93.3215 172.851 93.5989 173.237 93.9722 173.52C94.3455 173.797 94.8229 173.936 95.4042 173.936ZM103.662 175.24C103.017 175.24 102.475 175.123 102.038 174.888C101.606 174.648 101.278 174.333 101.054 173.944C100.835 173.555 100.726 173.128 100.726 172.664C100.726 172.211 100.811 171.819 100.982 171.488C101.158 171.152 101.403 170.875 101.718 170.656C102.033 170.432 102.409 170.256 102.846 170.128C103.257 170.016 103.715 169.92 104.222 169.84C104.734 169.755 105.251 169.677 105.774 169.608C106.297 169.539 106.785 169.472 107.238 169.408L106.726 169.704C106.742 168.936 106.587 168.368 106.262 168C105.942 167.632 105.387 167.448 104.598 167.448C104.075 167.448 103.617 167.568 103.222 167.808C102.833 168.043 102.558 168.427 102.398 168.96L101.046 168.552C101.254 167.795 101.657 167.2 102.254 166.768C102.851 166.336 103.638 166.12 104.614 166.12C105.398 166.12 106.07 166.261 106.63 166.544C107.195 166.821 107.601 167.243 107.846 167.808C107.969 168.075 108.046 168.365 108.078 168.68C108.11 168.989 108.126 169.315 108.126 169.656V175H106.862V172.928L107.158 173.12C106.833 173.819 106.377 174.347 105.79 174.704C105.209 175.061 104.499 175.24 103.662 175.24ZM103.878 174.048C104.39 174.048 104.833 173.957 105.206 173.776C105.585 173.589 105.889 173.347 106.118 173.048C106.347 172.744 106.497 172.413 106.566 172.056C106.646 171.789 106.689 171.493 106.694 171.168C106.705 170.837 106.71 170.584 106.71 170.408L107.206 170.624C106.742 170.688 106.286 170.749 105.838 170.808C105.39 170.867 104.966 170.931 104.566 171C104.166 171.064 103.806 171.141 103.486 171.232C103.251 171.307 103.03 171.403 102.822 171.52C102.619 171.637 102.454 171.789 102.326 171.976C102.203 172.157 102.142 172.384 102.142 172.656C102.142 172.891 102.201 173.115 102.318 173.328C102.441 173.541 102.627 173.715 102.878 173.848C103.134 173.981 103.467 174.048 103.878 174.048ZM113.598 175.24C112.793 175.24 112.102 175.04 111.526 174.64C110.95 174.235 110.505 173.688 110.19 173C109.881 172.312 109.726 171.536 109.726 170.672C109.726 169.808 109.881 169.032 110.19 168.344C110.505 167.656 110.95 167.115 111.526 166.72C112.102 166.32 112.79 166.12 113.59 166.12C114.406 166.12 115.091 166.317 115.646 166.712C116.201 167.107 116.619 167.648 116.902 168.336C117.19 169.024 117.334 169.803 117.334 170.672C117.334 171.531 117.19 172.307 116.902 173C116.619 173.688 116.201 174.235 115.646 174.64C115.091 175.04 114.409 175.24 113.598 175.24ZM113.774 173.936C114.355 173.936 114.833 173.797 115.206 173.52C115.579 173.237 115.854 172.851 116.03 172.36C116.211 171.864 116.302 171.301 116.302 170.672C116.302 170.032 116.211 169.469 116.03 168.984C115.854 168.493 115.582 168.112 115.214 167.84C114.846 167.563 114.379 167.424 113.814 167.424C113.227 167.424 112.742 167.568 112.358 167.856C111.979 168.144 111.697 168.533 111.51 169.024C111.329 169.515 111.238 170.064 111.238 170.672C111.238 171.285 111.331 171.84 111.518 172.336C111.705 172.827 111.985 173.216 112.358 173.504C112.737 173.792 113.209 173.936 113.774 173.936ZM116.302 175V168.64H116.142V163.48H117.574V175H116.302Z" fill="black"/>
<rect y="281.728" width="108" height="40" rx="20" transform="rotate(-51.1902 0 281.728)" fill="#B7BEFF"/>
<path d="M39.8816 273.628L30.9048 266.408L33.6926 262.942C34.097 262.439 34.5536 262.084 35.0622 261.877C35.5708 261.67 36.0853 261.605 36.6057 261.681C37.1219 261.754 37.592 261.961 38.0159 262.302C38.498 262.69 38.8245 263.165 38.9954 263.726C39.1622 264.285 39.1445 264.839 38.9424 265.388L38.6269 265.155C39.2611 264.707 39.9197 264.483 40.6027 264.485C41.2857 264.487 41.9222 264.725 42.5124 265.2C43.0319 265.618 43.3921 266.089 43.5931 266.613C43.79 267.134 43.8298 267.676 43.7126 268.239C43.5953 268.802 43.3244 269.347 42.8999 269.875L39.8816 273.628ZM39.7446 271.998L41.8405 269.392C42.1346 269.027 42.3343 268.646 42.4394 268.252C42.5404 267.854 42.5372 267.475 42.4299 267.115C42.3259 266.751 42.1035 266.432 41.7627 266.157C41.4302 265.89 41.0692 265.726 40.6795 265.666C40.2899 265.606 39.9091 265.645 39.5373 265.784C39.1646 265.916 38.8429 266.15 38.5722 266.486L36.341 269.26L39.7446 271.998ZM35.4745 268.564L37.5151 266.026C37.7458 265.74 37.8919 265.426 37.9536 265.085C38.0112 264.742 37.9808 264.409 37.8625 264.088C37.7476 263.763 37.5405 263.48 37.2413 263.24C36.8174 262.899 36.3538 262.769 35.8505 262.85C35.3505 262.927 34.9184 263.192 34.554 263.645L32.5134 266.182L35.4745 268.564ZM46.0314 265.981L39.2989 260.566L39.9607 259.744L41.5815 261.047L41.2392 261.039C41.0999 260.804 40.9956 260.559 40.9263 260.305C40.8528 260.047 40.8189 259.804 40.8245 259.576C40.8111 259.278 40.8585 258.98 40.9667 258.684C41.0708 258.385 41.2119 258.111 41.3899 257.864C41.5638 257.614 41.7543 257.411 41.9613 257.256L42.8215 257.948C42.562 258.143 42.3318 258.4 42.1311 258.717C41.9304 259.035 41.8311 259.397 41.8334 259.802C41.8274 260.167 41.9019 260.504 42.0569 260.814C42.2077 261.12 42.4052 261.402 42.6494 261.66C42.8894 261.914 43.1424 262.149 43.4084 262.363L46.7685 265.065L46.0314 265.981ZM41.7347 254.921L40.7062 254.094L41.4432 253.177L42.4718 254.005L41.7347 254.921ZM49.7452 261.364L43.0127 255.949L43.7497 255.033L50.4823 260.448L49.7452 261.364ZM54.2733 256.117C53.7685 256.745 53.1815 257.155 52.5121 257.349C51.8386 257.54 51.1386 257.538 50.4119 257.344C49.6853 257.15 48.9853 256.782 48.3121 256.24C47.643 255.702 47.134 255.101 46.7851 254.437C46.4395 253.769 46.288 253.089 46.3306 252.398C46.3732 251.707 46.6419 251.054 47.1366 250.439C47.6447 249.807 48.2263 249.399 48.8815 249.214C49.5366 249.029 50.2209 249.042 50.9341 249.253C51.6466 249.456 52.3436 249.832 53.0252 250.38C53.6943 250.919 54.2104 251.515 54.5735 252.17C54.9324 252.821 55.0977 253.488 55.0692 254.17C55.0366 254.849 54.7713 255.498 54.2733 256.117ZM53.4944 255.337C53.8788 254.859 54.08 254.37 54.098 253.872C54.116 253.373 53.9831 252.883 53.6995 252.401C53.4118 251.917 53.0082 251.465 52.4887 251.047C51.9609 250.623 51.4336 250.325 50.9068 250.155C50.3758 249.981 49.8707 249.958 49.3914 250.086C48.9155 250.21 48.4887 250.506 48.111 250.976C47.7232 251.458 47.5208 251.952 47.5036 252.459C47.4865 252.965 47.6197 253.459 47.9033 253.94C48.1903 254.417 48.5872 254.86 49.0943 255.268C49.6054 255.679 50.1286 255.973 50.6637 256.15C51.198 256.32 51.7089 256.344 52.1965 256.223C52.6841 256.102 53.1167 255.806 53.4944 255.337ZM55.8612 253.76L50.7931 249.684L50.7128 249.783L46.8042 246.64L47.5463 245.717L56.523 252.937L55.8612 253.76ZM63.2599 251.071C62.9824 251.416 62.6564 251.715 62.2817 251.968C61.9146 252.22 61.5072 252.399 61.0597 252.505C60.6163 252.613 60.1431 252.623 59.6403 252.533L59.8458 251.333C60.3703 251.447 60.8489 251.401 61.2818 251.195C61.7221 250.987 62.0843 250.707 62.3684 250.354C62.7595 249.868 62.984 249.402 63.0418 248.955C63.1071 248.508 63.0183 248.074 62.7753 247.653C62.5324 247.231 62.1453 246.811 61.6142 246.39L59.8188 244.946L59.9041 244.84L55.0728 240.954L55.7297 240.138L62.3687 245.478C62.5599 245.631 62.7377 245.785 62.9022 245.938C63.0743 246.09 63.2338 246.249 63.3808 246.415C63.8201 246.898 64.1016 247.395 64.2252 247.905C64.3521 248.411 64.3325 248.929 64.1662 249.459C64.0032 249.985 63.7011 250.522 63.2599 251.071ZM60.2175 248.727C59.7128 249.354 59.1257 249.765 58.4564 249.959C57.7829 250.15 57.0828 250.148 56.3561 249.953C55.6295 249.759 54.9296 249.391 54.2563 248.85C53.5872 248.312 53.0782 247.711 52.7293 247.047C52.3837 246.379 52.2322 245.699 52.2748 245.008C52.3175 244.316 52.5861 243.663 53.0808 243.048C53.5889 242.417 54.1705 242.008 54.8257 241.823C55.4809 241.639 56.1651 241.652 56.8783 241.863C57.5908 242.066 58.2878 242.442 58.9694 242.99C59.6385 243.528 60.1546 244.125 60.5177 244.779C60.8766 245.431 61.0419 246.098 61.0135 246.78C60.9809 247.458 60.7155 248.107 60.2175 248.727ZM59.4387 247.946C59.8231 247.468 60.0242 246.98 60.0422 246.481C60.0602 245.982 59.9274 245.492 59.6438 245.011C59.356 244.526 58.9524 244.075 58.4329 243.657C57.9051 243.232 57.3778 242.935 56.851 242.765C56.32 242.591 55.8149 242.568 55.3357 242.696C54.8597 242.819 54.4329 243.116 54.0552 243.586C53.6675 244.068 53.465 244.562 53.4479 245.068C53.4307 245.575 53.5639 246.068 53.8475 246.55C54.1345 247.027 54.5315 247.469 55.0385 247.877C55.5496 248.288 56.0728 248.583 56.6079 248.76C57.1422 248.929 57.6531 248.954 58.1407 248.832C58.6283 248.711 59.0609 248.416 59.4387 247.946ZM66.3424 241.111C65.8143 241.768 65.2109 242.22 64.5323 242.469C63.8569 242.713 63.1484 242.755 62.4067 242.597C61.665 242.438 60.9388 242.073 60.2281 241.501C59.4925 240.91 58.962 240.268 58.6365 239.575C58.3109 238.881 58.1932 238.181 58.2834 237.473C58.3769 236.761 58.6843 236.081 59.2058 235.433C59.7406 234.768 60.3506 234.324 61.0359 234.102C61.717 233.877 62.4391 233.872 63.2024 234.089C63.9656 234.306 64.7337 234.742 65.5066 235.398L64.7545 236.333L64.4303 236.073C63.5442 235.387 62.7334 235.047 61.9979 235.051C61.2658 235.05 60.6223 235.395 60.0674 236.085C59.4858 236.808 59.2744 237.552 59.4331 238.316C59.5952 239.076 60.1105 239.805 60.9791 240.504C61.8269 241.186 62.6394 241.524 63.4165 241.52C64.1929 241.508 64.8651 241.148 65.4334 240.442C65.8211 239.96 66.0486 239.451 66.1158 238.917C66.1822 238.375 66.0891 237.831 65.8365 237.286L66.8538 236.697C67.2258 237.435 67.365 238.193 67.2713 238.974C67.1769 239.746 66.8672 240.459 66.3424 241.111ZM60.974 241.034L60.2072 240.417L64.3437 235.274L65.1105 235.891L60.974 241.034Z" fill="black"/>
<rect x="165" y="163.675" width="215" height="40" rx="20" transform="rotate(-29.4466 165 163.675)" fill="#B7BEFF"/>
<path d="M194.752 176.736L189.088 166.704L192.133 164.985C192.239 164.925 192.422 164.825 192.68 164.685C192.943 164.543 193.202 164.422 193.457 164.32C194.279 163.997 195.075 163.921 195.845 164.093C196.616 164.264 197.329 164.633 197.986 165.199C198.643 165.766 199.212 166.476 199.695 167.331C200.177 168.185 200.491 169.04 200.637 169.895C200.782 170.749 200.73 171.551 200.478 172.299C200.227 173.047 199.751 173.69 199.049 174.227C198.833 174.386 198.595 174.545 198.335 174.703C198.073 174.857 197.893 174.962 197.796 175.017L194.752 176.736ZM195.256 175.156L197.241 174.035C197.432 173.927 197.634 173.807 197.847 173.675C198.062 173.535 198.239 173.404 198.379 173.283C198.906 172.85 199.244 172.347 199.392 171.774C199.544 171.198 199.547 170.584 199.399 169.932C199.249 169.276 198.985 168.613 198.608 167.944C198.228 167.271 197.795 166.7 197.311 166.233C196.826 165.765 196.299 165.45 195.73 165.288C195.161 165.125 194.557 165.157 193.919 165.383C193.742 165.439 193.538 165.527 193.305 165.646C193.074 165.758 192.868 165.865 192.687 165.968L190.702 167.088L195.256 175.156ZM207.415 169.863C206.681 170.277 205.953 170.473 205.23 170.452C204.513 170.429 203.839 170.206 203.209 169.784C202.578 169.362 202.039 168.754 201.591 167.96C201.127 167.138 200.872 166.345 200.826 165.58C200.781 164.816 200.931 164.122 201.277 163.498C201.627 162.871 202.165 162.353 202.889 161.944C203.632 161.525 204.363 161.339 205.082 161.386C205.798 161.429 206.471 161.692 207.099 162.177C207.728 162.661 208.28 163.351 208.755 164.246L207.71 164.836L207.505 164.474C206.936 163.509 206.309 162.892 205.624 162.623C204.944 162.352 204.219 162.434 203.448 162.869C202.64 163.325 202.168 163.938 202.032 164.706C201.901 165.472 202.11 166.341 202.658 167.311C203.193 168.259 203.822 168.874 204.546 169.158C205.271 169.434 206.029 169.35 206.818 168.904C207.357 168.6 207.757 168.212 208.017 167.74C208.279 167.261 208.394 166.722 208.362 166.122L209.525 165.952C209.597 166.775 209.445 167.531 209.069 168.221C208.695 168.904 208.144 169.451 207.415 169.863ZM202.457 167.802L201.973 166.945L207.72 163.7L208.204 164.557L202.457 167.802ZM215.502 165.297C214.745 165.724 214.008 165.916 213.292 165.874C212.576 165.831 211.913 165.59 211.303 165.15C210.696 164.703 210.169 164.094 209.721 163.324C209.285 162.529 209.038 161.756 208.981 161.004C208.922 160.247 209.061 159.556 209.4 158.93C209.736 158.299 210.278 157.773 211.026 157.351C211.787 156.921 212.554 156.733 213.326 156.787C214.102 156.839 214.777 157.129 215.35 157.656L214.528 158.543C214.097 158.192 213.62 158.002 213.095 157.974C212.573 157.938 212.065 158.059 211.573 158.337C211.02 158.649 210.635 159.035 210.417 159.495C210.196 159.95 210.125 160.453 210.203 161.003C210.281 161.553 210.482 162.122 210.808 162.71C211.326 163.606 211.944 164.212 212.662 164.53C213.378 164.842 214.139 164.771 214.948 164.314C215.458 164.026 215.827 163.665 216.054 163.231C216.282 162.789 216.362 162.291 216.294 161.736L217.498 161.46C217.597 162.286 217.476 163.028 217.137 163.685C216.795 164.337 216.25 164.875 215.502 165.297ZM223.076 161.021C222.342 161.435 221.614 161.632 220.891 161.611C220.174 161.588 219.5 161.365 218.87 160.943C218.239 160.521 217.7 159.913 217.252 159.118C216.788 158.296 216.533 157.503 216.487 156.739C216.442 155.975 216.592 155.28 216.938 154.656C217.288 154.03 217.826 153.512 218.55 153.103C219.293 152.683 220.024 152.497 220.743 152.545C221.459 152.588 222.132 152.851 222.76 153.335C223.389 153.819 223.941 154.509 224.416 155.405L223.371 155.995L223.166 155.632C222.597 154.668 221.97 154.051 221.285 153.782C220.605 153.511 219.88 153.592 219.109 154.028C218.301 154.484 217.829 155.096 217.693 155.865C217.562 156.631 217.771 157.499 218.319 158.47C218.854 159.417 219.483 160.033 220.207 160.317C220.932 160.593 221.69 160.508 222.479 160.062C223.018 159.758 223.418 159.37 223.678 158.899C223.941 158.42 224.055 157.88 224.023 157.28L225.186 157.111C225.258 157.933 225.106 158.69 224.73 159.38C224.356 160.062 223.805 160.61 223.076 161.021ZM218.118 158.96L217.634 158.103L223.382 154.859L223.865 155.716L218.118 158.96ZM233.154 155.056L230.987 151.217C230.751 150.799 230.495 150.438 230.22 150.135C229.941 149.826 229.641 149.592 229.317 149.431C228.996 149.264 228.655 149.187 228.295 149.2C227.94 149.211 227.565 149.327 227.17 149.55C226.808 149.755 226.523 149.998 226.315 150.281C226.112 150.561 225.982 150.873 225.925 151.218C225.871 151.555 225.889 151.918 225.98 152.308C226.071 152.697 226.238 153.105 226.479 153.533L225.664 153.781C225.229 153.011 224.998 152.287 224.971 151.61C224.944 150.933 225.091 150.326 225.413 149.789C225.734 149.252 226.202 148.811 226.815 148.465C227.265 148.21 227.697 148.059 228.11 148.009C228.528 147.957 228.92 147.984 229.286 148.09C229.656 148.193 230 148.357 230.317 148.582C230.631 148.803 230.918 149.067 231.177 149.374C231.434 149.676 231.657 149.997 231.849 150.336L234.185 154.474L233.154 155.056ZM227.713 158.127L223.466 150.604L224.392 150.081L225.438 151.934L225.543 151.875L228.744 157.545L227.713 158.127ZM240.089 151.141C239.716 151.467 239.318 151.738 238.894 151.953C238.475 152.165 238.058 152.284 237.644 152.31C237.234 152.333 236.852 152.224 236.496 151.984C236.204 151.782 235.971 151.543 235.797 151.267C235.625 150.984 235.435 150.66 235.228 150.293L231.339 143.403L232.356 142.829L236.222 149.677C236.4 149.993 236.552 150.256 236.677 150.467C236.804 150.671 236.958 150.829 237.138 150.942C237.481 151.159 237.851 151.195 238.247 151.051C238.648 150.904 239.093 150.634 239.582 150.242L240.089 151.141ZM231.405 147.279L230.909 146.401L235.842 143.617L236.337 144.495L231.405 147.279ZM241.571 150.304L237.324 142.78L238.243 142.261L239.266 144.072L238.951 143.938C238.909 143.667 238.903 143.401 238.933 143.14C238.96 142.873 239.018 142.635 239.108 142.425C239.206 142.143 239.36 141.885 239.57 141.65C239.778 141.41 240.01 141.208 240.267 141.045C240.521 140.877 240.773 140.759 241.023 140.692L241.566 141.653C241.253 141.738 240.944 141.891 240.64 142.112C240.336 142.332 240.109 142.631 239.961 143.009C239.821 143.346 239.765 143.686 239.794 144.031C239.821 144.371 239.9 144.707 240.031 145.037C240.16 145.362 240.308 145.673 240.476 145.971L242.596 149.726L241.571 150.304ZM248.577 146.624C248.011 146.944 247.477 147.111 246.976 147.124C246.48 147.135 246.041 147.024 245.659 146.793C245.277 146.561 244.973 146.246 244.748 145.846C244.517 145.438 244.402 145.043 244.402 144.664C244.404 144.277 244.494 143.91 244.673 143.565C244.856 143.216 245.108 142.887 245.429 142.577C245.757 142.269 246.132 141.951 246.552 141.622C246.975 141.285 247.392 140.967 247.804 140.667C248.219 140.359 248.579 140.086 248.884 139.846L248.648 140.273C248.242 139.522 247.788 139.053 247.284 138.866C246.78 138.679 246.154 138.796 245.407 139.218C244.891 139.509 244.52 139.872 244.294 140.306C244.072 140.737 244.03 141.245 244.17 141.828L243.008 142.097C242.8 141.327 242.851 140.609 243.161 139.944C243.472 139.279 244.043 138.711 244.874 138.242C245.561 137.854 246.218 137.655 246.843 137.645C247.47 137.628 248.021 137.807 248.496 138.182C248.712 138.347 248.91 138.557 249.09 138.811C249.27 139.064 249.439 139.331 249.596 139.609L252.235 144.284L251.322 144.799L250.257 142.911L250.584 142.873C250.693 143.663 250.574 144.379 250.227 145.022C249.879 145.666 249.33 146.2 248.577 146.624ZM248.196 145.673C248.674 145.403 249.044 145.081 249.305 144.707C249.565 144.333 249.721 143.936 249.771 143.516C249.819 143.091 249.769 142.672 249.622 142.259C249.541 141.986 249.422 141.704 249.264 141.413C249.104 141.118 248.983 140.899 248.901 140.755L249.406 140.736C249.083 140.98 248.731 141.24 248.349 141.517C247.971 141.791 247.602 142.07 247.241 142.354C246.885 142.634 246.573 142.905 246.304 143.167C246.124 143.348 245.966 143.551 245.829 143.775C245.69 143.995 245.606 144.232 245.579 144.486C245.556 144.738 245.62 144.999 245.772 145.268C245.895 145.487 246.068 145.668 246.29 145.812C246.517 145.953 246.789 146.023 247.107 146.021C247.429 146.017 247.792 145.901 248.196 145.673ZM254.188 143.181L248.407 132.94L249.431 132.362L255.212 142.603L254.188 143.181ZM252.386 132.393L251.737 131.244L252.761 130.666L253.41 131.815L252.386 132.393ZM257.44 141.345L253.192 133.822L254.216 133.243L258.464 140.767L257.44 141.345ZM259.856 139.981L259.734 139.766L261.003 130.671L256.509 133.208L255.971 132.253L262.15 128.765L262.284 129.002L261.01 138.071L265.594 135.484L266.133 136.438L259.856 139.981ZM270.671 134.151C269.937 134.566 269.209 134.762 268.487 134.741C267.769 134.718 267.095 134.495 266.465 134.073C265.835 133.651 265.296 133.043 264.847 132.249C264.383 131.427 264.128 130.633 264.083 129.869C264.037 129.105 264.187 128.411 264.533 127.787C264.884 127.16 265.421 126.642 266.146 126.233C266.889 125.814 267.62 125.628 268.339 125.675C269.055 125.718 269.727 125.981 270.356 126.465C270.984 126.95 271.536 127.64 272.011 128.535L270.966 129.125L270.762 128.763C270.192 127.798 269.565 127.181 268.881 126.912C268.201 126.641 267.475 126.723 266.704 127.158C265.896 127.614 265.424 128.227 265.289 128.995C265.158 129.761 265.366 130.63 265.914 131.6C266.449 132.548 267.078 133.163 267.802 133.447C268.528 133.723 269.285 133.638 270.075 133.193C270.613 132.889 271.013 132.501 271.273 132.029C271.536 131.55 271.651 131.011 271.618 130.41L272.781 130.241C272.854 131.064 272.702 131.82 272.326 132.51C271.952 133.193 271.4 133.74 270.671 134.151ZM265.713 132.09L265.23 131.234L270.977 127.989L271.461 128.846L265.713 132.09ZM278.557 129.7C277.855 130.096 277.158 130.26 276.464 130.192C275.768 130.119 275.118 129.858 274.515 129.409C273.913 128.959 273.399 128.358 272.974 127.606C272.552 126.858 272.302 126.111 272.223 125.365C272.15 124.617 272.261 123.929 272.557 123.303C272.852 122.677 273.344 122.17 274.031 121.781C274.737 121.383 275.429 121.219 276.106 121.29C276.783 121.361 277.413 121.627 277.998 122.087C278.584 122.54 279.092 123.147 279.522 123.909C279.945 124.656 280.203 125.402 280.298 126.144C280.39 126.883 280.296 127.563 280.017 128.186C279.735 128.805 279.249 129.309 278.557 129.7ZM278.122 128.686C278.656 128.385 279.024 128.006 279.226 127.549C279.427 127.092 279.485 126.588 279.4 126.036C279.312 125.479 279.105 124.91 278.777 124.33C278.444 123.74 278.064 123.268 277.638 122.915C277.209 122.556 276.749 122.348 276.256 122.289C275.768 122.228 275.262 122.345 274.737 122.642C274.198 122.946 273.827 123.33 273.624 123.794C273.42 124.258 273.361 124.766 273.446 125.318C273.536 125.867 273.741 126.426 274.061 126.992C274.383 127.563 274.76 128.03 275.192 128.393C275.625 128.749 276.091 128.961 276.588 129.029C277.086 129.097 277.597 128.983 278.122 128.686ZM280.905 128.098L277.707 122.435L277.596 122.498L275.13 118.13L276.161 117.548L281.824 127.579L280.905 128.098ZM286.568 124.901L280.905 114.869L287.175 111.33L287.729 112.312L282.483 115.274L284.442 118.743L288.852 116.253L289.406 117.236L284.996 119.725L287.038 123.341L292.283 120.379L292.838 121.362L286.568 124.901ZM293.678 120.887L294.471 115.424L289.493 113.328L290.72 112.636L294.625 114.298L295.199 110.107L296.425 109.415L295.648 114.759L300.742 116.899L299.509 117.595L295.514 115.873L294.911 120.191L293.678 120.887ZM304.829 114.868C304.072 115.295 303.335 115.488 302.619 115.445C301.902 115.402 301.24 115.161 300.63 114.721C300.022 114.274 299.495 113.665 299.048 112.895C298.611 112.1 298.365 111.327 298.308 110.575C298.248 109.819 298.388 109.127 298.726 108.501C299.062 107.871 299.604 107.344 300.352 106.922C301.114 106.492 301.88 106.304 302.652 106.359C303.428 106.41 304.103 106.7 304.677 107.228L303.855 108.114C303.424 107.763 302.946 107.574 302.422 107.545C301.899 107.509 301.392 107.631 300.9 107.908C300.347 108.22 299.962 108.606 299.743 109.066C299.523 109.522 299.451 110.024 299.529 110.575C299.607 111.125 299.809 111.694 300.135 112.281C300.653 113.177 301.271 113.784 301.989 114.101C302.704 114.414 303.466 114.342 304.274 113.886C304.785 113.597 305.154 113.236 305.38 112.802C305.609 112.361 305.689 111.862 305.62 111.307L306.824 111.031C306.923 111.857 306.803 112.599 306.463 113.256C306.121 113.909 305.576 114.446 304.829 114.868ZM314.738 108.998L312.571 105.159C312.335 104.741 312.08 104.38 311.804 104.077C311.526 103.768 311.225 103.534 310.902 103.373C310.58 103.206 310.24 103.129 309.88 103.142C309.524 103.153 309.149 103.269 308.755 103.492C308.392 103.697 308.107 103.94 307.899 104.223C307.696 104.503 307.566 104.815 307.51 105.16C307.455 105.497 307.473 105.86 307.564 106.25C307.656 106.639 307.822 107.047 308.063 107.475L307.248 107.724C306.813 106.953 306.582 106.229 306.555 105.552C306.528 104.875 306.675 104.268 306.997 103.731C307.319 103.194 307.786 102.753 308.399 102.407C308.85 102.153 309.281 102.001 309.694 101.951C310.112 101.899 310.504 101.926 310.87 102.032C311.24 102.135 311.584 102.299 311.901 102.524C312.216 102.745 312.502 103.009 312.761 103.316C313.018 103.618 313.242 103.939 313.433 104.278L315.769 108.416L314.738 108.998ZM309.297 112.069L303.634 102.038L304.561 101.515L307.758 107.178L307.863 107.119L310.329 111.487L309.297 112.069ZM319.848 106.389C319.281 106.709 318.747 106.875 318.247 106.889C317.75 106.899 317.311 106.789 316.93 106.557C316.548 106.326 316.244 106.01 316.019 105.611C315.788 105.202 315.673 104.808 315.673 104.428C315.675 104.041 315.765 103.675 315.943 103.329C316.126 102.981 316.378 102.652 316.7 102.342C317.028 102.034 317.402 101.715 317.823 101.386C318.245 101.05 318.663 100.731 319.075 100.431C319.489 100.124 319.849 99.8501 320.155 99.6102L319.919 100.038C319.513 99.2867 319.058 98.8176 318.555 98.6305C318.051 98.4433 317.425 98.5607 316.677 98.9829C316.162 99.2739 315.791 99.6365 315.564 100.071C315.342 100.502 315.301 101.009 315.44 101.592L314.279 101.862C314.07 101.091 314.122 100.374 314.432 99.7085C314.742 99.0432 315.313 98.476 316.145 98.0067C316.832 97.6186 317.488 97.4196 318.113 97.4096C318.741 97.3924 319.292 97.5712 319.767 97.9461C319.983 98.112 320.181 98.3217 320.361 98.5754C320.541 98.829 320.709 99.0951 320.867 99.3738L323.506 104.048L322.593 104.564L321.527 102.676L321.855 102.638C321.964 103.427 321.845 104.144 321.497 104.787C321.15 105.43 320.6 105.964 319.848 106.389ZM319.467 105.437C319.945 105.167 320.315 104.845 320.575 104.472C320.836 104.098 320.991 103.701 321.042 103.28C321.09 102.855 321.04 102.436 320.893 102.023C320.812 101.75 320.693 101.469 320.535 101.178C320.374 100.883 320.253 100.663 320.172 100.519L320.676 100.501C320.354 100.744 320.002 101.004 319.619 101.281C319.242 101.556 318.872 101.835 318.512 102.118C318.156 102.399 317.843 102.67 317.575 102.932C317.395 103.113 317.237 103.315 317.1 103.54C316.961 103.759 316.877 103.996 316.849 104.251C316.826 104.503 316.891 104.763 317.043 105.033C317.166 105.251 317.339 105.432 317.561 105.576C317.788 105.718 318.06 105.788 318.377 105.786C318.7 105.782 319.063 105.665 319.467 105.437ZM330.753 99.9568L328.586 96.1183C328.35 95.7003 328.094 95.3394 327.819 95.0357C327.541 94.7273 327.24 94.4928 326.916 94.3324C326.595 94.1647 326.255 94.0875 325.895 94.1008C325.539 94.1116 325.164 94.2283 324.769 94.4512C324.407 94.6557 324.122 94.8993 323.914 95.182C323.711 95.4621 323.581 95.7744 323.524 96.1187C323.47 96.4558 323.488 96.8191 323.579 97.2085C323.671 97.598 323.837 98.0064 324.078 98.4336L323.263 98.6824C322.828 97.9115 322.597 97.1876 322.57 96.5107C322.543 95.8338 322.69 95.2269 323.012 94.6901C323.334 94.1533 323.801 93.7119 324.414 93.3658C324.864 93.1114 325.296 92.9596 325.709 92.9101C326.127 92.858 326.519 92.8849 326.885 92.9907C327.255 93.0938 327.599 93.258 327.916 93.4832C328.231 93.7038 328.517 93.9676 328.776 94.2746C329.033 94.5769 329.257 94.8976 329.448 95.2366L331.784 99.3748L330.753 99.9568ZM325.312 103.028L321.065 95.5046L321.991 94.9815L323.037 96.8346L323.142 96.7756L326.343 102.446L325.312 103.028ZM338.586 100.22C338.201 100.437 337.787 100.594 337.346 100.691C336.911 100.789 336.466 100.804 336.012 100.736C335.56 100.673 335.117 100.507 334.683 100.237L335.318 99.1987C335.763 99.4987 336.225 99.633 336.703 99.6018C337.189 99.5726 337.629 99.4465 338.024 99.2237C338.567 98.9169 338.949 98.5669 339.168 98.1738C339.394 97.7827 339.472 97.3465 339.403 96.8652C339.333 96.3839 339.129 95.8497 338.792 95.2625L337.659 93.2561L337.778 93.1892L334.73 87.7902L335.642 87.275L339.831 94.6943C339.951 94.908 340.06 95.1163 340.156 95.3192C340.259 95.5241 340.349 95.731 340.424 95.9398C340.653 96.5515 340.73 97.1172 340.656 97.6368C340.586 98.1538 340.376 98.6276 340.025 99.0584C339.679 99.4866 339.199 99.8738 338.586 100.22ZM336.629 96.9153C335.928 97.3112 335.23 97.4753 334.537 97.4075C333.84 97.3351 333.191 97.074 332.588 96.6243C331.985 96.1747 331.471 95.5736 331.046 94.8213C330.624 94.0735 330.374 93.3267 330.296 92.5807C330.222 91.8322 330.333 91.1447 330.629 90.5185C330.925 89.8922 331.416 89.3851 332.104 88.9971C332.81 88.5985 333.501 88.4348 334.178 88.5058C334.855 88.5768 335.486 88.8423 336.07 89.3025C336.657 89.7554 337.165 90.3627 337.595 91.1243C338.017 91.8721 338.275 92.6173 338.37 93.36C338.462 94.0981 338.369 94.7787 338.09 95.4017C337.808 96.0201 337.321 96.5246 336.629 96.9153ZM336.195 95.9019C336.729 95.6004 337.097 95.2212 337.298 94.7645C337.5 94.3078 337.558 93.8033 337.473 93.2512C337.385 92.6944 337.177 92.1257 336.849 91.5452C336.516 90.9553 336.137 90.4837 335.711 90.1302C335.282 89.772 334.821 89.5636 334.329 89.5048C333.841 89.4434 333.334 89.5608 332.81 89.8571C332.271 90.1612 331.9 90.5453 331.696 91.0093C331.493 91.4733 331.434 91.9814 331.519 92.5335C331.608 93.083 331.813 93.6411 332.133 94.2077C332.456 94.779 332.833 95.246 333.264 95.6088C333.697 95.9643 334.163 96.1761 334.661 96.2442C335.159 96.3122 335.67 96.1982 336.195 95.9019ZM345.139 92.1109C344.405 92.5251 343.677 92.7218 342.955 92.7008C342.237 92.6772 341.563 92.4544 340.933 92.0324C340.303 91.6104 339.764 91.0023 339.315 90.2081C338.851 89.3861 338.596 88.5929 338.551 87.8286C338.505 87.0643 338.655 86.3701 339.001 85.7461C339.352 85.1195 339.889 84.6017 340.614 84.1926C341.357 83.7731 342.088 83.5871 342.807 83.6345C343.523 83.6772 344.195 83.9407 344.824 84.4249C345.453 84.9091 346.004 85.599 346.479 86.4945L345.434 87.0845L345.23 86.7222C344.661 85.7574 344.034 85.1406 343.349 84.8717C342.669 84.6003 341.944 84.6822 341.173 85.1174C340.365 85.5736 339.893 86.186 339.757 86.9547C339.626 87.7207 339.835 88.5891 340.383 89.5597C340.917 90.5072 341.547 91.1227 342.27 91.4063C342.996 91.6826 343.753 91.5979 344.543 91.1522C345.082 90.848 345.481 90.4602 345.742 89.9885C346.004 89.5096 346.119 88.9701 346.086 88.3699L347.249 88.2003C347.322 89.023 347.17 89.7793 346.794 90.4693C346.42 91.152 345.868 91.6992 345.139 92.1109ZM340.182 90.0499L339.698 89.193L345.445 85.9483L345.929 86.8052L340.182 90.0499Z" fill="black"/>
<rect x="130" y="123.024" width="158" height="40" rx="20" transform="rotate(-28.7616 130 123.024)" fill="#832CF1"/>
<path d="M174.125 128.738C173.12 129.289 172.15 129.533 171.214 129.469C170.276 129.4 169.412 129.068 168.623 128.472C167.834 127.877 167.156 127.063 166.589 126.03C166.021 124.997 165.699 123.987 165.62 123.002C165.542 122.017 165.727 121.113 166.175 120.289C166.621 119.46 167.346 118.77 168.351 118.218C169.525 117.574 170.649 117.349 171.723 117.544C172.795 117.735 173.746 118.259 174.576 119.118L173.674 119.969C173.02 119.287 172.287 118.865 171.474 118.703C170.661 118.541 169.801 118.709 168.894 119.207C168.104 119.641 167.546 120.181 167.22 120.829C166.894 121.476 166.775 122.195 166.862 122.987C166.952 123.771 167.223 124.587 167.676 125.433C168.133 126.277 168.668 126.948 169.282 127.445C169.9 127.939 170.573 128.223 171.301 128.298C172.032 128.366 172.792 128.182 173.583 127.749C174.49 127.251 175.093 126.616 175.393 125.843C175.69 125.065 175.728 124.22 175.507 123.307L176.709 123.003C176.987 124.164 176.92 125.251 176.508 126.262C176.093 127.268 175.299 128.093 174.125 128.738ZM179.961 125.261L175.804 117.686L176.73 117.178L177.731 119.002L177.417 118.863C177.378 118.593 177.375 118.327 177.408 118.065C177.439 117.799 177.5 117.562 177.592 117.353C177.694 117.072 177.851 116.815 178.064 116.583C178.274 116.346 178.509 116.147 178.768 115.987C179.024 115.822 179.277 115.707 179.528 115.642L180.059 116.61C179.745 116.692 179.434 116.841 179.128 117.058C178.821 117.275 178.591 117.571 178.438 117.947C178.294 118.282 178.234 118.622 178.259 118.967C178.282 119.308 178.357 119.644 178.484 119.975C178.609 120.302 178.753 120.615 178.917 120.915L180.992 124.695L179.961 125.261ZM187.847 125.312L187.131 120.531L187.798 121.698L180.012 115.377L181.106 114.776L187.565 120.092L187.116 120.339L185.889 112.151L186.941 111.574L188.878 124.747L187.847 125.312ZM195.833 116.823C195.136 117.205 194.451 117.353 193.777 117.267C193.101 117.176 192.473 116.897 191.894 116.429C191.313 115.958 190.815 115.345 190.402 114.593C189.981 113.826 189.731 113.075 189.65 112.341C189.571 111.599 189.68 110.922 189.976 110.309C190.273 109.696 190.776 109.195 191.487 108.805C192.179 108.425 192.869 108.274 193.557 108.353C194.245 108.431 194.885 108.7 195.478 109.16C196.076 109.617 196.581 110.222 196.994 110.974C197.41 111.732 197.65 112.485 197.715 113.234C197.779 113.984 197.659 114.673 197.354 115.303C197.046 115.929 196.539 116.435 195.833 116.823ZM194.157 121.849L188.152 110.909L189.078 110.401L192.207 116.102L192.319 116.041L195.195 121.279L194.157 121.849ZM195.201 115.919C195.729 115.629 196.095 115.255 196.3 114.796C196.504 114.337 196.567 113.831 196.488 113.278C196.412 112.718 196.216 112.15 195.9 111.575C195.587 111.004 195.218 110.538 194.794 110.174C194.37 109.811 193.906 109.594 193.405 109.522C192.908 109.448 192.388 109.56 191.846 109.858C191.318 110.148 190.949 110.518 190.739 110.967C190.534 111.414 190.471 111.914 190.55 112.467C190.626 113.016 190.827 113.587 191.153 114.181C191.473 114.765 191.847 115.241 192.274 115.609C192.699 115.972 193.158 116.189 193.653 116.258C194.147 116.327 194.663 116.215 195.201 115.919ZM204.741 111.66C204.364 111.982 203.962 112.248 203.536 112.458C203.114 112.665 202.696 112.779 202.282 112.799C201.872 112.817 201.49 112.704 201.137 112.46C200.848 112.254 200.618 112.012 200.447 111.735C200.279 111.45 200.093 111.123 199.89 110.754L196.083 103.818L197.107 103.256L200.891 110.15C201.066 110.467 201.214 110.733 201.337 110.945C201.462 111.15 201.613 111.311 201.792 111.425C202.132 111.646 202.502 111.687 202.9 111.548C203.302 111.406 203.75 111.141 204.244 110.755L204.741 111.66ZM196.103 107.694L195.618 106.811L200.583 104.086L201.068 104.969L196.103 107.694ZM209.237 109.465C208.484 109.878 207.748 110.061 207.028 110.012C206.307 109.963 205.639 109.715 205.023 109.269C204.407 108.822 203.884 108.209 203.456 107.428C203.019 106.633 202.782 105.857 202.743 105.099C202.705 104.342 202.861 103.651 203.212 103.026C203.564 102.394 204.11 101.876 204.849 101.47C205.606 101.055 206.345 100.871 207.066 100.92C207.788 100.961 208.455 101.207 209.067 101.656C209.68 102.098 210.201 102.709 210.63 103.49C211.066 104.285 211.307 105.062 211.353 105.822C211.396 106.577 211.242 107.27 210.889 107.902C210.536 108.533 209.985 109.055 209.237 109.465ZM208.694 108.476C209.536 108.014 210.01 107.392 210.116 106.61C210.219 105.823 210.026 104.983 209.536 104.09C209.033 103.174 208.425 102.559 207.711 102.245C207.002 101.928 206.229 102 205.392 102.459C204.826 102.77 204.429 103.155 204.201 103.615C203.975 104.067 203.895 104.571 203.962 105.124C204.03 105.67 204.226 106.238 204.55 106.827C205.05 107.739 205.662 108.355 206.386 108.676C207.107 108.992 207.876 108.925 208.694 108.476ZM218.68 104.008L212.205 97.6974L213.24 97.1386L218.265 102.037L216.837 95.1639L217.777 94.6481L222.809 99.5427L221.389 92.6657L222.413 92.1037L224.256 100.948L223.358 101.441L218.154 96.4489L219.578 103.516L218.68 104.008ZM229.691 98.2383C229.121 98.5514 228.585 98.7115 228.084 98.7188C227.588 98.7235 227.15 98.6079 226.771 98.3718C226.392 98.1357 226.092 97.8166 225.872 97.4145C225.646 97.0031 225.535 96.6075 225.54 96.2278C225.546 95.8409 225.641 95.4757 225.824 95.1321C226.011 94.786 226.267 94.4599 226.592 94.1539C226.924 93.8499 227.302 93.5359 227.726 93.2117C228.153 92.8802 228.574 92.5669 228.99 92.2717C229.408 91.9692 229.771 91.6999 230.08 91.4637L229.838 91.8883C229.441 91.1325 228.992 90.6581 228.491 90.4649C227.989 90.2717 227.362 90.3816 226.61 90.7948C226.091 91.0797 225.715 91.4378 225.484 91.8691C225.257 92.2979 225.209 92.8046 225.341 93.3891L224.177 93.645C223.978 92.8721 224.037 92.1549 224.356 91.4935C224.674 90.8321 225.252 90.2717 226.089 89.8123C226.781 89.4325 227.439 89.2413 228.064 89.2388C228.692 89.2291 229.241 89.4145 229.711 89.7951C229.925 89.9635 230.121 90.1756 230.298 90.4314C230.475 90.6871 230.64 90.9553 230.794 91.2358L233.377 95.9416L232.458 96.4458L231.415 94.5453L231.743 94.5112C231.843 95.3022 231.715 96.0172 231.36 96.6562C231.005 97.2952 230.449 97.8226 229.691 98.2383ZM229.322 97.2822C229.803 97.0179 230.177 96.7004 230.442 96.3298C230.707 95.9592 230.867 95.564 230.922 95.1442C230.975 94.7197 230.931 94.3001 230.788 93.8855C230.711 93.6116 230.595 93.3284 230.441 93.036C230.284 92.7388 230.165 92.5178 230.086 92.3729L230.59 92.3607C230.265 92.5999 229.91 92.8558 229.524 93.1284C229.143 93.3984 228.77 93.6729 228.406 93.9518C228.047 94.2281 227.731 94.4956 227.46 94.7543C227.278 94.9331 227.117 95.1338 226.978 95.3564C226.836 95.5742 226.749 95.8103 226.719 96.0645C226.693 96.3161 226.754 96.5775 226.903 96.8487C227.023 97.0684 227.194 97.2516 227.414 97.3983C227.639 97.5424 227.911 97.6156 228.228 97.6177C228.55 97.6173 228.915 97.5055 229.322 97.2822ZM235.343 94.8625L229.684 84.5533L230.715 83.9875L236.374 94.2966L235.343 94.8625ZM238.617 93.0656L232.958 82.7565L233.989 82.1906L239.647 92.4998L238.617 93.0656ZM245.07 89.797C244.332 90.2025 243.601 90.3904 242.879 90.3608C242.162 90.3286 241.491 90.0978 240.866 89.6683C240.241 89.2387 239.709 88.6242 239.27 87.8247C238.816 86.9972 238.57 86.201 238.534 85.4362C238.497 84.6714 238.656 83.9791 239.009 83.3593C239.367 82.7369 239.911 82.2256 240.64 81.8252C241.388 81.4146 242.121 81.2373 242.839 81.2933C243.555 81.3446 244.224 81.6161 244.847 82.1078C245.47 82.5995 246.013 83.2959 246.478 84.1971L245.426 84.7745L245.225 84.4098C244.668 83.4382 244.048 82.814 243.367 82.537C242.69 82.2574 241.964 82.3306 241.188 82.7566C240.374 83.2031 239.895 83.8099 239.75 84.5768C239.61 85.3412 239.808 86.212 240.345 87.1892C240.868 88.1429 241.49 88.7659 242.21 89.0582C242.932 89.3431 243.691 89.2675 244.486 88.8312C245.028 88.5336 245.432 88.1505 245.698 87.682C245.966 87.2063 246.088 86.6681 246.062 86.0676L247.227 85.9119C247.29 86.7354 247.129 87.4899 246.745 88.1753C246.363 88.8535 245.804 89.3941 245.07 89.797ZM240.138 87.6769L239.664 86.8143L245.45 83.6386L245.923 84.5012L240.138 87.6769ZM254.078 84.5789C253.702 84.9013 253.3 85.1673 252.874 85.377C252.452 85.5841 252.034 85.698 251.619 85.7187C251.21 85.7368 250.828 85.6237 250.475 85.3795C250.185 85.1734 249.955 84.9316 249.785 84.6541C249.616 84.3694 249.431 84.0423 249.228 83.673L245.421 76.7371L246.445 76.1751L250.229 83.0689C250.403 83.3868 250.552 83.652 250.675 83.8645C250.8 84.0698 250.951 84.2298 251.13 84.3447C251.47 84.5656 251.839 84.6063 252.237 84.4669C252.64 84.325 253.088 84.0607 253.582 83.6742L254.078 84.5789ZM245.441 80.6138L244.956 79.7302L249.921 77.0048L250.406 77.8885L245.441 80.6138Z" fill="white"/>
<rect x="316.284" y="144" width="93" height="40" rx="20" transform="rotate(45 316.284 144)" fill="#AB40FF"/>
<path d="M320.087 184.572L328.233 176.426L330.745 178.938C330.827 179.021 330.971 179.168 331.174 179.379C331.378 179.59 331.561 179.803 331.723 180.018C332.27 180.731 332.566 181.487 332.611 182.287C332.664 183.086 332.509 183.882 332.147 184.674C331.785 185.466 331.257 186.209 330.563 186.903C329.87 187.597 329.127 188.125 328.335 188.487C327.543 188.849 326.745 189.005 325.942 188.956C325.146 188.907 324.392 188.609 323.679 188.062C323.468 187.896 323.253 187.712 323.034 187.508C322.823 187.304 322.678 187.163 322.599 187.084L320.087 184.572ZM322.084 184.646L323.56 186.122C323.704 186.265 323.868 186.422 324.052 186.592C324.241 186.758 324.413 186.895 324.567 187.005C325.095 187.367 325.642 187.54 326.208 187.525C326.773 187.51 327.337 187.35 327.899 187.044C328.461 186.739 328.993 186.335 329.494 185.834C330.007 185.321 330.415 184.781 330.716 184.216C331.022 183.654 331.18 183.092 331.191 182.53C331.203 181.968 331.027 181.427 330.665 180.906C330.56 180.748 330.42 180.575 330.247 180.386C330.073 180.197 329.919 180.035 329.783 179.9L328.306 178.423L322.084 184.646ZM330.266 195.09C329.666 194.49 329.274 193.834 329.089 193.121C328.912 192.409 328.936 191.69 329.162 190.966C329.392 190.238 329.826 189.556 330.464 188.918C331.131 188.251 331.831 187.796 332.562 187.555C333.298 187.31 334.016 187.274 334.717 187.448C335.426 187.621 336.077 188.004 336.669 188.596C337.284 189.211 337.665 189.874 337.812 190.587C337.963 191.304 337.883 192.032 337.574 192.771C337.269 193.514 336.739 194.232 335.985 194.926L334.966 193.908L335.328 193.546C336.068 192.784 336.475 192.071 336.55 191.407C336.629 190.74 336.379 190.116 335.798 189.535C335.176 188.913 334.503 188.639 333.778 188.715C333.054 188.79 332.319 189.201 331.572 189.948C330.852 190.668 330.456 191.389 330.384 192.109C330.313 192.829 330.577 193.489 331.176 194.089C331.58 194.492 332.023 194.751 332.506 194.864C332.988 194.977 333.488 194.945 334.005 194.768L334.638 196.069C333.861 196.37 333.085 196.431 332.308 196.25C331.538 196.069 330.858 195.682 330.266 195.09ZM330.95 189.891L331.759 189.082L336.273 193.597L335.464 194.406L330.95 189.891ZM334.472 198.957L342.618 190.811L347.37 195.563L346.363 196.57L342.618 192.825L340.056 195.388L343.122 198.454L342.115 199.461L339.049 196.395L335.479 199.964L334.472 198.957ZM347.543 197.648L348.583 196.607L349.59 197.614L348.549 198.655L347.543 197.648ZM340.353 204.838L346.462 198.728L347.469 199.735L341.36 205.845L340.353 204.838Z" fill="white"/>
<rect x="233.353" width="116" height="40" rx="20" transform="rotate(15 233.353 0)" fill="#AB40FF"/>
<path d="M261.232 34.6358C260.469 34.4315 259.81 34.1112 259.253 33.6749C258.696 33.2386 258.258 32.7099 257.939 32.0887C257.621 31.4624 257.433 30.7606 257.376 29.9834C257.326 29.2025 257.421 28.3638 257.661 27.4674C257.979 26.2826 258.465 25.314 259.119 24.5617C259.773 23.8094 260.547 23.3017 261.44 23.0386C262.335 22.7703 263.3 22.7749 264.336 23.0524C265.582 23.3864 266.509 23.9467 267.115 24.7331C267.723 25.5144 268.037 26.4459 268.056 27.5278L266.588 27.441C266.537 26.704 266.3 26.0635 265.877 25.5195C265.455 24.9755 264.846 24.5973 264.053 24.3847C263.225 24.1573 262.485 24.1578 261.833 24.3861C261.188 24.6107 260.635 25.0232 260.176 25.6235C259.717 26.2238 259.366 26.9689 259.122 27.8588C258.879 28.7435 258.807 29.5579 258.906 30.3022C259.005 31.0464 259.279 31.683 259.728 32.2119C260.183 32.7371 260.825 33.1134 261.653 33.3407C262.368 33.5378 263.007 33.5627 263.571 33.4157C264.135 33.2686 264.621 32.9683 265.03 32.5146C265.439 32.0609 265.77 31.4733 266.024 30.7518L263.66 30.1182L263.964 28.9823L267.781 30.0052C267.769 30.1123 267.744 30.238 267.705 30.3823C267.673 30.5228 267.65 30.6188 267.636 30.6703C267.364 31.6851 266.93 32.5433 266.334 33.2448C265.744 33.9426 265.016 34.4213 264.152 34.681C263.292 34.9421 262.319 34.927 261.232 34.6358ZM270.132 37.0205C269.508 36.8535 269.016 36.6 268.654 36.2602C268.299 35.9165 268.064 35.5277 267.948 35.0937C267.838 34.661 267.842 34.2206 267.962 33.7724C268.08 33.3345 268.264 32.9779 268.514 32.7027C268.771 32.4237 269.08 32.2193 269.44 32.0895C269.802 31.9546 270.211 31.8819 270.667 31.8715C271.092 31.8696 271.56 31.8956 272.07 31.9494C272.587 31.9995 273.107 32.0587 273.629 32.127C274.152 32.1953 274.641 32.2572 275.095 32.3127L274.524 32.4661C274.738 31.7285 274.736 31.1398 274.517 30.7001C274.303 30.2618 273.815 29.9405 273.052 29.7363C272.548 29.601 272.074 29.5982 271.63 29.7279C271.193 29.8538 270.829 30.1536 270.536 30.6273L269.336 29.8833C269.733 29.2056 270.276 28.7354 270.964 28.4728C271.653 28.2101 272.469 28.205 273.412 28.4576C274.169 28.6606 274.781 28.971 275.249 29.389C275.724 29.8032 276.006 30.3151 276.097 30.9246C276.146 31.214 276.146 31.5147 276.095 31.827C276.046 32.134 275.977 32.4524 275.889 32.7821L274.506 37.944L273.285 37.6169L273.821 35.6155L274.057 35.8776C273.562 36.4682 272.985 36.8602 272.326 37.0535C271.672 37.2482 270.94 37.2372 270.132 37.0205ZM270.649 35.925C271.143 36.0575 271.594 36.0845 272.002 36.006C272.416 35.9237 272.772 35.768 273.071 35.5388C273.372 35.3046 273.601 35.0238 273.761 34.6966C273.907 34.4597 274.025 34.1848 274.114 33.872C274.21 33.5553 274.281 33.312 274.326 33.142L274.75 33.479C274.285 33.4208 273.829 33.362 273.381 33.3027C272.933 33.2434 272.507 33.1955 272.102 33.1589C271.699 33.1172 271.332 33.0988 270.999 33.1035C270.753 33.1149 270.514 33.1503 270.283 33.2098C270.057 33.2707 269.858 33.3748 269.686 33.5219C269.521 33.6653 269.403 33.8684 269.332 34.1311C269.272 34.3578 269.27 34.5894 269.328 34.8258C269.392 35.0636 269.527 35.2793 269.735 35.473C269.947 35.6681 270.252 35.8187 270.649 35.925ZM286.491 41.1555L287.929 35.8179C288.096 35.1946 288.059 34.6629 287.818 34.2228C287.584 33.779 287.201 33.486 286.671 33.3439C286.362 33.261 286.049 33.2545 285.732 33.3242C285.416 33.3887 285.13 33.5495 284.874 33.8065C284.619 34.0584 284.428 34.4187 284.303 34.8875L283.655 34.3992C283.803 33.804 284.063 33.3187 284.434 32.9433C284.812 32.5642 285.255 32.3103 285.765 32.1817C286.274 32.0532 286.807 32.0634 287.363 32.2125C288.234 32.4458 288.848 32.8947 289.205 33.5592C289.564 34.2186 289.624 34.9939 289.386 35.8851L287.866 41.524L286.491 41.1555ZM276.507 38.4803L278.743 30.1347L279.972 30.4639L279.374 32.6972L279.528 32.7386L277.89 38.8509L276.507 38.4803ZM281.507 39.82L282.931 34.5365C283.102 33.8977 283.071 33.3538 282.838 32.9049C282.606 32.4507 282.217 32.1505 281.671 32.0042C281.13 31.8593 280.643 31.9274 280.208 32.2086C279.774 32.4898 279.475 32.9369 279.311 33.5499L278.7 32.9226C278.845 32.3817 279.104 31.9319 279.476 31.5733C279.848 31.2148 280.288 30.9738 280.796 30.8504C281.305 30.7218 281.841 30.7328 282.402 30.8832C282.964 31.0337 283.421 31.2833 283.775 31.6321C284.129 31.9809 284.36 32.4072 284.468 32.9109C284.577 33.4095 284.55 33.9628 284.387 34.5707L282.874 40.1864L281.507 39.82ZM293.366 43.246C292.547 43.0266 291.879 42.6544 291.362 42.1295C290.853 41.6008 290.515 40.9664 290.348 40.2262C290.184 39.4809 290.218 38.6729 290.451 37.8022C290.696 36.8904 291.074 36.1471 291.587 35.5722C292.102 34.9923 292.706 34.602 293.4 34.4015C294.101 34.1973 294.855 34.2035 295.664 34.4202C296.504 34.6452 297.166 35.0296 297.649 35.5733C298.138 36.1184 298.434 36.7884 298.536 37.5831C298.642 38.3793 298.543 39.2664 298.237 40.2444L296.846 39.8717L296.978 39.3772C297.237 38.3479 297.234 37.5269 296.967 36.9144C296.702 36.2967 296.173 35.8816 295.379 35.669C294.529 35.4413 293.81 35.5411 293.22 35.9684C292.631 36.3958 292.2 37.1195 291.926 38.1395C291.663 39.1234 291.68 39.9452 291.978 40.6049C292.276 41.2645 292.835 41.7041 293.654 41.9235C294.205 42.0712 294.718 42.0734 295.193 41.93C295.667 41.7866 296.084 41.509 296.443 41.0972L297.642 41.9072C297.12 42.5569 296.477 42.9976 295.714 43.2293C294.957 43.4572 294.174 43.4627 293.366 43.246ZM291.359 38.4016L291.655 37.2966L297.822 38.9489L297.526 40.0539L291.359 38.4016ZM298.942 44.4918L301.924 33.3644L308.415 35.1036L308.046 36.4791L302.931 35.1084L301.993 38.6089L306.181 39.7312L305.813 41.1066L301.624 39.9844L300.318 44.8604L298.942 44.4918ZM309.607 36.8227L309.988 35.4009L311.363 35.7694L310.982 37.1913L309.607 36.8227ZM306.975 46.6442L309.211 38.2986L310.587 38.6672L308.351 47.0128L306.975 46.6442Z" fill="white"/>
<rect x="21" y="98.9404" width="135" height="40" rx="20" transform="rotate(-15 21 98.9404)" fill="white"/>
<path d="M58.2492 115.877L55.2676 104.749L59.6645 103.571C59.7727 103.542 59.9029 103.513 60.055 103.483C60.2058 103.448 60.3542 103.425 60.5002 103.413C61.1278 103.345 61.6878 103.415 62.1804 103.626C62.6781 103.835 63.0956 104.156 63.4328 104.59C63.7686 105.02 64.0159 105.53 64.1746 106.123C64.332 106.71 64.3706 107.277 64.2905 107.823C64.2142 108.362 64.0135 108.849 63.6883 109.284C63.3669 109.713 62.9199 110.053 62.3471 110.306C62.2135 110.364 62.0734 110.418 61.9268 110.469C61.7802 110.519 61.6528 110.559 61.5446 110.588L58.5232 111.397L59.6247 115.508L58.2492 115.877ZM58.1732 110.091L61.1483 109.294C61.2462 109.268 61.3555 109.233 61.4764 109.19C61.6025 109.145 61.7187 109.094 61.8251 109.038C62.1585 108.86 62.407 108.634 62.5705 108.358C62.7378 108.076 62.8336 107.774 62.858 107.453C62.881 107.126 62.851 106.809 62.7682 106.5C62.6854 106.19 62.5531 105.903 62.3714 105.637C62.1883 105.366 61.9538 105.15 61.6677 104.989C61.3869 104.827 61.0583 104.755 60.6822 104.773C60.5606 104.772 60.4347 104.786 60.3045 104.816C60.1781 104.839 60.066 104.863 59.9681 104.889L56.993 105.687L58.1732 110.091ZM67.9121 113.287L64.8684 101.928L66.2439 101.56L69.2876 112.919L67.9121 113.287ZM74.0406 111.894C73.4172 112.061 72.864 112.088 72.3808 111.974C71.9014 111.854 71.5032 111.635 71.186 111.317C70.874 110.998 70.658 110.614 70.5379 110.166C70.4206 109.728 70.4015 109.327 70.4808 108.963C70.5639 108.593 70.7291 108.262 70.9764 107.969C71.2224 107.671 71.54 107.404 71.9293 107.167C72.297 106.953 72.7152 106.741 73.1839 106.533C73.6564 106.318 74.136 106.109 74.623 105.907C75.1099 105.705 75.564 105.514 75.9853 105.335L75.5674 105.753C75.384 105.007 75.0876 104.499 74.6781 104.228C74.2738 103.955 73.6904 103.921 72.928 104.125C72.4231 104.26 72.0111 104.495 71.692 104.829C71.3767 105.156 71.2108 105.598 71.1943 106.155L69.7827 106.111C69.7876 105.325 70.0227 104.647 70.4878 104.075C70.953 103.503 71.657 103.091 72.5997 102.838C73.357 102.635 74.0427 102.598 74.6568 102.726C75.2746 102.848 75.7752 103.15 76.1585 103.632C76.346 103.858 76.4959 104.119 76.6083 104.414C76.7192 104.705 76.8189 105.015 76.9072 105.345L78.2904 110.507L77.0694 110.834L76.5332 108.832L76.8688 108.941C76.7353 109.7 76.4315 110.328 75.9574 110.825C75.4883 111.321 74.8494 111.677 74.0406 111.894ZM73.9407 110.687C74.4353 110.554 74.8394 110.352 75.1531 110.08C75.4705 109.802 75.7014 109.489 75.8456 109.141C75.9884 108.788 76.0471 108.43 76.0216 108.067C76.0298 107.788 75.9944 107.491 75.9154 107.176C75.8401 106.854 75.7797 106.608 75.7341 106.438L76.2691 106.518C75.8375 106.7 75.4129 106.877 74.9954 107.05C74.5778 107.222 74.1848 107.394 73.8164 107.564C73.4466 107.73 73.1189 107.898 72.8332 108.068C72.6259 108.201 72.4369 108.351 72.2664 108.518C72.101 108.684 71.9807 108.873 71.9053 109.087C71.8338 109.294 71.8332 109.529 71.9036 109.791C71.9643 110.018 72.079 110.219 72.2475 110.395C72.4212 110.569 72.6464 110.688 72.923 110.752C73.2048 110.815 73.544 110.793 73.9407 110.687ZM81.9846 113.492L82.4235 108.67L82.7946 109.962L76.7454 101.976L78.1904 101.589L82.9814 108.032L82.4868 108.165L83.2364 100.237L84.6351 99.8618L83.3214 113.134L81.9846 113.492ZM87.8365 107.94L87.5129 106.702L91.2602 100.936C91.5729 100.454 91.7546 100.03 91.8054 99.6632C91.8599 99.2897 91.8402 98.9278 91.7464 98.5775C91.6318 98.1499 91.4304 97.7898 91.1422 97.4971C90.8539 97.2044 90.5129 97.0031 90.119 96.8933C89.7303 96.7821 89.3222 96.7838 88.8946 96.8984C88.4516 97.0171 88.0858 97.2283 87.7972 97.532C87.5073 97.8305 87.3081 98.1793 87.1997 98.5783C87.0964 98.9759 87.1018 99.3775 87.216 99.7831L85.8097 100.16C85.6219 99.4593 85.6186 98.7977 85.7995 98.1749C85.9792 97.5471 86.3064 97.0066 86.7814 96.5536C87.2601 96.094 87.8549 95.769 88.5658 95.5785C89.2561 95.3935 89.9171 95.3876 90.5488 95.5607C91.179 95.7286 91.7244 96.0435 92.185 96.5054C92.6494 96.9607 92.9733 97.531 93.1569 98.2161C93.2867 98.7004 93.3373 99.1368 93.3089 99.5254C93.2857 99.9126 93.1886 100.292 93.0176 100.664C92.8452 101.03 92.614 101.434 92.3239 101.876L89.2083 106.662L88.9063 106.246L94.8796 104.645L95.2316 105.959L87.8365 107.94ZM97.0824 105.471L94.1009 94.3439L101.133 92.4597L101.483 93.7656L95.8263 95.2812L96.7601 98.7663L101.489 97.4991L101.839 98.805L97.11 100.072L98.108 103.797L103.764 102.281L104.114 103.587L97.0824 105.471ZM108.406 102.686C107.783 102.853 107.23 102.879 106.747 102.766C106.267 102.646 105.869 102.427 105.552 102.109C105.24 101.789 105.024 101.405 104.904 100.957C104.786 100.519 104.767 100.119 104.847 99.755C104.93 99.3849 105.095 99.0535 105.342 98.7609C105.588 98.4631 105.906 98.1958 106.295 97.9589C106.663 97.7445 107.081 97.533 107.55 97.3246C108.022 97.1097 108.502 96.9011 108.989 96.6988C109.476 96.4966 109.93 96.3059 110.351 96.1267L109.933 96.5452C109.75 95.7992 109.453 95.2906 109.044 95.0193C108.64 94.7467 108.056 94.7125 107.294 94.9168C106.789 95.0521 106.377 95.2867 106.058 95.6207C105.743 95.9481 105.577 96.3901 105.56 96.9467L104.149 96.9025C104.153 96.1171 104.389 95.4385 104.854 94.8666C105.319 94.2948 106.023 93.8825 106.966 93.6299C107.723 93.427 108.409 93.3896 109.023 93.5177C109.64 93.6392 110.141 93.9413 110.524 94.4239C110.712 94.6497 110.862 94.9105 110.974 95.2061C111.085 95.4966 111.185 95.8067 111.273 96.1364L112.656 101.298L111.435 101.625L110.899 99.6241L111.235 99.7329C111.101 100.492 110.797 101.12 110.323 101.617C109.854 102.113 109.215 102.469 108.406 102.686ZM108.307 101.478C108.801 101.346 109.205 101.144 109.519 100.872C109.836 100.593 110.067 100.28 110.211 99.9326C110.354 99.5796 110.413 99.2215 110.387 98.8584C110.396 98.5801 110.36 98.2832 110.281 97.9676C110.206 97.6454 110.145 97.3993 110.1 97.2293L110.635 97.3096C110.203 97.4915 109.779 97.6688 109.361 97.8414C108.944 98.014 108.551 98.1855 108.182 98.356C107.812 98.5214 107.485 98.6893 107.199 98.8597C106.992 98.9925 106.803 99.1425 106.632 99.3097C106.467 99.4755 106.346 99.6651 106.271 99.8785C106.2 100.085 106.199 100.32 106.269 100.583C106.33 100.81 106.445 101.011 106.613 101.187C106.787 101.361 107.012 101.48 107.289 101.544C107.571 101.606 107.91 101.585 108.307 101.478ZM114.665 100.76L112.429 92.4144L113.658 92.0852L114.198 94.102L113.927 93.8931C113.956 93.6093 114.018 93.3385 114.115 93.0808C114.217 92.8216 114.347 92.5963 114.505 92.4047C114.675 92.1716 114.884 91.9721 115.132 91.8062C115.38 91.6403 115.644 91.5117 115.923 91.4203C116.201 91.3238 116.471 91.2707 116.733 91.2611L117.079 92.5516C116.77 92.5516 116.448 92.6159 116.112 92.7444C115.777 92.873 115.491 93.0848 115.255 93.3798C115.038 93.6422 114.892 93.93 114.816 94.243C114.745 94.5547 114.724 94.8778 114.752 95.2124C114.78 95.5419 114.838 95.8714 114.926 96.2011L116.049 100.389L114.665 100.76ZM126.373 97.6229L125.253 93.4424C125.147 93.0457 125.008 92.6742 124.838 92.3277C124.673 91.9799 124.465 91.6852 124.212 91.4437C123.963 91.1956 123.669 91.0259 123.33 90.9346C122.996 90.8418 122.608 90.8549 122.165 90.9736C121.82 91.066 121.521 91.2095 121.27 91.4039C121.022 91.5918 120.829 91.8311 120.692 92.1219C120.554 92.4127 120.477 92.7536 120.461 93.1446C120.448 93.5291 120.506 93.9634 120.636 94.4477L119.657 94.4117C119.44 93.6029 119.399 92.8714 119.533 92.2171C119.671 91.5563 119.961 91.0009 120.403 90.551C120.85 90.0946 121.431 89.7705 122.147 89.5786C122.688 89.4337 123.172 89.3951 123.599 89.463C124.025 89.5308 124.403 89.6726 124.731 89.8883C125.058 90.0989 125.341 90.36 125.579 90.6716C125.816 90.9781 126.011 91.3041 126.164 91.6495C126.321 91.9884 126.442 92.3176 126.528 92.637L127.764 97.2502L126.373 97.6229ZM120.423 99.2173L118.187 90.8717L119.423 90.5404L120.022 92.7736L120.176 92.7322L121.814 98.8446L120.423 99.2173Z" fill="black"/>
</svg>
