<svg width="48" height="48" viewBox="0 0 48 48" fill="none" xmlns="http://www.w3.org/2000/svg">
<path fill-rule="evenodd" clip-rule="evenodd" d="M41.1333 9.13277C41.282 8.98401 41.4 8.8074 41.4805 8.61304C41.561 8.41867 41.6025 8.21035 41.6025 7.99997C41.6025 7.78959 41.561 7.58127 41.4805 7.3869C41.4 7.19254 41.282 7.01593 41.1333 6.86717C40.9845 6.71841 40.8079 6.60041 40.6135 6.5199C40.4192 6.43939 40.2108 6.39795 40.0005 6.39795C39.7901 6.39795 39.5818 6.43939 39.3874 6.5199C39.193 6.60041 39.0164 6.71841 38.8677 6.86717L24.0005 21.7376L9.13326 6.86717C8.9845 6.71841 8.80789 6.60041 8.61353 6.5199C8.41916 6.43939 8.21084 6.39795 8.00046 6.39795C7.79008 6.39795 7.58176 6.43939 7.38739 6.5199C7.19303 6.60041 7.01642 6.71841 6.86766 6.86717C6.7189 7.01593 6.60089 7.19254 6.52038 7.3869C6.43988 7.58127 6.39844 7.78959 6.39844 7.99997C6.39844 8.21035 6.43988 8.41867 6.52038 8.61304C6.60089 8.8074 6.7189 8.98401 6.86766 9.13277L21.7381 24L6.86766 38.8672C6.56722 39.1676 6.39844 39.5751 6.39844 40C6.39844 40.4249 6.56722 40.8323 6.86766 41.1328C7.1681 41.4332 7.57558 41.602 8.00046 41.602C8.42534 41.602 8.83282 41.4332 9.13326 41.1328L24.0005 26.2624L38.8677 41.1328C39.1681 41.4332 39.5756 41.602 40.0005 41.602C40.4253 41.602 40.8328 41.4332 41.1333 41.1328C41.4337 40.8323 41.6025 40.4249 41.6025 40C41.6025 39.5751 41.4337 39.1676 41.1333 38.8672L26.2629 24L41.1333 9.13277Z" fill="#EF4444"/>
</svg>
