<svg width="48" height="48" viewBox="0 0 48 48" fill="none" xmlns="http://www.w3.org/2000/svg">
<circle cx="24" cy="24" r="23.75" stroke="white" stroke-opacity="0.5" stroke-width="0.5"/>
<g clip-path="url(#clip0_965_1496)">
<path d="M30.8156 16H17.1812C16.5281 16 16 16.5156 16 17.1531V30.8438C16 31.4813 16.5281 32 17.1812 32H30.8156C31.4688 32 32 31.4813 32 30.8469V17.1531C32 16.5156 31.4688 16 30.8156 16ZM20.7469 29.6344H18.3719V21.9969H20.7469V29.6344ZM19.5594 20.9563C18.7969 20.9563 18.1813 20.3406 18.1813 19.5812C18.1813 18.8219 18.7969 18.2062 19.5594 18.2062C20.3188 18.2062 20.9344 18.8219 20.9344 19.5812C20.9344 20.3375 20.3188 20.9563 19.5594 20.9563ZM29.6344 29.6344H27.2625V25.9219C27.2625 25.0375 27.2469 23.8969 26.0281 23.8969C24.7937 23.8969 24.6062 24.8625 24.6062 25.8594V29.6344H22.2375V21.9969H24.5125V23.0406H24.5437C24.8594 22.4406 25.6344 21.8063 26.7875 21.8063C29.1906 21.8063 29.6344 23.3875 29.6344 25.4438V29.6344V29.6344Z" fill="white"/>
</g>
<defs>
<clipPath id="clip0_965_1496">
<rect width="16" height="16" fill="white" transform="translate(16 16)"/>
</clipPath>
</defs>
</svg>
