<svg width="1410" height="146" viewBox="0 0 1410 146" fill="none" xmlns="http://www.w3.org/2000/svg">
<g clip-path="url(#clip0_968_1558)">
<path fill-rule="evenodd" clip-rule="evenodd" d="M46.1319 146C40.7003 146 32.8876 142.743 29.0185 138.887L7.0686 116.8C3.23668 112.944 0 105.045 0 99.5795V46.4205C0 40.9549 3.23668 33.0933 7.0686 29.2L29.0185 7.11282C32.8504 3.25692 40.7003 0 46.1319 0H139.512C142.6 0 145.092 2.50821 145.092 5.61538V16.8462C145.092 19.9533 142.6 22.4615 139.512 22.4615H31.6227C26.4887 22.4615 22.3219 26.6544 22.3219 31.8205V114.179C22.3219 119.346 26.4887 123.538 31.6227 123.538H139.512C142.6 123.538 145.092 126.047 145.092 129.154V140.385C145.092 143.492 142.6 146 139.512 146H46.1319Z" fill="white"/>
<path fill-rule="evenodd" clip-rule="evenodd" d="M682.306 146C676.874 146 669.061 142.743 665.192 138.887L643.242 116.8C639.41 112.944 636.174 105.045 636.174 99.5795V46.4205C636.174 40.9549 639.41 33.0933 643.242 29.2L665.192 7.11282C669.024 3.25692 676.874 0 682.306 0H775.686C778.774 0 781.266 2.50821 781.266 5.61538V16.8462C781.266 19.9533 778.774 22.4615 775.686 22.4615H667.797C662.662 22.4615 658.496 26.6544 658.496 31.8205V114.179C658.496 119.346 662.662 123.538 667.797 123.538H775.686C778.774 123.538 781.266 126.047 781.266 129.154V140.385C781.266 143.492 778.774 146 775.686 146H682.306Z" fill="white"/>
<path fill-rule="evenodd" clip-rule="evenodd" d="M1397.57 146C1390.62 146 1384.03 143.005 1379.42 137.764L1293.74 39.8692C1292.66 38.6338 1291.55 37.9974 1290.39 37.9974C1288.94 37.9974 1287.23 39.1205 1287.23 42.34V140.422C1287.23 143.529 1284.74 146.037 1281.65 146.037H1270.49C1267.4 146.037 1264.91 143.529 1264.91 140.422V5.61539C1264.91 2.50821 1267.4 0 1270.49 0H1277.33C1284.29 0 1290.88 2.99487 1295.49 8.2359L1381.17 106.131C1382.25 107.366 1383.36 108.003 1384.52 108.003C1385.97 108.003 1387.68 106.879 1387.68 103.66V5.61539C1387.68 2.50821 1390.17 0 1393.26 0H1404.42C1407.51 0 1410 2.50821 1410 5.61539V140.385C1410 143.492 1407.51 146 1404.42 146H1397.57Z" fill="white"/>
<path fill-rule="evenodd" clip-rule="evenodd" d="M224.707 146C219.275 146 211.463 142.743 207.594 138.887L185.644 116.8C181.812 112.944 178.575 105.045 178.575 99.5795V46.4205C178.575 40.9549 181.812 33.0933 185.644 29.2L207.594 7.11282C211.426 3.25692 219.275 0 224.707 0H288.697C294.128 0 301.941 3.25692 305.81 7.11282L327.76 29.2C331.592 33.0559 334.828 40.9549 334.828 46.4205V99.5795C334.828 105.045 331.592 112.907 327.76 116.8L305.81 138.887C301.978 142.743 294.128 146 288.697 146H224.707ZM210.198 22.4615C205.064 22.4615 200.897 26.6544 200.897 31.8205V114.179C200.897 119.346 205.064 123.538 210.198 123.538H303.206C308.34 123.538 312.507 119.346 312.507 114.179V31.8205C312.507 26.6544 308.34 22.4615 303.206 22.4615H210.198Z" fill="white"/>
<path fill-rule="evenodd" clip-rule="evenodd" d="M1136.56 146C1133.47 146 1130.98 143.492 1130.98 140.385V106.692C1130.98 101.526 1126.81 97.3333 1121.67 97.3333H1039.83C1034.69 97.3333 1030.53 101.526 1030.53 106.692V140.385C1030.53 143.492 1028.03 146 1024.95 146H1013.79C1010.7 146 1008.21 143.492 1008.21 140.385V46.4205C1008.21 40.9549 1011.44 33.0933 1015.27 29.2L1037.22 7.11282C1041.06 3.25692 1048.91 0 1054.34 0H1107.17C1112.6 0 1120.41 3.25692 1124.28 7.11282L1146.23 29.2C1150.06 33.0559 1153.3 40.9549 1153.3 46.4205V140.385C1153.3 143.492 1150.8 146 1147.72 146H1136.56ZM1039.83 22.4615C1034.69 22.4615 1030.53 26.6544 1030.53 31.8205V65.5128C1030.53 70.679 1034.69 74.8718 1039.83 74.8718H1121.67C1126.81 74.8718 1130.98 70.679 1130.98 65.5128V31.8205C1130.98 26.6544 1126.81 22.4615 1121.67 22.4615H1039.83Z" fill="white"/>
<path fill-rule="evenodd" clip-rule="evenodd" d="M946.82 146C943.732 146 941.239 143.492 941.239 140.385V106.692C941.239 101.526 937.072 97.3333 931.938 97.3333H850.091C844.957 97.3333 840.791 101.526 840.791 106.692V140.385C840.791 143.492 838.298 146 835.21 146H824.049C820.961 146 818.469 143.492 818.469 140.385V5.61538C818.469 2.50821 820.961 0 824.049 0H835.21C838.298 0 840.791 2.50821 840.791 5.61538V65.5128C840.791 70.679 844.957 74.8718 850.091 74.8718H931.938C937.072 74.8718 941.239 70.679 941.239 65.5128V5.61538C941.239 2.50821 943.732 0 946.82 0H957.981C961.068 0 963.561 2.50821 963.561 5.61538V140.385C963.561 143.492 961.068 146 957.981 146H946.82Z" fill="white"/>
<path d="M1214.68 0H1203.52C1200.44 0 1197.94 2.51409 1197.94 5.61538V140.385C1197.94 143.486 1200.44 146 1203.52 146H1214.68C1217.76 146 1220.26 143.486 1220.26 140.385V5.61538C1220.26 2.51409 1217.76 0 1214.68 0Z" fill="white"/>
<path fill-rule="evenodd" clip-rule="evenodd" d="M520.472 146C515.041 146 507.228 142.743 503.359 138.887L492.049 127.507C490.301 125.747 487.957 124.774 485.464 124.774C482.972 124.774 480.628 125.747 478.879 127.507L467.57 138.887C463.738 142.743 455.888 146 450.456 146H421.81C416.378 146 408.565 142.743 404.696 138.887L382.746 116.8C378.914 112.944 375.678 105.045 375.678 99.5795V5.61538C375.678 2.50821 378.17 0 381.258 0H392.419C395.507 0 398 2.50821 398 5.61538V114.179C398 119.346 402.166 123.538 407.3 123.538H464.965C470.099 123.538 474.266 119.346 474.266 114.179V5.61538C474.266 2.50821 476.759 0 479.847 0H491.008C494.095 0 496.588 2.50821 496.588 5.61538V114.179C496.588 119.346 500.755 123.538 505.889 123.538H563.554C568.688 123.538 572.854 119.346 572.854 114.179V5.61538C572.854 2.50821 575.347 0 578.435 0H589.596C592.684 0 595.176 2.50821 595.176 5.61538V99.5795C595.176 105.045 591.94 112.907 588.108 116.8L566.158 138.887C562.326 142.743 554.476 146 549.044 146H520.398H520.472Z" fill="white"/>
</g>
<defs>
<clipPath id="clip0_968_1558">
<rect width="1410" height="146" fill="white"/>
</clipPath>
</defs>
</svg>
