<svg width="48" height="48" viewBox="0 0 48 48" fill="none" xmlns="http://www.w3.org/2000/svg">
<circle cx="24" cy="24" r="23.75" stroke="white" stroke-opacity="0.5" stroke-width="0.5"/>
<g clip-path="url(#clip0_965_1511)">
<path d="M25.1391 23.872C25.1391 26.6651 22.8942 28.9294 20.1253 28.9294C17.3563 28.9294 15.1113 26.6646 15.1113 23.872C15.1113 21.0794 17.3561 18.8145 20.1253 18.8145C22.8944 18.8145 25.1391 21.0789 25.1391 23.872Z" fill="white"/>
<path d="M30.639 23.8721C30.639 26.5013 29.5165 28.6334 28.132 28.6334C26.7474 28.6334 25.625 26.5013 25.625 23.8721C25.625 21.243 26.7472 19.1108 28.1318 19.1108C29.5164 19.1108 30.6388 21.2423 30.6388 23.8721" fill="white"/>
<path d="M32.8882 23.8723C32.8882 26.2274 32.4936 28.1377 32.0065 28.1377C31.5195 28.1377 31.125 26.2279 31.125 23.8723C31.125 21.5167 31.5197 19.6069 32.0065 19.6069C32.4934 19.6069 32.8882 21.5166 32.8882 23.8723Z" fill="white"/>
</g>
<defs>
<clipPath id="clip0_965_1511">
<rect width="17.7778" height="17.7778" fill="white" transform="translate(15.1113 15.1108)"/>
</clipPath>
</defs>
</svg>
