<svg width="48" height="48" viewBox="0 0 48 48" fill="none" xmlns="http://www.w3.org/2000/svg">
<g clip-path="url(#clip0_974_1569)">
<path d="M18.2937 36.92L4.38702 23.0267C4.16858 22.7716 4.05444 22.4435 4.0674 22.108C4.08036 21.7724 4.21947 21.4541 4.45693 21.2166C4.69439 20.9791 5.01271 20.84 5.34828 20.8271C5.68385 20.8141 6.01195 20.9283 6.26702 21.1467L18.267 33.1467L41.7204 9.72002C41.9754 9.50159 42.3035 9.38745 42.6391 9.40041C42.9747 9.41337 43.293 9.55248 43.5304 9.78994C43.7679 10.0274 43.907 10.3457 43.92 10.6813C43.9329 11.0169 43.8188 11.345 43.6004 11.6L18.2937 36.92Z" fill="#4ECB71"/>
</g>
<defs>
<clipPath id="clip0_974_1569">
<rect width="48" height="48" fill="white"/>
</clipPath>
</defs>
</svg>
