<svg width="48" height="48" viewBox="0 0 48 48" fill="none" xmlns="http://www.w3.org/2000/svg">
<circle cx="24" cy="24" r="23.75" stroke="white" stroke-opacity="0.5" stroke-width="0.5"/>
<g clip-path="url(#clip0_965_1501)">
<path fill-rule="evenodd" clip-rule="evenodd" d="M32.8891 23.9997C32.8891 28.9089 28.9094 32.8886 24.0002 32.8886C19.091 32.8886 15.1113 28.9089 15.1113 23.9997C15.1113 19.0905 19.091 15.1108 24.0002 15.1108C28.9094 15.1108 32.8891 19.0905 32.8891 23.9997ZM24.3188 21.673C23.4542 22.0326 21.7262 22.7769 19.135 23.9059C18.7142 24.0732 18.4937 24.2369 18.4737 24.397C18.4398 24.6675 18.7785 24.774 19.2398 24.9191C19.3026 24.9388 19.3676 24.9593 19.4342 24.9809C19.8881 25.1284 20.4986 25.301 20.816 25.3079C21.1039 25.3141 21.4252 25.1954 21.78 24.9518C24.2011 23.3175 25.4509 22.4914 25.5293 22.4736C25.5847 22.4611 25.6614 22.4453 25.7134 22.4915C25.7654 22.5377 25.7602 22.6251 25.7547 22.6486C25.7212 22.7917 24.3914 24.0279 23.7033 24.6677C23.4887 24.8672 23.3366 25.0086 23.3055 25.0409C23.2358 25.1133 23.1648 25.1818 23.0965 25.2476C22.6749 25.654 22.3587 25.9589 23.114 26.4566C23.477 26.6958 23.7674 26.8936 24.0572 27.0909C24.3737 27.3065 24.6893 27.5214 25.0977 27.7891C25.2018 27.8573 25.3011 27.9282 25.3979 27.9972C25.7662 28.2597 26.0971 28.4956 26.5058 28.458C26.7434 28.4361 26.9887 28.2128 27.1133 27.5467C27.4078 25.9724 27.9866 22.5615 28.1204 21.156C28.1321 21.0329 28.1174 20.8753 28.1055 20.8061C28.0937 20.7369 28.0689 20.6383 27.979 20.5654C27.8725 20.4789 27.7081 20.4607 27.6346 20.462C27.3002 20.4679 26.7873 20.6463 24.3188 21.673Z" fill="white"/>
</g>
<defs>
<clipPath id="clip0_965_1501">
<rect width="17.7778" height="17.7778" fill="white" transform="translate(15.1113 15.1108)"/>
</clipPath>
</defs>
</svg>
