<svg width="48" height="48" viewBox="0 0 48 48" fill="none" xmlns="http://www.w3.org/2000/svg">
<circle cx="24" cy="24" r="23.75" stroke="white" stroke-opacity="0.5" stroke-width="0.5"/>
<g clip-path="url(#clip0_965_1507)">
<path d="M21.3628 29.7777C26.7284 29.7777 29.6639 25.3313 29.6639 21.4765C29.6639 21.3515 29.6612 21.2238 29.6556 21.0988C30.2267 20.6858 30.7195 20.1743 31.1109 19.5882C30.5791 19.8248 30.0144 19.9794 29.4362 20.0465C30.045 19.6816 30.5008 19.1083 30.7192 18.4329C30.1465 18.7724 29.5201 19.0118 28.867 19.141C28.4269 18.6734 27.8451 18.3638 27.2114 18.2601C26.5778 18.1563 25.9276 18.2642 25.3614 18.5671C24.7952 18.8699 24.3446 19.3508 24.0791 19.9355C23.8136 20.5201 23.7482 21.176 23.8928 21.8015C22.7331 21.7434 21.5986 21.4421 20.5627 20.9173C19.5269 20.3925 18.6129 19.6559 17.8801 18.7552C17.5076 19.3974 17.3936 20.1573 17.5613 20.8805C17.729 21.6038 18.1657 22.236 18.7828 22.6488C18.3196 22.6341 17.8664 22.5093 17.4609 22.2849V22.321C17.4605 22.9949 17.6935 23.6482 18.1203 24.1698C18.5471 24.6914 19.1413 25.0491 19.802 25.1821C19.3729 25.2995 18.9224 25.3166 18.4856 25.2321C18.6721 25.8117 19.0348 26.3186 19.5232 26.6822C20.0116 27.0457 20.6013 27.2477 21.2101 27.2599C20.1766 28.0717 18.9 28.512 17.5859 28.5099C17.3528 28.5095 17.12 28.4952 16.8887 28.4671C18.2237 29.3236 19.7767 29.7785 21.3628 29.7777Z" fill="white"/>
</g>
<defs>
<clipPath id="clip0_965_1507">
<rect width="14.2222" height="14.2222" fill="white" transform="translate(16.8887 16.8887)"/>
</clipPath>
</defs>
</svg>
